<?xml version="1.0" standalone="no"?>
<!DOCTYPE svg PUBLIC "-//W3C//DTD SVG 1.1//EN" "http://www.w3.org/Graphics/SVG/1.1/DTD/svg11.dtd" >
<svg xmlns="http://www.w3.org/2000/svg" xmlns:xlink="http://www.w3.org/1999/xlink" version="1.1">
<metadata>
Created by FontForge 20170731 at Sun Oct 23 12:58:18 2016
 By Aleksey,,,
Copyright (c) 2016 by Clement Nicolle. All rights reserved.
</metadata>
<defs>
<font id="ThinkingOfBetty" horiz-adv-x="916" >
  <font-face 
    font-family="Thinking Of Betty"
    font-weight="400"
    font-stretch="normal"
    units-per-em="1000"
    panose-1="0 0 0 0 0 0 0 0 0 0"
    ascent="750"
    descent="-250"
    x-height="581"
    cap-height="1019"
    bbox="-1277 -764 1786 1482"
    underline-thickness="50"
    underline-position="-150"
    unicode-range="U+000D-FB02"
  />
<missing-glyph horiz-adv-x="357" 
 />
    <glyph glyph-name=".notdef" horiz-adv-x="357" 
 />
    <glyph glyph-name=".null" horiz-adv-x="0" 
 />
    <glyph glyph-name="nonmarkingreturn" unicode="&#xd;" horiz-adv-x="357" 
 />
    <glyph glyph-name="NULL" horiz-adv-x="0" 
 />
    <glyph glyph-name="NULL" horiz-adv-x="0" 
 />
    <glyph glyph-name="space" unicode=" " horiz-adv-x="357" 
 />
    <glyph glyph-name="exclam" unicode="!" horiz-adv-x="509" 
d="M299 905q0 13 21.5 10.5t47.5 -16t47.5 -34.5t21.5 -45q0 -15 -9.5 -39.5t-26 -55t-37.5 -66t-43 -73.5q-27 -45 -53.5 -91t-47.5 -88t-34.5 -77t-13.5 -59q0 -13 -18.5 -10t-40 16.5t-40 35.5t-18.5 46q0 18 9.5 44.5t25 59t36 69t42.5 75.5q24 43 47.5 86t42 82.5
t30 73t11.5 56.5zM39 250q17 0 33 -7.5t28.5 -18.5t20 -25.5t7.5 -27.5t-7.5 -28.5t-18.5 -32.5q-11 -18 -20.5 -36.5t-9.5 -32.5q0 -19 -20 -19.5t-43.5 9.5t-43.5 27t-20 32q0 17 11 44.5t26 53t31 44t26 18.5z" />
    <glyph glyph-name="quotedbl" unicode="&#x22;" horiz-adv-x="382" 
d="M73 872q0 11 17.5 9.5t38 -12t38 -28t17.5 -38.5q0 -14 -10.5 -36.5t-23.5 -47.5q-14 -27 -26.5 -54t-12.5 -42q0 -9 -19.5 -9t-43 7t-43 20.5t-19.5 30.5q0 13 10 33.5t24 45.5q9 16 18 33t17 33.5t13 30.5t5 24zM227 848q0 12 18 10.5t40 -12.5t40 -30t18 -43
q0 -11 -10 -28.5t-24 -38.5q-17 -25 -33 -51.5t-16 -41.5q0 -9 -18.5 -10t-40.5 5t-40.5 18.5t-18.5 29.5q0 14 12 37.5t27 50.5q16 30 31 60t15 44z" />
    <glyph glyph-name="numbersign" unicode="#" horiz-adv-x="833" 
d="M695 523q9 3 11 -15.5t-1.5 -41.5t-14 -42.5t-27.5 -19.5q-13 0 -53.5 0.5t-92.5 3.5q-8 -16 -14 -27.5t-15 -31.5q53 0 93 3.5t59 11.5q9 4 13.5 -11.5t4 -37.5t-7 -44t-20.5 -32q-8 -4 -23 -5t-34 -1q-28 0 -61 1.5t-78 3.5q-32 -67 -52 -121t-20 -83q0 -12 -17 -13.5
t-38 5.5t-38 22t-17 36q0 10 4.5 27t12 39t17.5 46.5t21 50.5q-19 2 -37 3.5t-40 2.5q-33 -72 -55 -130.5t-22 -88.5q0 -12 -17.5 -13.5t-38 5.5t-38 22t-17.5 36q0 23 17 67.5t43 102.5q-43 0 -74.5 -2.5t-48.5 -10.5q-9 -4 -13 10.5t-2.5 34.5t9.5 39.5t24 26.5
q12 5 34.5 7t53.5 2h30.5t34.5 -1q8 16 12 27t15 31q-49 -2 -87 -6t-56 -12q-9 -4 -13.5 10.5t-2.5 34.5t10 39.5t24 26.5q12 5 35.5 7t55.5 2h39t44 -1q16 33 29.5 62.5t23.5 53t16 38.5t6 20q0 12 16 15t35.5 -3t36 -20t16.5 -36q0 -17 -14 -52.5t-36 -83.5q9 -1 16 -1h16
q14 -1 21.5 -1.5t21.5 -0.5q1 2 2 3t2 3q16 34 30 64t24.5 53.5t16.5 39t6 20.5q0 12 16.5 12t37 -8.5t37 -22.5t16.5 -29q0 -18 -14 -52.5t-37 -84.5q44 1 77 4.5t51 10.5zM281 356q17 -1 36 -2t37 -3q7 14 13 27t14 27l5 8l-76 4q-8 -17 -13 -29t-16 -32z" />
    <glyph glyph-name="dollar" unicode="$" horiz-adv-x="659" 
d="M594 784q0 -29 -15.5 -57.5t-32.5 -56.5q-14 -23 -25.5 -43t-11.5 -36q0 -6 1 -8q4 -16 3.5 -27.5t-26.5 -11.5q-11 0 -23 5t-22.5 15t-17.5 24t-7 31q0 28 16 55.5t34 55.5q15 24 28.5 47.5t13.5 41.5q0 6 -15 8q-15 -37 -34.5 -84.5t-42.5 -102t-48 -113.5t-51 -119
q27 -12 53 -25t47 -28t34 -33.5t13 -41.5q0 -24 -14.5 -54t-38.5 -61.5t-56 -62t-67.5 -54.5t-72 -39.5t-70.5 -16.5q-15 -38 -24 -60.5t-9 -24.5q0 -7 -13 -5t-29 8t-29 13.5t-13 12.5q0 10 28 76q-37 20 -61.5 50t-24.5 56q0 12 7 31t17.5 41t24 44t27 40t24.5 29t18 11
q9 0 18 -5.5t16 -14t11.5 -18.5t4.5 -18q0 -10 -6 -21t-14 -29q-8 -17 -18 -37t-19 -37.5t-14.5 -29.5t-4.5 -12q6 0 13.5 0.5t13.5 1.5l29 65q21 48 41.5 97t46.5 106q-24 10 -45 22.5t-37 28.5t-25.5 37t-9.5 48q0 16 13 47t36 69t54.5 79t68.5 78t78 65t83 40
q14 35 22.5 59t8.5 29q0 6 11.5 5t25 -7.5t25 -16.5t11.5 -20q0 -5 -4 -17t-9 -28q16 -4 30.5 -12t25.5 -19.5t17.5 -27.5t6.5 -37zM346 301q0 8 -16.5 15.5t-42.5 16.5l-80 -190q29 19 54.5 41t44 44t29.5 41t11 32zM223 465q0 -10 19 -21q19 44 32 73t23.5 53.5t21.5 50
t26 62.5q-25 -34 -47 -69t-38.5 -65t-26.5 -52.5t-10 -31.5z" />
    <glyph glyph-name="percent" unicode="%" horiz-adv-x="480" 
d="M140 525q-11 0 -26 5t-29 16t-24 28t-10 41q0 21 15 48t37 50.5t47.5 40t47.5 16.5q21 0 40 -8t33 -20.5t22 -29t8 -32.5q0 -25 -11.5 -52.5t-32.5 -50t-51 -37.5t-66 -15zM138 594q13 4 25.5 13.5t22 22t15.5 26.5t7 26q-10 -5 -21 -15.5t-21.5 -23.5t-18 -26t-9.5 -23z
M522 690q0 -14 -13.5 -37.5t-35.5 -53.5t-51 -64.5t-60 -70.5q-42 -49 -85 -101t-78 -101t-57.5 -91t-22.5 -70q0 -17 4.5 -31.5t9.5 -25.5q6 -14 9.5 -25t1.5 -18.5t-11.5 -12t-29.5 -4.5q-17 0 -37.5 12.5t-37.5 33t-28.5 48t-11.5 57.5q0 33 21 77t54 93t74 101t82 101
q35 43 68.5 84t59 77.5t41 66t15.5 49.5q0 13 18.5 9t41 -18.5t41 -37.5t18.5 -47zM306 285q21 0 40 -8t33 -21t22 -29t8 -32q0 -25 -11.5 -52.5t-33 -50t-51.5 -37.5t-66 -15q-10 0 -25 5t-29.5 16t-24.5 28t-10 41q0 21 15 47.5t37 50.5t48 40.5t48 16.5zM315 196
q-9 -5 -20 -15.5t-21 -23t-18 -25t-11 -22.5q13 3 25 12.5t22 21.5t16 26t7 26z" />
    <glyph glyph-name="ampersand" unicode="&#x26;" horiz-adv-x="669" 
d="M528 61q0 13 13 14t29 -5t29 -17t13 -22q0 -9 -6 -29t-24 -40.5t-51 -36.5t-86 -16t-111 32.5t-106 97.5q-39 -19 -76 -29.5t-70 -10.5q-32 0 -61.5 10t-52.5 30t-37 50t-14 70q0 28 17.5 61.5t46.5 70.5t67 76.5t79 79.5q7 88 31 159t59 120t77.5 75.5t84.5 26.5
q31 0 58 -10t47 -28t32 -43.5t12 -55.5t-23 -66.5t-60.5 -77t-84 -83.5t-92.5 -84q-18 -16 -34.5 -30t-34.5 -31q7 -53 21 -96t37 -85q36 25 69 55.5t58 60.5t40 58t15 50q0 6 12.5 5t27 -7t27 -15.5t12.5 -20.5q0 -26 -18.5 -58t-49.5 -65t-71 -65t-83 -59q32 -42 72 -67.5
t81 -25.5q29 0 45 10.5t23.5 24t9 26t1.5 16.5zM386 762q-27 0 -52.5 -17.5t-48.5 -48t-41.5 -73t-30.5 -92.5q40 37 76.5 72t64.5 64t44.5 52t16.5 36q0 7 -29 7zM85 64q23 0 50.5 8.5t55.5 23.5q-20 35 -33.5 74.5t-21.5 88.5q-48 -47 -79.5 -87t-31.5 -69q0 -8 5.5 -15
t14.5 -12.5t19.5 -8.5t20.5 -3z" />
    <glyph glyph-name="quotesingle" unicode="'" horiz-adv-x="224" 
d="M70 872q0 11 17.5 9.5t38.5 -12t38.5 -28t17.5 -38.5q0 -14 -10.5 -36.5t-23.5 -47.5q-14 -27 -27 -54t-13 -42q0 -9 -19.5 -9t-43 7t-43 20.5t-19.5 30.5q0 13 10 33.5t24 45.5q9 16 18.5 33t17 33.5t12.5 30.5t5 24z" />
    <glyph glyph-name="parenleft" unicode="(" horiz-adv-x="404" 
d="M517 886q18 0 24 -10t6 -22q0 -8 -8 -16t-23 -20q-21 -18 -57.5 -48.5t-79 -73t-85.5 -96.5t-78 -117t-57 -134.5t-22 -150.5q0 -36 4 -61t10 -42.5t12 -27.5t10 -16q8 -11 8 -19q0 -17 -13 -25t-30 -8q-26 0 -52.5 19.5t-48 54t-35 80.5t-13.5 100q0 66 30.5 138.5
t79.5 142.5t109 134t118.5 112.5t109.5 77t81 28.5z" />
    <glyph glyph-name="parenright" unicode=")" horiz-adv-x="484" 
d="M307 826q0 4 -1 6.5t-2 7.5q-5 17 -3 28.5t27 11.5q5 0 16 -8t22 -30.5t19 -62.5t8 -104q0 -62 -15.5 -136.5t-43 -149.5t-65 -145.5t-80.5 -124.5t-90.5 -87t-94.5 -33q-20 0 -39 7t-34.5 17.5t-25 22.5t-9.5 21q0 14 10.5 22t33.5 8q38 0 79.5 34.5t82.5 92t78 133
t65.5 156.5t45 162t16.5 151z" />
    <glyph glyph-name="asterisk" unicode="*" horiz-adv-x="453" 
d="M440 791q26 0 38 -12.5t12 -25.5q0 -17 -9.5 -24.5t-26.5 -7.5q-6 0 -19.5 -5t-32 -14t-41 -20.5t-46.5 -23.5q14 -26 26 -47t17 -21q2 0 3.5 -8t1 -17.5t-5 -17.5t-13.5 -8q-20 0 -39 13t-37 34q-31 -68 -46 -68q-6 0 -14.5 4t-16 10.5t-13 15t-5.5 18.5q0 2 2.5 8.5
t5.5 13.5q-27 -14 -46.5 -21.5t-27.5 -7.5q-9 0 -16 8.5t-10.5 18.5t-2.5 18.5t8 8.5q4 0 15 8t36 24q16 11 31.5 20.5t38.5 23.5q-19 38 -30.5 70t-11.5 37q0 3 16 2.5t35 -4t35 -9.5t16 -13q0 -1 0.5 -3.5t3.5 -8.5q11 21 18 37t7 19t8.5 2.5t19 -3t19.5 -6.5t9 -9
q0 -3 -2 -10t-9 -27q26 12 53 20t46 8z" />
    <glyph glyph-name="plus" unicode="+" horiz-adv-x="610" 
d="M504 469q15 0 28.5 -13t20.5 -28t6 -28t-14 -13q-69 0 -123 -2.5t-106 -7.5l-16 -32q-15 -29 -28.5 -55.5t-24 -47.5t-16.5 -34.5t-6 -16.5q0 -14 -8.5 -17t-21 1t-27.5 13.5t-27.5 20t-21 20.5t-8.5 15q0 10 14 41.5t36 73.5l-44 -7q-23 -4 -36.5 -6.5t-24.5 -2.5
t-22.5 11.5t-18.5 25.5t-7 25.5t13 11.5q5 0 12.5 2t22.5 5q26 5 64.5 12t92.5 14l29 52h-1q15 27 28 51t22.5 42.5t15.5 29.5t6 12q0 9 17 9t37 -6t37 -16t17 -21q0 -12 -17 -49.5t-42 -88.5q32 2 68 3t74 1z" />
    <glyph glyph-name="comma" unicode="," horiz-adv-x="299" 
d="M31 64q0 26 13 37.5t32 11.5q14 0 30.5 -7.5t30.5 -19t23.5 -24.5t9.5 -24q0 -36 -23 -71t-55 -62t-68 -44t-61 -17q-23 0 -37 11.5t-14 37.5q0 11 9 20t23 20q12 9 27.5 22t28.5 29.5t22 36.5t9 43z" />
    <glyph glyph-name="hyphen" unicode="-" horiz-adv-x="538" 
d="M113 411q25 0 62 0.5t76 2.5q34 2 67.5 3t50.5 1q19 0 36 -15.5t27.5 -34.5t12.5 -34.5t-8 -15.5h-18q-5 0 -11 0.5t-18 0.5q-17 0 -41.5 0.5t-53.5 0.5q-35 1 -69.5 1h-63.5q-26 0 -45.5 14t-30.5 31t-12.5 31t7.5 14h32z" />
    <glyph glyph-name="period" unicode="." horiz-adv-x="168" 
d="M57 -1q-8 0 -21 3.5t-25 11t-20.5 19t-8.5 28.5q0 13 6.5 29.5t15.5 30.5t20 23.5t20 9.5q13 0 26 -6t23 -15t16 -20t6 -21q0 -9 -6.5 -25t-15.5 -31t-19 -26t-17 -11z" />
    <glyph glyph-name="slash" unicode="/" horiz-adv-x="420" 
d="M101 -32q0 -13 -18 -10t-39.5 16.5t-39.5 34.5t-18 45q0 18 12 51t32 77.5t46 98t55 111.5q36 71 72 144t65 138.5t47.5 118t18.5 82.5q0 13 21.5 10.5t47 -16t47 -34.5t21.5 -45q0 -14 -11.5 -44t-31 -70.5t-45.5 -90.5t-55 -104q-39 -73 -79.5 -150.5t-73 -148
t-53.5 -127t-21 -87.5z" />
    <glyph glyph-name="zero" unicode="0" horiz-adv-x="722" 
d="M456 843q55 0 95 -19t66 -52.5t38 -79t12 -97.5q0 -61 -16 -129t-46 -134.5t-72.5 -126.5t-94.5 -105.5t-113 -72.5t-128 -27q-55 0 -94 18.5t-64 50.5t-36.5 75t-11.5 93q0 74 23 156t62.5 155.5t91.5 130t110 79.5q36 33 81 59t97 26zM196 63q41 0 81.5 28.5t77.5 76
t69 109t55.5 126.5t37 129.5t13.5 118.5q0 58 -18.5 95.5t-62.5 37.5q-16 0 -33.5 -8t-35.5 -21q11 -11 18.5 -26.5t10.5 -30t1 -24.5t-11 -10q-11 0 -16 2q-2 0 -3.5 0.5t-3.5 0.5q-30 0 -59.5 -23.5t-56.5 -62t-50.5 -89t-40.5 -104.5t-26.5 -107.5t-9.5 -98.5
q0 -52 14.5 -85.5t48.5 -33.5z" />
    <glyph glyph-name="one" unicode="1" horiz-adv-x="540" 
d="M564 760q0 -26 -26.5 -75.5t-65.5 -115.5q-30 -51 -62 -108.5t-58.5 -115t-44 -113t-17.5 -102.5q0 -23 4 -40.5t8 -30.5q5 -17 8 -29t0.5 -20.5t-12 -12.5t-30.5 -4q-26 0 -48.5 13.5t-39 35t-26 49.5t-9.5 58q0 46 15 99.5t39 109t53.5 112.5t58.5 111
q-38 -38 -74.5 -70.5t-70 -57.5t-62.5 -41.5t-52 -22.5q-29 -7 -51.5 6.5t-36.5 33t-18.5 38.5t3.5 23q11 3 17 1t11 -4q4 -2 9 -3.5t13 0.5q60 15 118.5 53t113 88.5t104 109t92.5 116.5q2 12 8.5 17t17.5 7q12 0 31 -9t37 -25t30.5 -37t12.5 -44z" />
    <glyph glyph-name="two" unicode="2" horiz-adv-x="653" 
d="M646 644q1 -19 -3 -40t-13 -38q-20 -42 -57 -86t-83 -86.5t-97.5 -83.5t-99.5 -78q-23 -17 -37 -27.5t-25 -18.5t-21 -16.5t-25 -21.5q27 3 56 5t61 2q52 0 104.5 -8.5t100.5 -31.5q18 -8 34 -22.5t26.5 -32.5t13.5 -38.5t-6 -39.5q-9 -18 -16.5 -25t-15 -6t-16 9
t-19.5 19h1q-8 8 -18 17.5t-24 16.5q-39 18 -82.5 25.5t-85.5 7.5q-50 0 -97 -7t-82 -13q-31 -6 -52 -8t-32 3q-20 9 -29 30t-7 41q-4 11 -7 25.5t-3 25.5q0 19 7 36q6 12 21 27.5t36.5 33.5t49 38t57.5 41q47 33 100 72.5t101 81.5t86.5 85t58.5 84q9 18 12.5 32t3.5 33
q0 26 -19.5 43.5t-45.5 17.5q-31 0 -68.5 -13.5t-72.5 -35t-63 -48.5t-40 -55q-18 -45 -20 -65t0 -30v1q2 -5 1.5 -11.5t-2.5 -11.5q-2 -7 -15 -8t-27.5 7t-26 28.5t-11.5 57.5q0 18 5.5 42.5t16.5 51.5q15 36 40.5 65.5t58 50.5t70.5 33t78 12t86 -11.5t85 -35t65.5 -60
t27.5 -86.5v-2v0z" />
    <glyph glyph-name="three" unicode="3" horiz-adv-x="650" 
d="M641 676q0 -32 -13 -59t-35 -50.5t-49.5 -43.5t-57.5 -38q33 -20 59 -58t26 -99q0 -63 -33 -123.5t-85.5 -108t-116.5 -76.5t-126 -29q-48 0 -84 13.5t-62 33.5t-42 44t-24 45q-5 11 -6.5 21t-1.5 18q0 22 8.5 31.5t21 6.5t26.5 -19t26 -46q4 -9 18 -21.5t40 -12.5
q69 0 128 25t102 65t67 90.5t24 101.5q0 30 -8.5 41t-22.5 11q-11 0 -22 -3t-22 -8h1q-23 -13 -37.5 -21t-14.5 -13q0 -11 -14 -10.5t-30.5 9.5t-30.5 25t-14 37q0 16 9 30t25 27t36.5 25.5t43.5 26.5q28 16 58 34.5t54.5 40t40 47t15.5 55.5q0 26 -20 43.5t-46 17.5
q-36 0 -68.5 -9t-59.5 -24.5t-46.5 -35t-28.5 -40.5h1q-13 -32 -15 -48.5t-1 -23.5q1 -4 0.5 -9.5t-1.5 -8.5q-2 -6 -15 -7t-27.5 6.5t-26.5 25t-12 50.5q0 13 4.5 32.5t11.5 36.5q14 27 40 50t59.5 40t72 26.5t76.5 9.5q41 0 81.5 -11.5t72.5 -35t51.5 -60.5t19.5 -88v-2z
" />
    <glyph glyph-name="four" unicode="4" horiz-adv-x="717" 
d="M543 321q18 -9 34 -23.5t26.5 -32.5t13 -38.5t-6.5 -39.5q-9 -18 -16 -25t-14.5 -6t-16 9t-19.5 19h1q-8 8 -18 17.5t-24 17.5q-11 5 -22.5 9t-24.5 8q-11 -32 -17 -62t-6 -56q0 -23 4 -40.5t9 -30.5q5 -16 8 -28t0.5 -20.5t-12 -12.5t-30.5 -4q-26 0 -48 13.5t-38.5 35
t-26 49.5t-9.5 58q0 26 4 55t14 59q-51 -1 -101.5 -7.5t-88.5 -11.5q-34 -6 -57.5 -8t-33.5 3q-26 12 -33.5 32.5t3.5 45.5q2 3 4 5.5t7 4.5q7 6 16 8q40 10 87.5 40.5t98 74t102 96t99 106.5t89 105.5t72.5 93.5q1 12 7.5 17t17.5 7q12 0 31 -9t37 -25t31 -37.5t13 -44.5
q0 -13 -7.5 -33t-20.5 -44.5t-29.5 -53.5t-34.5 -60q-28 -48 -61 -106t-58 -112q12 -4 23 -8.5t22 -9.5zM441 546q-49 -54 -97.5 -103.5t-94.5 -91.5q23 2 48 4t51 2q22 51 46 97.5t47 91.5z" />
    <glyph glyph-name="five" unicode="5" horiz-adv-x="543" 
d="M398 725q-48 0 -86.5 3.5t-68.5 8.5q-7 -14 -17 -28.5t-21 -31.5q-12 -17 -25.5 -37t-25.5 -41t-20.5 -43t-11.5 -44q27 10 58 16t63 6q40 0 78.5 -10t68.5 -33t48 -60.5t18 -92.5q0 -63 -33 -123.5t-85.5 -108t-116.5 -76.5t-126 -29q-48 0 -84 13t-62 33.5t-42 44
t-24 44.5q-5 11 -6.5 21.5t-1.5 18.5q0 22 8.5 31.5t21 6.5t26.5 -19t26 -46q4 -10 18 -22.5t40 -12.5q69 0 128 25t102 65t67.5 90.5t24.5 101.5q0 32 -14.5 43.5t-37.5 11.5q-24 0 -55.5 -8t-57.5 -16q-20 -7 -40 -12t-32 -5q-15 0 -32 11t-32 27.5t-24.5 35.5t-9.5 36
q0 50 21.5 92.5t46.5 80.5q14 23 28 46.5t21 43.5q-3 9 -3 24q0 18 8.5 28t16.5 15h-1q12 9 28 3q10 -1 22 -3t25 -4q35 -7 80 -14t85 -7q30 0 49.5 3.5t32 8.5t19 10t9.5 8q5 5 8.5 8t11.5 3q6 0 9 -22t-6.5 -48.5t-35.5 -48.5t-79 -22z" />
    <glyph glyph-name="six" unicode="6" horiz-adv-x="628" 
d="M508 855q48 0 81 -17.5t53 -41.5t29 -49t9 -39q0 -9 -10 -14t-22 -5.5t-22 4.5t-10 16q0 14 -16 25t-34 11q-48 0 -94 -18.5t-88 -50.5t-80 -75t-69 -91q28 15 59.5 23.5t67.5 8.5q52 0 89 -14.5t61 -40t35 -59.5t11 -73q0 -58 -24.5 -120.5t-67 -114.5t-101 -85.5
t-127.5 -33.5q-66 0 -113 18t-77 49.5t-44 75t-14 93.5q0 62 20.5 132.5t56.5 139t85 131t106.5 110.5t121 76.5t128.5 28.5zM373 475q-45 0 -82.5 -18.5t-67 -47t-51 -62t-34.5 -63.5l2 4q-11 -50 -11 -85q0 -55 24 -90.5t78 -35.5q44 0 82 30t66 75t44 98t16 99
q0 42 -15.5 69t-50.5 27z" />
    <glyph glyph-name="seven" unicode="7" horiz-adv-x="597" 
d="M559 866q14 -3 28.5 -13t25.5 -24t16.5 -31t2.5 -34q-3 -14 -32.5 -43t-73.5 -69q-34 -31 -74.5 -69.5t-82 -81t-81.5 -88t-73 -92t-56.5 -92t-31.5 -88.5v1q-3 -17 -3 -28q0 -14 2 -26t4 -23q7 -35 -0.5 -52.5t-48.5 -9.5q-23 4 -40 18t-28 33.5t-17 43t-6 46.5
q0 19 3 34q10 47 35 97.5t60 101t77 100.5t85.5 96t85.5 86.5t78 73.5q-42 -10 -88.5 -17t-93.5 -7q-35 0 -67 4.5t-61 15.5q-17 6 -33 18.5t-27 29t-15.5 35t2.5 36.5t13.5 25t14 6t16 -7.5t19.5 -15.5q7 -6 16.5 -13.5t23.5 -12.5q29 -11 58.5 -15t61.5 -4q31 0 63 3.5
t62.5 8.5t58 11t49.5 12q14 3 23 5t17 4q10 12 30 11h2z" />
    <glyph glyph-name="eight" unicode="8" horiz-adv-x="747" 
d="M738 660q0 -33 -15.5 -66.5t-43 -62.5t-66 -53t-83.5 -39q35 -27 51.5 -63.5t16.5 -79.5q0 -51 -24.5 -103.5t-72 -95t-117 -70t-158.5 -27.5q-60 0 -104 16t-73 43.5t-43 63.5t-14 76t15 81.5t45 78.5t73.5 66.5t100.5 46.5q-27 22 -39 51t-12 63q0 48 26 99.5
t72.5 93.5t110 69.5t137.5 27.5q38 0 65.5 -10t45.5 -24.5t28 -31.5t13 -31q23 -14 44 -45.5t21 -73.5zM225 79q64 0 111 21t78.5 53t47 71.5t15.5 76.5q0 45 -23 77.5t-71 32.5q-51 0 -94 -24.5t-74 -62t-48 -81.5t-17 -82q0 -35 18 -58.5t57 -23.5zM374 492q60 0 109 19.5
t83.5 48t53.5 60t19 55.5q0 26 -8 43t-14 28q-7 13 -11 23t-2 15q-17 12 -48 12q-54 0 -98.5 -24.5t-76.5 -60.5t-49.5 -78t-17.5 -77q0 -28 14.5 -46t45.5 -18z" />
    <glyph glyph-name="nine" unicode="9" horiz-adv-x="668" 
d="M433 853q58 0 100 -17.5t68 -48t38.5 -72.5t12.5 -91q0 -62 -19 -132.5t-53 -139.5t-80 -133t-100.5 -112.5t-115 -77.5t-122.5 -29q-48 0 -81 17.5t-53 41.5t-29 48.5t-9 39.5q0 9 10 14t22 5t22 -4.5t10 -15.5q0 -14 16.5 -25t33.5 -11q49 0 96 19t90 51t81.5 75.5
t70.5 93.5q-29 -17 -62.5 -27t-71.5 -10q-52 0 -89 14.5t-61 40t-35 59.5t-11 73q0 58 24.5 120.5t67.5 114.5t101.5 85.5t127.5 33.5zM553 636q2 31 -2 57t-16 45t-32 30t-48 11q-44 0 -79.5 -30.5t-60.5 -76t-39 -98.5t-14 -99q0 -42 12.5 -69t38.5 -27q41 0 74.5 15.5
t60 40t45.5 54t32 58t19 52.5t6 36z" />
    <glyph glyph-name="colon" unicode=":" horiz-adv-x="202" 
d="M89 76q-8 0 -20.5 3.5t-24.5 11t-20.5 19t-8.5 27.5q0 14 6 30.5t15.5 30.5t20 23.5t19.5 9.5q13 0 26 -6t23 -15t16 -20t6 -22q0 -9 -6.5 -24.5t-15.5 -30.5t-19 -26t-17 -11zM160 293q-8 0 -20.5 3.5t-24.5 11t-20.5 19t-8.5 28.5q0 14 6 30t15.5 30t20 23.5t19.5 9.5
q13 0 26 -6t23 -15t16 -20t6 -21q0 -9 -6.5 -25t-15.5 -31t-19 -26t-17 -11z" />
    <glyph glyph-name="semicolon" unicode=";" horiz-adv-x="168" 
d="M70 64q0 -29 -10.5 -53.5t-26 -45t-33.5 -36t-32 -26.5q-5 -5 -10 -9t-7 -2q1 -9 12 -9q20 0 48 14t53.5 36.5t43.5 51.5t18 58q0 5 -5 11t-12 11t-16 8t-16 3t-7 -12zM183 160q0 -11 -20 -10.5t-44 8.5t-44 22t-20 29q0 18 8 39t19.5 39.5t25 30.5t24.5 12q16 0 32 -7
t29 -18.5t20.5 -25t7.5 -26.5q0 -14 -7.5 -29l-15.5 -31q-5 -10 -10 -19t-5 -14z" />
    <glyph glyph-name="less" unicode="&#x3c;" horiz-adv-x="470" 
d="M305 568q0 10 17.5 6t38.5 -16t38.5 -28t17.5 -31q0 -7 -12.5 -22t-33 -34.5t-47 -42t-53.5 -44.5q-64 -53 -146 -115q19 -9 47.5 -25t55.5 -33t46 -33.5t19 -27.5q0 -17 -8 -26t-19 -10.5t-23.5 3.5t-22.5 14q-8 8 -29.5 20.5t-44.5 25.5q-27 15 -56 32.5t-52.5 35.5
t-39 36.5t-15.5 37.5q0 11 12 25.5t32 31t46.5 35t55.5 38.5v-1q31 22 62.5 44t57 42t41 36.5t15.5 25.5z" />
    <glyph glyph-name="equal" unicode="=" horiz-adv-x="445" 
d="M114 504q25 0 62 1t76 3q34 2 67.5 3t51.5 1q19 0 35.5 -16t27 -34.5t12.5 -34.5t-8 -16h-18q-5 0 -10.5 0.5t-17.5 0.5q-17 0 -42 0.5t-54 0.5q-34 1 -69 1h-63q-26 0 -45.5 14t-30.5 31t-13 31t7 14h32zM63 332q25 0 62 1t76 3q34 2 67.5 3t51.5 1q19 0 35.5 -16
t27 -34.5t12.5 -34.5t-8 -16h-18q-5 0 -10.5 0.5t-18.5 0.5q-17 0 -41.5 0.5t-53.5 0.5q-35 1 -69.5 1h-63.5q-26 0 -45 14t-30 31t-13 31t7 14h32z" />
    <glyph glyph-name="greater" unicode="&#x3e;" horiz-adv-x="470" 
d="M-10 160q0 3 12 14.5t32 27.5t45.5 35.5t52.5 39.5q62 47 143 103q-13 15 -32.5 38t-39 47.5t-36.5 47t-26 34.5q-5 6 3 14.5t20 15.5t24 9t17 -5q-2 3 11.5 -12t33.5 -35q23 -25 50.5 -56t51.5 -60t40.5 -53.5t16.5 -36.5q0 -9 -10.5 -21t-27.5 -26t-39.5 -30t-47.5 -32
q-24 -17 -50.5 -35t-52 -37t-48.5 -37t-40 -35q-10 -10 -27.5 -1.5t-34 25t-29 34.5t-12.5 27z" />
    <glyph glyph-name="question" unicode="?" horiz-adv-x="547" 
d="M84 236q17 0 33 -7.5t28.5 -18.5t20 -25.5t7.5 -27.5t-7.5 -28.5t-18.5 -32.5q-11 -18 -20 -37t-9 -33q0 -19 -20 -19.5t-44 10t-44 27.5t-20 32q0 17 11 44.5t26 53t31 44t26 18.5zM395 863q30 0 61 -7.5t57 -25.5t42.5 -47.5t16.5 -72.5q0 -26 -15 -54.5t-39.5 -59.5
t-56 -62.5l-63.5 -63.5q-29 -29 -57 -56.5t-49.5 -53t-34.5 -48t-13 -40.5q0 -12 -10 -13.5t-24.5 3t-31.5 14.5t-31.5 22t-24.5 24.5t-10 22.5q0 16 10.5 35.5t28 41t40.5 45t49 49.5q32 32 65 66.5t60 68.5t44 67.5t17 63.5q-1 6 -8.5 11t-28.5 5q-27 0 -61 -20t-63 -48.5
t-49 -59.5t-20 -53q0 -12 4.5 -20.5t12.5 -8.5q7 0 9 -8t0 -18t-6 -18t-9 -8q-8 0 -21.5 3t-26 13t-21.5 29t-9 50q0 27 23.5 67t61 76.5t85.5 62.5t96 26z" />
    <glyph glyph-name="at" unicode="@" horiz-adv-x="1053" 
d="M677 426q-17 -14 -26 -9t-18 16q-3 3 -3 4q-6 -2 -23 -14.5t-39.5 -31t-48 -42t-48 -47t-39 -46t-21.5 -39.5q19 7 50 28.5t60.5 46.5t51 48t21.5 33q0 11 15.5 9t34 -10.5t34 -19t15.5 -16.5q0 -8 -6.5 -20.5t-16.5 -29.5q-8 -14 -17.5 -31t-17.5 -31.5t-12 -24t-2 -9.5
q26 0 59 30.5t62 77t48.5 101t19.5 101.5q0 34 -9 65t-27 54.5t-44 37.5t-60 14q-37 0 -85 -17.5t-99 -49t-99.5 -74t-87 -91.5t-62 -103.5t-23.5 -108.5q0 -35 12.5 -74t37.5 -71t62.5 -53t87.5 -21q53 0 107.5 11.5t98 29.5t71 39t27.5 40q0 6 10 8.5t22 1t22 -8t10 -18.5
q0 -20 -33.5 -50.5t-87 -59.5t-120.5 -49.5t-134 -20.5q-68 0 -130 26.5t-109.5 71t-76 102.5t-28.5 122q0 46 22 100.5t60 110t89 107.5t109 92t120 64.5t122 24.5q88 0 145.5 -18t91.5 -51t48 -80t14 -106q0 -33 -11.5 -74.5t-31 -84.5t-45.5 -83.5t-56 -72.5t-62.5 -51.5
t-63.5 -19.5q-20 0 -37.5 5.5t-29.5 13.5q-15 8 -26 19q-9 -6 -21.5 -12.5t-26.5 -12t-28 -9.5t-27 -4q-19 0 -45 12t-49.5 31.5t-40 44t-16.5 50.5q0 21 16.5 51.5t43.5 64t60.5 66t68 59t66 42.5t53.5 16q27 0 50 -16t37.5 -36.5t19.5 -40.5t-3 -28z" />
    <glyph glyph-name="A" unicode="A" 
d="M999 -99q11 20 23 20t21 -7q11 -9 21 -25q-15 -32 -41 -58q-23 -22 -61 -39.5t-96 -17.5q-57 0 -118.5 21t-113.5 67t-85.5 118.5t-33.5 175.5q0 34 9 75t26 89q-40 11 -76 27.5t-68 33.5q-75 -83 -150 -158.5t-143.5 -133.5t-126 -92t-97.5 -34q-68 0 -118 19t-84 51
t-50.5 75t-16.5 90q0 62 30 126t89.5 116.5t148.5 86t206 33.5q46 0 85 -7t74 -18t66.5 -26t63.5 -31q48 53 95 107t91 106.5t84.5 101t73.5 89.5l122 145q3 12 12.5 19.5t23.5 6.5t33 -11t36.5 -26t29.5 -35.5t12 -38.5q0 -23 -13 -60.5t-34 -85t-48 -101.5t-55 -109
q-29 -57 -55.5 -108.5t-52.5 -107.5q14 -6 19 -15t5 -18q0 -14 -13 -25t-42 -13q-23 -54 -36.5 -100t-13.5 -78q0 -81 25 -133.5t61 -83t75 -42t66 -11.5q53 0 79.5 17t34.5 32zM-107 58q30 0 77 29.5t105 79t123 115.5t133 139q-54 27 -109 46t-123 19q-69 0 -126.5 -31.5
t-99 -79.5t-65 -104t-23.5 -105q0 -47 25.5 -77.5t82.5 -30.5zM458 439q31 -17 58.5 -28t60.5 -19q29 70 65 146.5t71 150.5q16 31 23.5 45t12 22t9 18t13.5 34q-59 -74 -139 -169.5t-174 -199.5z" />
    <glyph glyph-name="B" unicode="B" horiz-adv-x="1137" 
d="M1209 840q0 -45 -29.5 -95.5t-79.5 -100t-116 -96.5t-139 -84q31 -10 60 -28.5t52 -44t37 -58.5t14 -71q0 -47 -34 -101t-91 -107t-133 -102t-159.5 -86.5t-170 -60t-165.5 -22.5q-76 0 -124.5 17t-77 43t-39.5 56.5t-11 56.5q0 41 15 60t32 19q19 0 34.5 -20t15.5 -59
q0 -12 15 -26t56 -14q93 0 181.5 21t166.5 55.5t144 79t113 91t73.5 91.5t26.5 81q0 13 -5.5 27t-20 24.5t-40 17.5t-64.5 7h-22q-47 -17 -92 -27.5t-88 -14.5q-24 -46 -45.5 -89t-38 -79.5t-26.5 -64.5t-10 -44q0 -5 1 -9.5t3 -9.5v1q3 -11 5 -21t0.5 -17.5t-9.5 -11.5
t-24 -4q-17 0 -37.5 9t-38 25t-29 38.5t-11.5 50.5q0 19 7.5 47t21 62t31.5 73t38 81q-20 17 -32 37.5t-12 36.5q0 17 9.5 27.5t30.5 10.5q9 0 16 -4t13 -9q4 -2 9 -5t11 -5q31 63 60 123.5t48 107.5q-29 -21 -61.5 -51.5t-76.5 -70.5q-56 -53 -120.5 -110.5t-129 -105.5
t-124 -79.5t-106.5 -31.5h-6q-26 0 -53.5 7t-50.5 25t-37.5 48.5t-14.5 76.5q0 58 38 127t108 139t168.5 135.5t220 116t262 81t295.5 30.5q84 0 143.5 -12.5t100 -32.5t64 -44.5t35.5 -49.5t15.5 -47t3.5 -37zM703 742q0 -33 -22.5 -90.5t-56.5 -126.5q57 18 114.5 43
t110.5 54.5t98.5 60.5t79 61.5t52.5 58t19 49.5q0 11 -2.5 32t-25 42t-73 36.5t-146.5 15.5q-141 0 -265.5 -35t-229.5 -90t-188.5 -123t-141.5 -134t-89 -122.5t-31 -89.5q0 -15 5.5 -21.5t12.5 -8.5h1q31 0 75 25t94 64.5t104.5 89t107.5 99.5q43 40 83.5 77t76.5 66
t65.5 47.5t51.5 21.5h-1q12 2 32.5 -6t40 -23t34 -34.5t14.5 -38.5z" />
    <glyph glyph-name="C" unicode="C" horiz-adv-x="912" 
d="M256 -105q86 0 163 30t143 78t121 107t98 116.5t73 108t47 80.5q8 21 22.5 31t26.5 10q19 0 28 -14.5t-5 -45.5q-20 -38 -54.5 -97t-81.5 -125t-107 -132t-130 -119.5t-149.5 -86.5t-167.5 -33q-91 0 -153 28.5t-100.5 73.5t-55 99t-16.5 105q0 74 23 153.5t63.5 160
t95.5 158.5t118 148.5t132 130t138 103t135 68t123 24.5q28 0 66 -12t72 -31t57.5 -42.5t23.5 -46.5q0 -51 -17.5 -108.5t-46 -114.5t-64.5 -108.5t-73 -91.5t-71.5 -63.5t-60.5 -23.5q-37 0 -56 17.5t-19 33.5q0 14 10 24t33 10q20 0 45.5 18.5t52.5 49.5t53.5 72t48.5 86
t38 91t21 88q-20 3 -32 3q-75 0 -159.5 -39.5t-168 -106.5t-159.5 -156t-134.5 -186.5t-93 -198.5t-34.5 -193q0 -34 15 -59t36 -41t45 -23.5t42 -7.5z" />
    <glyph glyph-name="D" unicode="D" horiz-adv-x="1208" 
d="M822 1027q108 0 185.5 -23.5t127 -65.5t73 -100t23.5 -127q0 -94 -42.5 -202.5t-119.5 -216t-183 -207t-232.5 -176t-270 -122t-293.5 -45.5q-45 0 -77 14.5t-52.5 35t-30 44t-9.5 41.5q0 20 9.5 33t28.5 13q23 0 30.5 -12.5t13.5 -31.5q3 -9 7 -19t12.5 -18t24 -13.5
t40.5 -5.5q69 0 136 14t133 40q-17 3 -36 12.5t-35 25.5t-26 37.5t-10 47.5q0 23 14 65t37 95t52 114t59 121q41 85 78 161.5t57 133.5q-27 -23 -64.5 -56.5t-77.5 -71.5q-58 -53 -122 -110.5t-127.5 -105t-122.5 -78.5t-107 -31h-6q-26 0 -53.5 7t-50.5 25t-37.5 48.5
t-14.5 76.5q0 57 35.5 126.5t101.5 140t160.5 136.5t212 117t256 82t293.5 31zM393 -69q3 -10 5.5 -19t0.5 -16q93 42 177.5 103.5t157.5 134.5t132.5 154t101.5 162t65 158.5t23 143.5q0 45 -12.5 82.5t-38.5 64t-66.5 41.5t-97.5 15q-141 0 -264.5 -36t-226.5 -93
t-184 -127.5t-137 -138.5t-85.5 -126t-29.5 -91q0 -14 4.5 -21t11.5 -9q1 0 1 0.5t1 0.5q31 0 75 25.5t94.5 65t105 89t106.5 97.5q44 41 86 79.5t79.5 68t68 47t51.5 17.5h-2q12 2 32.5 -6.5t39.5 -23t33 -33.5t14 -38q0 -24 -15 -66.5t-39 -96.5t-55 -115.5t-62 -124.5
q-29 -58 -57 -113.5t-49.5 -102.5t-34.5 -82t-13 -52q0 -10 3 -19v1z" />
    <glyph glyph-name="E" unicode="E" horiz-adv-x="961" 
d="M1124 1062q0 -23 -7.5 -48.5t-19.5 -51t-27.5 -51.5t-31.5 -50q-14 -22 -27 -44t-24 -43t-17.5 -40.5t-6.5 -35.5q0 -5 1 -9.5t3 -9.5v1q3 -11 5.5 -21t0.5 -17.5t-9.5 -12t-23.5 -4.5q-18 0 -38.5 9t-38 25t-29 39t-11.5 51q0 43 23 92t52 100q-12 7 -35 7
q-54 0 -105.5 -15.5t-96.5 -41t-83 -58t-65.5 -67t-44 -67.5t-17.5 -59q34 13 66.5 20t62.5 7q75 0 115 -19.5t59 -45t22 -50t3 -33.5q0 -21 -8.5 -34.5t-19 -21t-21 -10t-13.5 -2.5h-6q-7 -7 -17 -12t-25 -5q-52 0 -106 9.5t-102 31.5q-75 -35 -139.5 -90t-111.5 -115
t-74 -117t-27 -96q0 -43 12 -73t33 -49t50 -27.5t63 -8.5q51 0 108.5 15t115 40.5t110 58.5t92.5 69.5t64 73t24 68.5q0 16 6.5 26.5t16 17t20 9.5t18.5 3q23 0 33 -10t10 -27q0 -44 -31 -93.5t-84 -98t-122 -93t-145 -78.5t-153.5 -54t-147.5 -20q-58 0 -108 15t-86.5 48.5
t-57.5 86.5t-21 130q0 57 34.5 126.5t92 139t132 132.5t153.5 107q-9 22 -15 48t-6 55q0 42 22.5 87.5t60 90.5t87.5 85.5t104.5 71.5t110.5 49t106 18q59 0 92 -17.5t50 -41.5q17 32 28 62t11 56q0 15 20.5 15.5t45.5 -11.5t45.5 -36.5t20.5 -60.5zM673 495q4 0 6.5 0.5
t4.5 0.5h9q1 1 2 1.5t2 1.5q-5 6 -21 11.5t-39 5.5q-14 0 -30 -1t-30 -3q29 -10 54 -13.5t42 -3.5z" />
    <glyph glyph-name="F" unicode="F" horiz-adv-x="627" 
d="M975 1084q131 0 218 -24.5t139.5 -59t74 -72t21.5 -64.5q0 -26 -16.5 -46t-43.5 -20q-20 0 -29 5.5t-11.5 14.5t0 19.5t5.5 21.5q2 8 2 10q0 15 -14 30.5t-39.5 27.5t-61.5 19.5t-81 7.5q-185 0 -346 -25.5t-297.5 -63.5t-248 -81t-196.5 -79q-78 -34 -137.5 -56.5
t-97.5 -22.5q-23 0 -45 10.5t-39.5 25.5t-28.5 33t-11 33q0 22 16 35.5t51 13.5q14 0 62 16.5t117 41.5q63 23 140.5 50t164.5 55t180.5 54t187.5 46t186.5 32t177.5 12zM591 626q18 0 30.5 -7t21 -18t12.5 -25t4 -28q0 -25 -11.5 -43.5t-33.5 -18.5q-69 0 -135.5 -8
t-126.5 -20q-31 -56 -67 -124t-67 -131t-51.5 -113.5t-20.5 -72.5q0 -42 8 -70.5t16 -45.5q13 -32 11 -45t-38 -13q-18 0 -43 15t-47.5 42t-38.5 64.5t-16 82.5q0 18 13 57t33 88t45 102t48 100q-15 -5 -30 -11t-26 -10q-19 -8 -30 -11.5t-19 -3.5q-23 0 -30.5 11t-7.5 26
t16.5 32.5t45.5 36t68.5 37t84.5 35.5q15 29 29 55.5t25 46.5v-1q29 54 43.5 82.5t14.5 39.5q0 19 22 18t48.5 -14t48.5 -33t22 -39v-5q0 -9 -0.5 -15t-2.5 -13.5t-8 -19.5l-16 -32q89 20 156 20z" />
    <glyph glyph-name="G" unicode="G" horiz-adv-x="857" 
d="M649 481q23 0 42.5 -9t33.5 -24t22 -35t8 -42q0 -52 -15 -116.5t-41.5 -135t-64.5 -143t-84 -140.5t-99 -127.5t-110.5 -104t-117.5 -70t-121 -25.5q-44 0 -74.5 10t-49 26.5t-26.5 37.5t-8 42q0 9 1 18t4 18q10 28 25 39t29 11q22 0 34.5 -17.5t2.5 -37.5
q-5 -8 -6 -14.5t-1 -12.5q0 -30 61 -30q53 0 103.5 31.5t96.5 84.5t87.5 121t76.5 141.5t62.5 146t46.5 134.5q-32 -39 -71 -85t-81.5 -92t-86 -88.5t-84.5 -75.5t-78 -52.5t-65 -19.5q-92 0 -147 83.5t-55 259.5q0 94 26 193t73.5 192t113 175t144 143.5t167.5 97t183 35.5
q96 0 148.5 -43t52.5 -124q0 -56 -17.5 -106.5t-41 -89t-46.5 -61.5t-34 -23q-7 0 -10 9.5t-2.5 21.5t3 21.5t5.5 9.5q6 0 13.5 14.5t14 37.5t11.5 51.5t5 56.5q0 14 -3 31t-10.5 32t-19.5 25t-30 10q-87 0 -164.5 -44.5t-142 -116.5t-115.5 -164t-86.5 -186.5t-54.5 -183.5
t-19 -156q0 -53 11.5 -84t35.5 -31q19 0 56 28.5t83.5 74t98 102t100 111.5t89 103.5t65.5 78.5q0 2 -0.5 1.5t-0.5 1.5q-3 11 -4.5 20t3 15.5t15.5 10t34 3.5z" />
    <glyph glyph-name="H" unicode="H" horiz-adv-x="1035" 
d="M1015 567q22 0 33 -10t11 -23q0 -14 -12.5 -23.5t-37.5 -9.5h-27.5t-27.5 -1q-29 -51 -56.5 -105t-49.5 -107t-35.5 -103.5t-13.5 -94.5q0 -26 4.5 -47t9.5 -35q3 -12 6 -20.5t3 -15.5q0 -17 -10 -26t-36 -9q-29 0 -54 15t-44 39.5t-29.5 56.5t-10.5 65q0 39 9.5 83
t26 90.5t38.5 94.5t46 96q-66 -14 -128 -33.5t-116 -39.5q-42 -89 -70.5 -183t-28.5 -187q0 -32 8.5 -59t16.5 -48q5 -15 9 -26.5t4 -22.5q0 -20 -12.5 -29.5t-44.5 -9.5q-36 0 -64.5 19t-49 48.5t-32 65.5t-12.5 71v5q0 16 -2 40.5t-9 47.5t-21.5 40t-38.5 17q-7 0 -19 10
t-24 25t-20.5 32.5t-8.5 34.5q0 18 17.5 39.5t50.5 43.5t80 44t106 42q31 67 64.5 128t66 114t61.5 96t50 74l27 41q-57 -8 -137 -39t-167 -77t-172 -104t-152.5 -120.5t-109.5 -126.5t-42 -122q0 -15 6 -30.5t11 -26.5q7 -15 11.5 -26t2 -19t-14 -12t-35.5 -4
q-27 0 -51.5 9.5t-43 27.5t-30 44t-11.5 59t27 77.5t74.5 95.5t112 105.5t139.5 106t157 98t164 81t161 55t149 20.5q18 0 39 -9t38 -24t28.5 -35t11.5 -42q0 -19 -22.5 -57t-57.5 -92l-31 -46.5t-30 -46t-31.5 -51t-34.5 -62.5q51 10 107.5 18.5t116.5 13.5l34 65
q25 46 48.5 89.5t41 81.5t28 69t10.5 52q0 10 11.5 12t28 -2.5t36.5 -15t36.5 -25t28 -32t11.5 -35.5q0 -15 -8.5 -37.5t-23 -51.5t-34.5 -63.5t-43 -72.5l-15 -24q6 0 12 0.5t12 0.5zM222 244q11 -6 20 -13t16 -15q4 17 8.5 33.5t10.5 34.5q-17 -11 -30.5 -21.5
t-24.5 -18.5z" />
    <glyph glyph-name="I" unicode="I" horiz-adv-x="725" 
d="M787 908q0 -18 -22 -62t-56 -108q-27 -50 -59 -111t-64.5 -128t-63 -138.5t-54 -142.5t-37.5 -140.5t-14 -132.5q0 -31 11 -60.5t20 -49.5q7 -13 12 -26t5 -22q0 -17 -12 -27t-42 -10q-36 0 -65.5 19.5t-50 50.5t-31.5 67.5t-11 71.5q0 76 19 162.5t49.5 175.5t69 176
t78 165t75 143.5t61.5 110.5h-1l30 55q-43 -6 -99.5 -25t-119.5 -48t-129 -66.5t-128.5 -80t-118 -89.5t-97 -94.5t-65.5 -94.5t-24 -90q0 -18 5.5 -32.5t11.5 -25.5q7 -15 12 -26.5t2.5 -19t-14 -11.5t-36.5 -4q-27 0 -51.5 9.5t-43.5 27t-30 43.5t-11 59t27 78t74.5 96
t112 105.5t139.5 106t156.5 98t163.5 81t161.5 55t148.5 20.5q19 0 38 -9t34 -24t24.5 -35t9.5 -43z" />
    <glyph glyph-name="J" unicode="J" horiz-adv-x="743" 
d="M488 1042q30 0 64.5 -11.5t64.5 -42t50 -85t20 -139.5q0 -79 -16.5 -170.5t-47.5 -188t-75 -193.5t-99 -186t-119 -166t-135.5 -134t-149.5 -89.5t-159 -32.5q-45 0 -64.5 17.5t-19.5 50.5q0 36 30.5 90.5t80.5 117.5t114.5 130.5t132.5 128.5t134.5 110.5t120.5 78.5
q50 123 78 240t28 210q0 35 -1.5 70.5t-5.5 64t-11.5 46.5t-20.5 18q-28 0 -66.5 -31t-80.5 -79.5t-83 -109t-73.5 -119.5t-53 -110t-20.5 -82q0 -27 3.5 -38.5t7.5 -16.5q3 -6 5 -11.5t2 -13.5q0 -18 -12 -27t-32 -9q-18 0 -41 9t-43.5 27t-34.5 45.5t-14 64.5
q0 50 25 111.5t67 124.5t97 122t115.5 105.5t121.5 74.5t116 28zM-118 -326q58 0 122.5 44t128 118.5t123.5 172t110 204.5q-55 -42 -112.5 -92.5t-112 -104t-102.5 -106.5t-84 -98.5t-57 -81t-21 -54.5q0 -2 5 -2z" />
    <glyph glyph-name="K" unicode="K" horiz-adv-x="745" 
d="M1078 1003q34 0 56 -21.5t32.5 -47t9.5 -47t-13 -21.5q-11 0 -17.5 3t-11.5 8q-4 3 -10 6t-16 3q-61 0 -126 -20t-131 -53t-131.5 -75.5t-126.5 -88t-115 -90.5t-98 -82q-12 -11 -20.5 -18.5t-19.5 -16.5q36 -51 88.5 -124t115 -153t131.5 -159.5t137.5 -142.5t133 -102
t119.5 -39q24 0 30.5 6.5t9.5 13.5q5 11 10.5 18t22.5 7q7 0 9.5 -12t-1.5 -30t-14 -39.5t-29 -39.5t-47 -30t-67 -12q-46 0 -108.5 35t-132.5 92t-143.5 130.5t-141 149.5t-125 149.5t-95.5 131.5q-23 -64 -37 -129t-14 -127q0 -32 8.5 -59.5t16.5 -47.5q6 -15 9.5 -26.5
t3.5 -22.5q0 -20 -12.5 -29.5t-44.5 -9.5q-36 0 -65.5 19.5t-50 50t-31.5 67.5t-11 72q0 74 18.5 153.5t48.5 158t68 154t77 143t75.5 123t63.5 95.5l28 42q-43 -7 -99.5 -26t-119.5 -48t-129 -66.5t-128.5 -80.5t-117.5 -89.5t-96.5 -94t-65.5 -94.5t-24 -90q0 -17 6 -31.5
t11 -25.5q7 -15 12 -26.5t2.5 -19t-14 -11.5t-36.5 -4q-27 0 -51 9.5t-43 27t-30 43.5t-11 59t27 78t74.5 96t112 105.5t139.5 106t156.5 98t163.5 81t161.5 55t148.5 20.5q19 0 40 -9t38 -24t28.5 -35t11.5 -42q0 -19 -22.5 -57t-57.5 -92q-12 -18 -16.5 -23.5t-8.5 -11
t-10.5 -15.5t-21.5 -37q55 44 115.5 88t122.5 84t123 74t115.5 59t100 39t77.5 14z" />
    <glyph glyph-name="L" unicode="L" horiz-adv-x="615" 
d="M1640 -115q2 -18 -4 -43.5t-24 -54t-50 -58t-81 -56t-116.5 -48t-157.5 -34.5q-50 -6 -104 -6q-93 0 -188 18.5t-187 47.5t-179.5 64t-164.5 68v-1l-41 18q0 -19 -12.5 -28.5t-44.5 -9.5q-50 0 -85.5 32t-53.5 80q-37 9 -63 6q-39 -5 -57.5 9t-18.5 38q0 16 9.5 34.5
t25 35.5t36 29.5t43.5 16.5q7 1 5.5 1t4.5 0q9 74 34.5 155t60 162.5t75 161t81.5 151t78 131.5t65 103l34 54q-52 -4 -111 -20t-118 -42t-113.5 -61.5t-96.5 -79.5t-67 -95.5t-25 -108.5q0 -17 5.5 -31.5t11.5 -25.5q7 -15 11.5 -27t2.5 -19.5t-13.5 -11.5t-36.5 -4
q-27 0 -51.5 9.5t-43.5 27.5t-30.5 44t-11.5 59q0 44 28.5 95.5t79 102t119.5 97.5t150.5 83t172 57.5t183.5 21.5q19 0 40 -9t38 -24t28.5 -35t11.5 -43q0 -16 -26 -62t-64 -108q-29 -47 -62 -103.5t-67 -119.5t-66.5 -129.5t-59.5 -133.5t-45.5 -132.5t-24.5 -124.5
q39 -15 82.5 -35.5t90.5 -43.5q69 -34 149 -70t170.5 -65.5t190 -48.5t207.5 -19q40 0 83 2.5t88 9.5q44 7 78 21.5t56.5 32.5t33 37.5t8.5 35.5l1 -2q0 2 -5 10q-5 10 -8.5 20.5t-2 20t10 17t27.5 10.5q27 3 47 -14t24 -43z" />
    <glyph glyph-name="M" unicode="M" horiz-adv-x="1243" 
d="M1350 -100q11 20 23 20t21 -7q11 -9 21 -25q-15 -32 -41 -58q-23 -22 -61.5 -39.5t-96.5 -17.5q-56 0 -118 21t-113.5 67t-85 118.5t-33.5 175.5q0 71 17.5 142.5t44 139t58.5 130t61 116.5v-1q33 61 56 107t23 70q0 18 -23.5 3.5t-61 -50.5t-85 -87.5t-95.5 -107
t-92 -109.5t-75 -96l-18 -22l-2 -3q-25 -51 -47.5 -100.5t-40 -91t-27.5 -72.5t-10 -47q0 -19 2 -31t5 -19t7 -11t7 -6q8 -7 13 -14t5 -21q0 -6 -13 -8.5t-33 1t-43 13t-43 28t-33 46.5t-13 68q0 38 19.5 99.5t50.5 134t68.5 151.5t73.5 152q24 51 46.5 97.5t39.5 84
t27 64.5t10 38q0 6 1 7q-17 -1 -49 -26.5t-72.5 -66.5t-86.5 -93.5t-90.5 -106.5t-85 -104.5t-69.5 -88.5q-29 -59 -56 -116t-48 -107.5t-34 -91.5t-13 -67q0 -32 3.5 -44.5t7.5 -19.5t7.5 -14.5t3.5 -19.5q0 -20 -11.5 -30t-31.5 -10q-17 0 -38.5 11.5t-41 35t-33 59.5
t-13.5 86q0 28 14.5 73t38 102.5t54.5 124t64 137.5q37 78 73 156t64.5 148.5t46.5 128.5t18 95q0 39 -25 39q-48 0 -102 -29t-107.5 -76.5t-102.5 -109t-86.5 -125.5t-60 -125.5t-22.5 -110.5q0 -48 4.5 -80.5t11.5 -54t14 -34t13 -19.5q5 -8 9.5 -14.5t4.5 -17.5
q0 -12 -12.5 -20.5t-34.5 -8.5t-53.5 11.5t-60.5 42.5t-49.5 85t-20.5 139q0 71 27.5 144t75.5 140.5t113.5 127t141 103t158.5 69t166 25.5q37 0 62.5 -11.5t41.5 -29.5t24.5 -40t11.5 -43.5t3.5 -39.5t0.5 -27q0 -43 -20.5 -106t-52.5 -138q48 56 98 108t98.5 92t93.5 64
t83 24q50 0 77.5 -30t27.5 -98q0 -12 -7.5 -35t-21 -54.5t-31.5 -70.5t-39 -82q47 53 95 100.5t92.5 83t84 56.5t68.5 21q35 0 58.5 -11t38 -29.5t20.5 -42.5t6 -49q0 -38 -29 -95t-69 -126q-29 -51 -60 -108.5t-57 -119t-43 -123.5t-17 -122q0 -82 25 -134t60.5 -82
t74.5 -41.5t67 -11.5q54 0 80 16.5t35 32.5z" />
    <glyph glyph-name="N" unicode="N" horiz-adv-x="888" 
d="M971 -110q12 20 24 21.5t21 -6.5q11 -9 20 -26q-16 -32 -42 -58q-23 -22 -61 -39.5t-96 -17.5q-37 0 -79.5 9.5t-84 29.5t-79.5 50.5t-67 73.5t-46.5 98t-17.5 124q0 71 26.5 157t67 176.5t88.5 180t92 168.5q25 45 46.5 84.5t37.5 72t25.5 56t9.5 35.5q0 17 -26.5 -2
t-68.5 -61.5t-94.5 -101.5t-105.5 -121t-100.5 -121t-78.5 -101q-12 -16 -21.5 -28.5t-17.5 -21.5l-33 -61q-26 -49 -51 -96.5t-44 -90.5t-30.5 -80.5t-11.5 -65.5q0 -33 3.5 -45t8.5 -20q3 -7 6.5 -14.5t3.5 -19.5q0 -19 -11.5 -28.5t-30.5 -9.5q-17 0 -38.5 11t-41 34.5
t-33 60t-13.5 86.5q0 28 12.5 69t33.5 90.5t47.5 105.5t55.5 114q30 60 58.5 119t51 112t36 97t13.5 74q0 38 -31 38q-48 0 -102 -29t-107.5 -77t-102.5 -109t-86.5 -125t-60 -125.5t-22.5 -110.5q0 -48 4.5 -80.5t11.5 -54t14 -34.5t13 -20q5 -8 9 -15.5t4 -16.5
q0 -12 -13 -20.5t-33 -8.5q-22 0 -53.5 11.5t-60.5 42.5t-49.5 85.5t-20.5 139.5q0 71 27.5 143.5t75.5 140.5t113 127t141 103t158.5 69.5t165.5 25.5q38 0 63.5 -11.5t41.5 -29.5t24 -40.5t11.5 -44t4 -39.5t0.5 -27q0 -19 -3.5 -39.5t-9.5 -43.5q39 47 82 94.5t86 91.5
t85 82.5t79 67t68.5 45t53.5 16.5q34 0 58 -11t38 -29.5t20.5 -42t6.5 -48.5q0 -18 -12 -49.5t-31.5 -72t-46 -88t-54.5 -97.5q-43 -77 -90 -164t-86.5 -172.5t-65 -163.5t-25.5 -136q0 -82 25 -134t61 -82t75 -41.5t67 -11.5q53 0 79.5 16t34.5 31z" />
    <glyph glyph-name="O" unicode="O" horiz-adv-x="1015" 
d="M751 1037q64 0 110.5 -21t76.5 -59t44 -90.5t14 -115.5q0 -91 -28.5 -197.5t-79.5 -213.5t-122 -206.5t-155.5 -176t-179.5 -122.5t-195 -46q-61 0 -104.5 17t-71 47t-40 72t-12.5 92q0 75 27.5 164.5t73.5 180t107 175t128.5 150t137.5 105t134 39.5q25 0 45 -10.5
t33.5 -25.5t20.5 -32.5t7 -31.5q0 -19 -9.5 -30.5t-30.5 -11.5q-8 0 -11.5 0.5t-7.5 1.5q-4 0 -7.5 0.5t-6.5 0.5q-51 0 -107 -37.5t-110.5 -98t-104 -138t-87 -157.5t-59.5 -156.5t-22 -134.5q0 -48 18.5 -76.5t60.5 -28.5q50 0 102.5 28t105 76t102.5 113t95 139t83 154
t65.5 157.5t43 149.5t15.5 131q0 70 -26.5 112.5t-85.5 42.5q-83 0 -169.5 -33.5t-168 -86.5t-153 -119t-125.5 -131.5t-85 -123t-31 -94.5q0 -27 3 -40t7 -21q2 -8 4.5 -13.5t2.5 -16.5q0 -19 -13 -28.5t-34 -9.5q-20 0 -45.5 10t-48 30.5t-38 50.5t-15.5 71q0 59 35 128
t97 138.5t148 134t188.5 114t218 79.5t235.5 30z" />
    <glyph glyph-name="P" unicode="P" horiz-adv-x="892" 
d="M750 1122q97 0 166 -18t113 -49.5t64.5 -74.5t20.5 -94q0 -60 -28.5 -127.5t-79.5 -135.5t-121.5 -131.5t-154.5 -116t-179.5 -89t-195.5 -50.5q-24 -56 -37.5 -110.5t-13.5 -102.5q0 -29 7 -53.5t15 -44.5l-1 1q6 -14 10 -25t4 -20q0 -19 -12 -28.5t-42 -9.5
q-33 0 -60.5 18t-46.5 46t-29.5 62.5t-10.5 66.5q0 45 11 96t30 104q-29 10 -51 27t-37 36.5t-22.5 39.5t-7.5 36q0 22 10.5 36t30.5 14q24 0 32.5 -14.5t13.5 -34.5q2 -8 6 -17t10.5 -17.5t17.5 -15.5t28 -10q22 54 49 107.5t54.5 103t53 92t44.5 74.5q17 29 27 45t10 17v6
q0 23 4 37t33 14q17 0 36.5 -8t36 -22.5t27 -33t10.5 -39.5q0 -17 -21 -56.5t-53 -95.5q-16 -27 -30 -50.5t-28.5 -48t-28.5 -52t-30 -62.5q67 25 132.5 65.5t125 90.5t110.5 106t88 112.5t58 109.5t21 98q0 53 -39.5 86.5t-128.5 33.5q-90 0 -174.5 -23.5t-160.5 -62.5
t-143.5 -91t-124.5 -109t-101.5 -115.5t-76 -111.5t-48 -97t-16.5 -71q0 -15 4.5 -22.5t12 -10.5t16.5 -3t17 1q11 1 21 1.5t17.5 -2.5t12 -9.5t4.5 -19.5q0 -9 -8 -17.5t-21.5 -15t-31.5 -10.5t-39 -4q-29 0 -59 7.5t-54.5 27t-40.5 51.5t-16 82q0 63 39 140t107.5 155
t162 151t203.5 129.5t231.5 91t245.5 34.5z" />
    <glyph glyph-name="Q" unicode="Q" horiz-adv-x="1109" 
d="M1352 -610q35 0 50.5 -15.5t15.5 -37.5q0 -16 -9.5 -33.5t-26 -32.5t-39 -25t-49.5 -10q-38 0 -73.5 16t-72 44t-74 66t-77.5 81h1q-62 65 -134.5 135.5t-161.5 129t-197.5 96.5t-242.5 38q-46 0 -85 -9.5t-67.5 -24.5t-44.5 -32.5t-16 -33.5q0 -2 0.5 -5.5t2.5 -6.5
q3 -11 5 -21.5t-0.5 -19t-11.5 -14t-29 -5.5q-29 0 -45.5 20t-16.5 46q0 23 13.5 53.5t41 60.5t69.5 56.5t100 41.5q-26 30 -35 67.5t-9 85.5q0 75 27 164.5t73.5 180t107.5 175t128.5 150t137.5 105t134 39.5q25 0 44.5 -10.5t33 -25.5t20.5 -32.5t7 -31.5
q0 -19 -9.5 -30.5t-29.5 -11.5q-8 0 -12.5 0.5t-8.5 1.5q-10 2 -12 2q-51 0 -107.5 -37t-111 -98t-104 -138.5t-87 -157.5t-59.5 -156.5t-22 -134.5q0 -32 7.5 -55.5t24.5 -36.5q51 0 92 -7q64 17 131.5 73t130 136t118 176.5t97 195.5t65.5 192.5t24 167.5q0 69 -25.5 112
t-84.5 43q-83 0 -169.5 -33.5t-168 -86.5t-153 -119t-125.5 -131.5t-85 -123.5t-31 -94q0 -26 3 -39.5t7 -21.5q2 -7 4.5 -12.5t2.5 -16.5q0 -20 -13 -29.5t-35 -9.5q-20 0 -45 10t-48 30.5t-38.5 51t-15.5 71.5q0 59 35 128t97.5 138.5t148.5 134t188.5 114t217.5 79.5
t236 30q64 0 110.5 -21t76 -59t43.5 -90t14 -115q0 -77 -20 -165.5t-56.5 -179t-88 -179t-114.5 -165t-137 -136.5t-154 -94q73 -27 142.5 -67t134.5 -86.5t124.5 -95.5t111.5 -93q43 -36 84.5 -69.5t78.5 -59.5t69 -41.5t56 -15.5z" />
    <glyph glyph-name="R" unicode="R" horiz-adv-x="892" 
d="M1381 -86q4 6 20 4.5t32.5 -8.5t26 -19t-0.5 -27q-24 -36 -61 -77t-91.5 -75.5t-128 -57t-169.5 -22.5q-77 0 -153 23t-147 64.5t-135 98t-117.5 123t-94 140.5t-64.5 151q-20 -54 -33 -105.5t-13 -98.5q0 -29 7.5 -53.5t15.5 -43.5l-1 1q5 -14 9 -25t4 -21
q0 -18 -11.5 -27.5t-42.5 -9.5q-34 0 -61 18t-46 46t-29.5 62.5t-10.5 66.5q0 35 7 74.5t19.5 81t29.5 84.5t36 85q-24 12 -41.5 28t-29 34t-16.5 35.5t-5 31.5q0 19 10 38t26.5 34t38.5 24t46 9q18 0 39 -7t39 -20q20 36 40 68.5t35 57.5q8 13 14 24.5t11 19.5q5 10 11 17
v6q0 11 0.5 20t3.5 16t10.5 10.5t22.5 3.5q18 0 37 -8t35 -22t26.5 -33t10.5 -40q0 -17 -22 -58.5t-54 -98.5q-8 -14 -14.5 -25.5t-13.5 -23t-14.5 -25l-17.5 -31.5q65 17 127 49t117 72.5t101.5 87t80 94.5t52 94.5t18.5 86.5q0 51 -43 83.5t-140 32.5q-120 0 -229.5 -40.5
t-203.5 -104t-170 -141.5t-130 -154t-83 -140.5t-29 -100.5q0 -15 5 -22.5t12.5 -10.5t16.5 -3t17 1q11 1 21 1.5t17.5 -2.5t11.5 -9.5t4 -19.5q0 -9 -8 -17.5t-21.5 -15.5t-31.5 -11t-39 -4q-29 0 -58.5 8t-54.5 27t-40.5 51.5t-15.5 82.5q0 64 39 140.5t107.5 154.5
t162 151t203 129.5t230.5 91t245 34.5q103 0 175.5 -17.5t119 -48t68 -72t21.5 -89.5q0 -52 -25.5 -109.5t-71.5 -114.5t-110.5 -110.5t-142.5 -97t-167 -74t-185 -42.5q14 -84 56.5 -157.5t102.5 -135t132 -110t145 -82t142 -51.5t123 -18t103.5 10t89 26t68 37t40.5 42z
M214 443l2 4t3 4q-6 10 -14 19t-15 15.5t-12 8.5t-5 -2q0 -13 8.5 -28t30.5 -24z" />
    <glyph glyph-name="S" unicode="S" horiz-adv-x="914" 
d="M589 149q0 7 -16 13t-44.5 10.5t-67 8.5t-83.5 8q-62 6 -131 13.5t-136.5 21t-129 35.5t-108 56t-74 83t-27.5 117q0 57 36 126.5t99.5 140t150 137t187.5 118t212 82.5t223 31q59 0 110 -15.5t88.5 -47t59 -80t21.5 -115.5q0 -45 -25 -103.5t-66 -120t-92 -120.5
t-102.5 -105.5t-99 -75t-80.5 -28.5q-12 0 -30 13.5t-34 32.5t-27.5 39.5t-11.5 35.5q0 16 9.5 26.5t29.5 10.5q14 0 48 24t77 63t89.5 89t84.5 101.5t63 101t25 87.5q0 59 -33.5 87t-84.5 28q-108 0 -204 -36.5t-177 -93.5t-145 -127.5t-108.5 -139t-68.5 -126.5t-24 -91
q0 -44 33.5 -71t88 -44.5t123.5 -27t140 -17.5q72 -8 139.5 -18t120.5 -27.5t85 -46.5t32 -75t-27 -93.5t-72 -91.5t-103.5 -83t-120.5 -68t-123.5 -45.5t-112.5 -16.5q-62 0 -99.5 27.5t-58 63.5t-27 70t-6.5 48q0 22 12.5 33t27.5 11q16 0 28.5 -11t12.5 -33q0 -10 2 -21
t10 -20.5t25 -15.5t46 -6q26 0 69 14.5t92 37.5t99 52.5t90 58.5t65.5 56t25.5 45z" />
    <glyph glyph-name="T" unicode="T" horiz-adv-x="466" 
d="M1011 1113q136 0 226 -25t144 -60.5t76.5 -74.5t22.5 -67q0 -27 -17 -47t-45 -20q-20 0 -29 5.5t-11.5 14.5t-0.5 20t5 22q2 6 2 11q0 16 -12.5 33.5t-37 32.5t-60 24.5t-81.5 9.5q-187 0 -354 -27t-310.5 -67.5t-262 -87t-207.5 -85.5q-18 -8 -26 -12t-13.5 -6.5t-12 -5
t-20.5 -8.5q82 -16 146.5 -50t96.5 -82q22 41 41.5 77.5t33.5 65.5t22.5 48t8.5 26q0 19 20 16.5t44 -17.5t44 -37.5t20 -42.5q0 -23 -13 -59.5t-34.5 -81.5t-49 -96t-55.5 -103q-29 -53 -56 -104.5t-49 -96.5t-35 -80.5t-13 -56.5q0 -38 5 -65.5t9 -47.5l-1 1
q4 -18 6.5 -31t0 -21.5t-11.5 -12t-27 -3.5q-19 0 -43.5 14.5t-46 40.5t-36 63.5t-14.5 83.5q0 27 14.5 71t38.5 99t54.5 115.5t62.5 120.5q2 8 4 15t2 13q0 25 -17 47.5t-45.5 41t-66 33t-78 24.5t-81 15t-76.5 5q-24 0 -47 10.5t-41 26.5t-29 34.5t-11 33.5q0 21 16 35.5
t53 14.5q14 0 63 16.5t124 43.5q64 23 142.5 51t167 57t184.5 55.5t194 47.5t195 33.5t188 12.5z" />
    <glyph glyph-name="U" unicode="U" horiz-adv-x="938" 
d="M657 15q0 -56 6 -91.5t15 -57t19.5 -32.5t18.5 -18h-1q11 -8 18 -16t7 -22q0 -18 -14.5 -27.5t-38.5 -9.5q-25 0 -58.5 14t-64 48.5t-52 92t-21.5 145.5q0 34 12 80t31.5 98t44 107t49.5 108q-39 -62 -81 -125.5t-85.5 -123t-87.5 -112.5t-86 -93.5t-81.5 -66
t-73.5 -30.5q-4 -2 -8.5 -1.5t-10.5 0.5q-18 2 -40.5 16t-42 41.5t-32.5 68t-13 96.5q0 33 14.5 80.5t38 104.5t53.5 122t62 132q33 70 65.5 139.5t58 132t41.5 115t16 88.5q0 23 -9 36.5t-32 13.5q-48 0 -100 -26t-102.5 -69.5t-96 -99.5t-79.5 -115.5t-54.5 -118
t-20.5 -106.5t4.5 -80.5t11.5 -54.5t14 -34.5t13 -20.5q5 -7 9.5 -13.5t4.5 -17.5q0 -12 -13 -20.5t-33 -8.5q-22 0 -53.5 11.5t-61 42.5t-50 85.5t-20.5 139.5q0 71 26 141t71.5 134t107.5 118t135 94t154 62.5t164 22.5q57 0 88.5 -23.5t46.5 -57t17.5 -69.5t1.5 -60v-11
q0 -41 -15 -92t-39 -108.5t-55 -120t-63 -126.5q-32 -62 -62 -122.5t-53.5 -116t-38 -103.5t-14.5 -84q0 -31 2 -45.5t6 -22.5q36 19 82 67.5t98 115t106.5 145t105.5 157.5q121 186 250 409q0 5 -2 13q-2 13 -2.5 22t4.5 15t17 9t35 3q21 0 41 -8.5t35 -23.5t24.5 -36.5
t9.5 -46.5q0 -39 -14 -89.5t-36.5 -106t-49.5 -112.5t-52 -108q-27 -53 -52.5 -106t-45.5 -102.5t-32 -93.5t-12 -80z" />
    <glyph glyph-name="V" unicode="V" horiz-adv-x="908" 
d="M824 1187q16 0 44.5 -13.5t56 -46.5t47.5 -88.5t20 -138.5q0 -72 -25 -154.5t-68.5 -168.5t-102 -171.5t-125.5 -164t-140 -146.5t-145 -118.5t-140 -79.5t-125 -30h-4q-17 0 -38.5 11.5t-41 35t-33 59.5t-13.5 86q0 28 12.5 69t33.5 90.5t48 105.5t56 114
q29 60 57.5 119t51 112t36.5 97t14 74q0 38 -31 38q-48 0 -102.5 -29t-107.5 -77t-102.5 -109t-86.5 -125t-59.5 -125.5t-22.5 -110.5q0 -48 4.5 -80.5t11 -54t14 -34.5t13.5 -20q5 -8 9 -15.5t4 -16.5q0 -12 -12.5 -20.5t-34.5 -8.5t-53.5 11.5t-60.5 42.5t-49.5 85
t-20.5 139q0 71 27.5 144t75.5 141t113.5 127t141 103t158.5 69.5t166 25.5q37 0 62.5 -11.5t41.5 -30t24.5 -40.5t12 -43.5t4 -39.5t0.5 -27q0 -38 -14.5 -86.5t-37.5 -101.5t-51.5 -108.5t-56.5 -107.5q-26 -47 -51 -95.5t-45.5 -93.5t-33 -84t-12.5 -67q0 -29 3 -41.5
t6 -20.5q30 5 74.5 34.5t97 77t110 111t112.5 136t105 151t87.5 157t59.5 153.5t22 140q0 88 -10 142t-18 80q-3 10 -5 18.5t-2 13.5q0 18 10 24.5t34 6.5z" />
    <glyph glyph-name="W" unicode="W" horiz-adv-x="1236" 
d="M1155 1199q14 0 44.5 -13.5t61.5 -46.5t54.5 -88.5t23.5 -138.5q0 -71 -22.5 -153t-62 -167t-92.5 -170t-113.5 -163.5t-125 -146.5t-128 -118.5t-122.5 -81t-107 -33.5q-17 -2 -39.5 8.5t-43 34t-35 60.5t-14.5 89q0 27 7.5 57t20.5 62t29.5 65.5t33.5 67.5
q-48 -69 -102 -142.5t-106.5 -136t-99 -107t-79.5 -54.5l3 1q-14 -8 -39 -1t-49.5 29.5t-42.5 61.5t-18 97q0 28 12.5 69.5t33.5 91t48 105t56 113.5q29 60 57.5 119t51 112t36.5 97t14 74q0 38 -31 38q-48 0 -102 -29t-107.5 -77t-102.5 -109t-86.5 -125t-60 -125.5
t-22.5 -110.5q0 -48 4.5 -80.5t11 -54t14 -34t13.5 -20.5q5 -8 9.5 -14t4.5 -17q0 -12 -12.5 -21t-34.5 -9t-53.5 11.5t-60.5 42.5t-49.5 85t-20.5 139q0 71 27.5 144t75.5 141t113.5 127.5t141 103.5t158.5 69.5t166 25.5q37 0 62.5 -11.5t41.5 -30t24 -40.5t11.5 -43.5
t4 -39.5t0.5 -27q0 -39 -14.5 -87t-37.5 -101.5t-51.5 -108.5t-56.5 -107q-26 -47 -51 -96t-45 -94t-32.5 -84t-12.5 -67q0 -17 1 -27.5t3 -17.5q23 19 56 57.5t71.5 87t80 104.5t81.5 111q93 129 197 282v4q-2 12 -2.5 21.5t3.5 15.5t14.5 9t31.5 3q18 0 35.5 -7.5t31 -21
t22 -32t8.5 -40.5q0 -40 -9 -79t-23.5 -76.5t-33 -73.5t-37.5 -72q-17 -32 -33 -64t-28.5 -63t-20 -61t-7.5 -60q0 -29 3 -41.5t7 -19.5q25 5 62 34.5t81 77.5t91.5 111t93 135.5t86.5 151t72 157t49.5 153.5t18.5 140q0 47 -2.5 83t-6.5 63t-8 45.5t-7 31.5q-5 19 -7 31
t1 19t12 9t27 2z" />
    <glyph glyph-name="X" unicode="X" horiz-adv-x="777" 
d="M1153 -237q19 -21 19 -44q0 -12 -5.5 -24t-14.5 -23q-16 -17 -45.5 -29t-71.5 -12q-33 0 -74 9.5t-89 32t-102.5 60t-115.5 93.5q-84 80 -145 187.5t-106 223.5q-70 -54 -141.5 -99.5t-137.5 -78.5t-123.5 -51.5t-99.5 -18.5q-14 0 -30.5 3.5t-32.5 11.5q-4 2 0 13
t12.5 22.5t19 19t20.5 3.5q19 -5 66.5 18t111 66t138 103t148.5 129q-18 56 -34 109.5t-30 102.5q-30 107 -55.5 185t-54.5 106t-29 53q0 26 24 40t58 14q24 0 50 -8.5t45 -25.5q27 -26 47 -61.5t35.5 -80.5t28 -97.5t26.5 -110.5l22 -88q25 29 50 60.5t47.5 63t41.5 62
t33 58.5q38 80 56 132t26 76v-1q6 19 10 30.5t9 16t12.5 3t21.5 -7.5h-1q6 -3 15 -13t17.5 -27.5t14 -42t5.5 -55.5q0 -38 -12.5 -87.5t-38.5 -106.5q-19 -40 -47 -82t-62 -84.5t-73 -83.5t-80 -79q22 -68 52 -139t71 -142.5t94 -141t122 -134.5q42 -38 83.5 -56.5
t73.5 -18.5q17 0 30 4.5t21 12.5h1q-1 -1 0.5 2.5t3.5 6.5q4 9 10 18.5t14 15t18.5 3.5t25.5 -15z" />
    <glyph glyph-name="Y" unicode="Y" horiz-adv-x="884" 
d="M962 729q0 -21 -11.5 -50t-32 -65.5t-48 -79.5t-59.5 -91q-55 -83 -116.5 -180.5t-113 -201.5t-85 -211t-33.5 -209q0 -45 7.5 -75t14.5 -47q7 -18 10.5 -30t0.5 -19t-14 -10t-34 -3q-26 0 -54.5 9.5t-52.5 33t-40 63.5t-16 101q0 49 8 98t24 101t40 108.5t56 119.5
l-11 -17q-31 -45 -60 -84.5t-58 -69.5t-58 -47.5t-59 -17.5h-11q-43 0 -74 23t-50.5 58.5t-28.5 79t-9 84.5q0 83 21.5 166.5t53.5 161t69 146.5t69 125q29 52 49.5 89.5t20.5 55.5v9q0 13 0.5 24t4 18.5t12.5 12t26 4.5q22 0 42 -10t34.5 -27.5t23 -41t8.5 -49.5
q0 -21 -20 -59t-49 -91q-29 -51 -62.5 -114t-62.5 -134t-48.5 -148t-19.5 -155q0 -34 5 -65t13 -54q20 8 57.5 46.5t85.5 96t103 129.5t109.5 147.5t104.5 149.5t88 135t61 105t23 59q0 12 0.5 22.5t5 18t14.5 12t29 4.5q18 0 35.5 -9t31 -28.5t22 -49.5t8.5 -73z" />
    <glyph glyph-name="Z" unicode="Z" horiz-adv-x="745" 
d="M931 -66q78 -39 128.5 -86.5t80 -95t41.5 -91.5t12 -77q0 -23 -3 -33q-3 -14 -9.5 -25t-15 -18t-19 -9t-21.5 3q-23 13 -22 32.5t9 36.5l5 13l-1 -1q4 18 0 41t-16.5 47t-33.5 46t-51 37q-71 35 -138 58.5t-130 37t-121.5 19t-112.5 5.5q-84 0 -155 -9t-130 -19
q-38 -7 -70 -11t-59 -4q-35 0 -56 10q-5 2 -11 7t-11 10q-27 24 -40 61.5t-13 78.5q0 65 25 121q28 60 72 116.5t98.5 109.5t116.5 102t126 93.5t127 84.5t120 75q24 15 42 26t33 20t29 18t30 20q-73 13 -144.5 17.5t-135.5 4.5q-67 0 -121.5 -3.5t-90.5 -5.5
q-23 -1 -39.5 -1.5t-20.5 0.5q-23 5 -27.5 18t0.5 30q7 21 47 39t100 31t133 20.5t145 7.5q63 0 122 -5.5t104 -18.5l-1 1q4 -1 3.5 -0.5t1.5 -0.5q14 7 34 -3q12 -7 23.5 -20t20.5 -29t14 -34t5 -36q0 -11 -2 -21.5t-6 -21.5q-9 -18 -52.5 -47t-109.5 -74
q-51 -34 -113 -75.5t-127.5 -89.5t-130.5 -101t-122.5 -109.5t-104.5 -116.5t-75 -121q-2 -5 -2 -4.5v1v0.5l-1 -4l41 3q54 4 121 7.5t142 3.5q64 0 131.5 -4t133.5 -14t129 -28t119 -46z" />
    <glyph glyph-name="bracketleft" unicode="[" horiz-adv-x="517" 
d="M106 23q15 0 35 -1.5t37.5 -5t29.5 -9t12 -13.5q0 -5 -5.5 -18t-14.5 -26t-21.5 -23t-27.5 -10q-12 0 -41.5 1t-59.5 4t-53.5 9.5t-23.5 18.5q0 5 -4 8t-9 6q-8 7 -14.5 11.5t-6.5 18.5q0 7 21 54t54 118t74.5 157t82.5 172q33 69 64 133t54.5 113t37.5 78.5t14 30.5
q0 7 8.5 12.5t22.5 9.5t32.5 5.5t39.5 1.5q27 0 55 -2.5t51.5 -6.5t38 -9t14.5 -11q0 -4 -5 -16.5t-12.5 -25.5t-17.5 -23.5t-19 -10.5q-7 0 -24.5 -0.5t-37.5 -0.5q-23 -1 -49 -1z" />
    <glyph glyph-name="backslash" unicode="\" horiz-adv-x="420" 
d="M355 -32q0 31 -21 87.5t-53.5 127t-73 148t-79.5 150.5q-29 54 -54.5 104t-45 90.5t-31 70.5t-11.5 44q0 24 21.5 45t47 34.5t47 16t21.5 -10.5q0 -30 18.5 -82.5t47.5 -118t65 -138.5t71 -144q29 -58 55.5 -111.5t46.5 -98t32 -77.5t12 -51q0 -24 -18 -45t-40 -34.5
t-40 -16.5t-18 10z" />
    <glyph glyph-name="bracketright" unicode="]" horiz-adv-x="505" 
d="M338 772q-16 0 -35.5 1.5t-37 5t-29.5 8.5t-12 13q0 5 5.5 17.5t15 26t22 23.5t26.5 10q12 0 41.5 -1t60 -4t54 -9.5t23.5 -18.5q0 -5 4 -8.5t8 -5.5q9 -7 15 -12.5t6 -17.5q0 -5 -10 -29t-27 -61.5t-40.5 -86t-50 -103.5t-55 -113.5t-56.5 -115.5q-33 -66 -62.5 -127
t-52 -107.5t-36 -74.5t-13.5 -29q0 -17 -30.5 -23.5t-72.5 -6.5q-27 0 -55 2.5t-51 7t-37.5 10t-14.5 10.5q0 4 5 16t12.5 25t17 23.5t19.5 10.5h24.5t37.5 1q22 0 49 1z" />
    <glyph glyph-name="asciicircum" unicode="^" horiz-adv-x="681" 
d="M167 691q1 0 10.5 8t22 20.5t27.5 27t28 27.5q10 10 21 20.5t21.5 19.5t18.5 14.5t13 5.5q6 0 20.5 -2.5t28.5 -8.5t25 -16.5t11 -26.5q0 -11 6 -24t15 -26.5t18.5 -26t17.5 -21.5q7 -9 12 -13.5t5 -15.5q0 -14 -11.5 -22t-21.5 -8q-14 0 -32 15t-35 33q-19 21 -40 49
q-12 -12 -29.5 -28.5t-37 -32t-39.5 -26t-37 -10.5q-11 0 -20 10.5t-14.5 23.5t-6.5 23.5t3 10.5z" />
    <glyph glyph-name="underscore" unicode="_" horiz-adv-x="538" 
d="M-25 24q12 0 36.5 0.5t55.5 1t67.5 1t72.5 0.5q32 1 64 1.5t59 1t47.5 1t29.5 0.5q19 0 35.5 -15.5t27 -34.5t12.5 -34.5t-8 -15.5h-18q-5 0 -10.5 0.5t-17.5 0.5h-26t-39.5 0.5t-50 0.5h-56.5q-35 0 -70 0.5t-66.5 0.5h-56.5h-39q-26 0 -45.5 14t-30.5 31t-13 31t7 14
h33z" />
    <glyph glyph-name="grave" unicode="`" horiz-adv-x="833" 
d="M256 827q0 10 20 21.5t43.5 19t43.5 9t20 -7.5q0 -5 9 -19t23 -32.5t32 -38t37 -36t36.5 -27t31.5 -10.5q6 0 6.5 -11t-3.5 -24t-13 -24t-23 -11q-27 0 -57 11t-59 28t-56 38.5t-47 43t-32 40t-12 30.5z" />
    <glyph glyph-name="a" unicode="a" horiz-adv-x="636" 
d="M-48 197q0 43 14.5 89.5t40 91.5t60.5 85.5t75.5 71t84.5 48.5t88 18q38 0 64.5 -10.5t43.5 -27t26 -36.5t12.5 -38.5t2.5 -33.5t-4 -21h1q-3 -8 -12.5 -7.5t-19 4t-17 9t-6.5 8.5q1 2 0.5 11t-6 18.5t-18 17t-35.5 7.5q-24 0 -51.5 -21t-54.5 -54.5t-52 -76t-43.5 -86
t-30 -84t-11.5 -69.5q0 -36 21 -36q25 0 51 22t50.5 56t45.5 75t37 78t25 65t9 37t10 11t25 -2t33 -11.5t33 -17t25 -20t10 -18.5q0 -11 -10.5 -36t-24.5 -57q-10 -22 -20.5 -46t-19 -47t-14 -43t-5.5 -33q0 -5 -1 -5q14 0 35.5 23.5t46.5 60t50.5 80.5t48 85.5t39.5 75
t25 49.5q4 8 15.5 8t22.5 -4.5t18.5 -12.5t4.5 -16q-9 -20 -29.5 -60t-47.5 -88t-58.5 -98.5t-64 -91.5t-63.5 -67.5t-57 -26.5q-29 0 -50.5 14.5t-36.5 31.5q-18 20 -30 47q-12 -14 -28 -30t-34.5 -30t-39 -23.5t-40.5 -9.5q-39 0 -68.5 17.5t-49.5 46t-30.5 63.5t-10.5 70
z" />
    <glyph glyph-name="b" unicode="b" horiz-adv-x="694" 
d="M690 454q4 8 15 8t22.5 -4.5t19 -12.5t4.5 -16q-10 -20 -35.5 -60t-65.5 -87.5t-93.5 -97.5t-119 -91t-142 -67t-162.5 -26q-99 0 -143 50t-44 142q0 21 13.5 61.5t35 92.5t49 112t55.5 120q25 53 48.5 103t41.5 92t29 73t11 45q0 22 11 30.5t28 8.5q14 0 32 -8.5
t33.5 -22t26.5 -30.5t11 -35q0 -15 -9.5 -45t-23.5 -66.5t-30.5 -75.5t-31 -72t-25 -55.5t-12.5 -25.5q22 19 46.5 38t50.5 34t51.5 24.5t49.5 9.5q39 0 61.5 -17t34 -41.5t14.5 -52t3 -49.5q0 -69 -28.5 -135t-83.5 -129q52 37 95.5 79.5t76 81.5t53 70.5t27.5 46.5z
M140 83q24 0 52 20.5t56 53.5t54 75.5t45.5 87t31.5 87.5t12 77q0 16 -8 16q-19 0 -48 -17.5t-61.5 -46t-65 -64.5t-59 -73t-43 -72t-16.5 -61q0 -14 2.5 -28.5t8.5 -26.5t15.5 -20t23.5 -8z" />
    <glyph glyph-name="c" unicode="c" horiz-adv-x="470" 
d="M77 0q-49 0 -85 21t-60 53.5t-35.5 70.5t-11.5 73q0 70 34 138.5t89.5 123t125.5 88t142 33.5q49 0 66.5 -27t17.5 -64q0 -32 -8.5 -61.5t-12.5 -43.5q0 -1 -0.5 -1t-0.5 -1v-1q-3 -8 -14 -10t-23 0.5t-20 8.5t-5 14v-1q5 16 9 34q4 15 7 32.5t3 32.5q0 10 -1 16.5
t-5 6.5q-23 0 -49.5 -20t-52 -53t-49 -75.5t-42 -86t-29 -85t-10.5 -73.5q0 -23 8 -37.5t26 -14.5q46 0 89 22.5t82 58t73 78t60 83t44 73.5t26 49q10 18 24 23.5t25 1.5t16 -17.5t-4 -32.5q-10 -20 -31.5 -60t-53 -87.5t-71.5 -97.5t-87 -91.5t-99 -67.5t-107 -26z" />
    <glyph glyph-name="d" unicode="d" horiz-adv-x="683" 
d="M676 454q10 18 23.5 23.5t25 1t16 -18t-3.5 -32.5q-10 -20 -32.5 -59.5t-53 -87.5t-67 -97.5t-74 -90.5t-74 -67t-66.5 -26q-28 0 -49.5 14t-36.5 31q-18 19 -30 45q-11 -14 -26.5 -29.5t-33.5 -29t-39 -22.5t-43 -9q-39 0 -68.5 17.5t-50 45.5t-30.5 63t-10 70
q0 43 14.5 89.5t40 91.5t60 85t75 70.5t84.5 48.5t88 18q41 0 66 -12t39 -30q28 64 52 122t42 103t28 74t10 34q0 9 10 11t25 -1.5t33 -11.5t33 -17.5t25 -19.5t10 -19q0 -21 -12.5 -58.5t-33 -87t-47 -106.5t-54.5 -117q-33 -70 -64.5 -138t-55 -122t-34.5 -87t-3 -33
q19 0 46 23t57 59t60.5 79.5t56.5 85t45 74.5t27 49v1zM126 75q18 0 43.5 28t55.5 75t63 109t66 130q-11 5 -16.5 13.5t-1.5 16.5q1 4 7 19.5t6 27.5q0 6 -2 6q-24 0 -51.5 -21t-54.5 -54.5t-51.5 -75.5t-43.5 -85.5t-30 -83.5t-11 -69q0 -36 21 -36z" />
    <glyph glyph-name="e" unicode="e" horiz-adv-x="552" 
d="M544 453q4 8 15.5 8t22.5 -4.5t18.5 -12.5t4.5 -16q-10 -20 -30.5 -59.5t-51 -87t-69.5 -97.5t-86 -91t-101 -67t-113 -26q-50 0 -86 21t-60 53t-35.5 70t-11.5 73q0 70 34 138.5t89.5 122.5t125 87.5t141.5 33.5q47 0 67.5 -21t20.5 -56q0 -26 -13.5 -59.5t-36.5 -69.5
t-53 -71t-63.5 -64t-68.5 -49.5t-67 -27.5q-4 -19 -4 -38q0 -23 8 -37.5t27 -14.5q44 0 87 22.5t82 57.5t73.5 77.5t61.5 83t45.5 73t26.5 48.5zM364 528q-24 0 -52.5 -23.5t-56 -61t-52 -84.5t-41.5 -93q36 18 73 52t67 72t48.5 74t18.5 58q0 6 -5 6z" />
    <glyph glyph-name="f" unicode="f" horiz-adv-x="339" 
d="M585 752q0 -9 -20 -26.5t-62 -35.5t-107.5 -32t-155.5 -15l-26 -66q-36 -92 -75.5 -190.5t-81.5 -193t-86 -179.5t-88.5 -148.5t-89 -101t-88.5 -37.5q-14 0 -21.5 10t-8.5 21.5t4.5 21.5t17.5 10q16 0 38.5 35.5t49.5 96.5t58 142t64 171q40 109 77.5 211.5t84.5 204.5
q-67 7 -120 20.5t-89.5 28t-56 28.5t-19.5 22q0 30 20 31t68 -10q35 -8 93.5 -18.5t144.5 -15.5q31 63 63.5 116.5t67 92.5t70 61t72.5 22q27 0 41.5 -17t19 -37t1 -37t-13.5 -17q-21 0 -27 11t-8 24q-2 10 -3 10q-7 0 -18.5 -17t-26.5 -48t-33 -74t-39 -94q75 2 134 13.5
t97 19.5v-1q38 8 58 7.5t20 -20.5z" />
    <glyph glyph-name="g" unicode="g" horiz-adv-x="657" 
d="M652 454q10 18 23.5 23.5t25 1t16 -17.5t-3.5 -33q-18 -40 -51 -82.5t-76.5 -86t-95.5 -88t-107 -88.5q-25 -55 -55.5 -114t-64.5 -115.5t-70 -107t-72.5 -88.5t-72 -60.5t-67.5 -22.5q-46 0 -76 12t-47.5 29t-24.5 36.5t-7 34.5q0 31 28.5 67.5t77 78t112 87.5t133.5 96
l5 11q-19 -14 -38 -22t-39 -8q-39 0 -68.5 17.5t-49.5 46t-30.5 63.5t-10.5 70q0 43 14.5 90t40 92.5t60.5 86t75.5 71t85 48.5t89.5 18q38 0 64 -10.5t43 -27t26.5 -36t13 -38t2.5 -33.5t-3 -22q-12 -25 -26 -28q16 -17 27 -38t11 -39q0 -14 -9 -45.5t-23 -68.5
q72 60 128 119.5t87 119.5v1zM-105 -334q27 0 57 20.5t60.5 55t61.5 81t61 98.5q-53 -40 -99.5 -76t-81 -66.5t-54.5 -55t-20 -41.5q0 -16 15 -16zM402 445q1 2 0.5 11t-6 19t-18 18t-35.5 8q-24 0 -51.5 -21t-54.5 -55t-52 -76.5t-44 -86.5t-30.5 -84.5t-11.5 -69.5
q0 -17 4.5 -26.5t15.5 -9.5q29 0 58 27.5t55 67t47 84t33 79.5v-1q4 15 7.5 28.5t5.5 23.5v4q0 32 11.5 45t30.5 13q16 0 34 -12q-2 9 1 14z" />
    <glyph glyph-name="h" unicode="h" horiz-adv-x="586" 
d="M571 453q4 8 15.5 8t22.5 -4.5t18.5 -12.5t4.5 -16q-10 -20 -32.5 -59.5t-54 -87t-68 -97.5t-74 -91t-74 -67t-65.5 -26q-49 0 -81 36.5t-32 98.5q0 21 8.5 52t22.5 67.5t31.5 75.5t34.5 77q-33 -38 -69 -81.5t-68 -85.5t-58 -79.5t-38 -64.5q-3 -12 -3 -19l2 -8
q1 -3 1.5 -7t1.5 -7l-1 1q3 -12 5 -22t0 -17.5t-9.5 -12t-23.5 -4.5q-20 0 -40.5 9.5t-37 27t-27.5 42t-11 54.5q0 25 13 66t34.5 92t49 109t56.5 118q28 58 55 115t48 106t34 87.5t13 60.5q0 16 22.5 14t50 -15.5t50 -34t22.5 -41.5q0 -26 -14.5 -68.5t-37.5 -95
t-53 -112.5t-60 -121l-8 -15v-1q30 37 61 72.5t58 64t48 46.5t32 20q12 1 29 -9t33 -25.5t27.5 -35.5t11.5 -40q0 -15 -17 -51.5t-40 -85.5q-17 -35 -35.5 -73t-33.5 -74t-24.5 -66t-9.5 -48v-7q0 -2 1 -2q15 0 39.5 23t53.5 59t59.5 79.5t57 85t46 74.5t27.5 49z" />
    <glyph glyph-name="i" unicode="i" horiz-adv-x="352" 
d="M174 647q-18 0 -26.5 13.5t-8.5 34.5q0 19 7 43.5t18.5 46.5t26 37t29.5 15q19 0 36.5 -5.5t31 -16t21.5 -26t8 -35.5q0 -18 -10.5 -37t-29.5 -34.5t-45.5 -25.5t-57.5 -10zM341 457q4 7 15 7t22.5 -4.5t19 -12.5t4.5 -16q-10 -22 -31.5 -62.5t-50.5 -88t-64 -97.5
t-72.5 -90.5t-77 -66.5t-77.5 -26q-50 0 -81.5 36.5t-31.5 98.5q0 22 10 56t26 73.5t35.5 82t37.5 81.5q24 51 41 89t17 49q0 16 20 14.5t44 -14.5t44 -34t20 -43q0 -6 -5 -20t-13 -32.5t-18 -40t-20 -42.5q-16 -34 -34.5 -73t-34 -75t-25.5 -66.5t-10 -47.5q0 -9 3 -9
q22 0 49.5 23.5t57 59.5t58.5 80t53.5 85.5t42.5 75t26 49.5v1z" />
    <glyph glyph-name="j" unicode="j" horiz-adv-x="203" 
d="M144 832q47 0 69 -22.5t22 -57.5t-18.5 -55.5t-43 -32t-48.5 -15t-34 -3.5q-21 0 -31 15.5t-10 40.5q0 19 6.5 42t18.5 42.5t29.5 32.5t39.5 13zM13 565q0 16 20 14.5t44 -14.5t44 -33.5t20 -42.5q0 -14 -14.5 -60t-40 -111t-61 -143t-77.5 -158t-89 -154.5t-95.5 -132.5
t-98 -93t-95.5 -35q-32 0 -55 19.5t-36 43.5t-14 43.5t11 19.5q20 0 29.5 -10t17.5 -22q4 -10 8 -10q28 0 64 34.5t75.5 92t80 131.5t78.5 153t71.5 156.5t58.5 142t39.5 110t14.5 59.5z" />
    <glyph glyph-name="k" unicode="k" horiz-adv-x="526" 
d="M513 454q10 18 24 23t25 0.5t16 -18t-4 -32.5q-9 -20 -29 -59.5t-47 -87t-60 -97.5t-68.5 -91t-72 -67t-70.5 -26q-36 0 -64.5 24t-48 59.5t-30.5 76t-12 72.5l-9 6q-26 -57 -41.5 -98t-15.5 -63q0 -5 1 -10.5t3 -10.5l5.5 -22t0.5 -17.5t-9.5 -12t-24.5 -4.5
q-19 0 -39.5 9.5t-37 27t-27.5 42t-11 54.5q0 25 13 66t34.5 92t49 109t56.5 118q28 58 55 114.5t48 105.5t34 87.5t13 60.5q0 16 22.5 14t50 -15t50 -33.5t22.5 -41.5t-9.5 -53.5t-26 -73t-38 -86.5t-45.5 -94q22 18 44 35.5t40.5 31t33 21.5t22.5 8h9q15 -2 31 -11t29 -24
t21 -34.5t8 -41.5q0 -38 -22 -75.5t-58 -70.5t-81 -59t-91 -41v-6q1 -25 2.5 -54t6.5 -54.5t14.5 -42.5t25.5 -17q20 0 45.5 20.5t53 53.5t55 75t52 84.5t44.5 82.5t32 69v2zM332 515q-14 -11 -34 -26.5t-44 -34.5t-49.5 -40.5t-49.5 -43.5q33 13 63.5 33.5t54.5 42t40 40
t19 29.5z" />
    <glyph glyph-name="l" unicode="l" horiz-adv-x="346" 
d="M350 802q0 -22 -12 -58.5t-31.5 -82t-44.5 -98.5t-52 -107q-27 -56 -53.5 -110.5t-47.5 -102t-33.5 -85t-12.5 -58.5q0 -7 1 -7q18 0 43.5 22t53.5 56.5t57 76t54 81t43.5 71.5t26.5 48q4 8 15 8.5t22.5 -4t19 -12.5t4.5 -16q-10 -20 -32 -59.5t-52 -86.5t-66.5 -96.5
t-75 -89.5t-76.5 -66t-72 -26q-50 0 -81.5 36.5t-31.5 98.5q0 22 14 65t37 98t51 117.5t57 124.5q27 57 52 112t45 101.5t32 81.5t12 51t21 13t46 -17.5t46 -36.5t21 -43z" />
    <glyph glyph-name="m" unicode="m" horiz-adv-x="890" 
d="M883 452q4 8 15 8t22.5 -4.5t19 -12t3.5 -15.5q-9 -20 -30.5 -59.5t-51 -87t-64.5 -97.5t-71 -91t-71.5 -67t-64.5 -26q-49 0 -81.5 36.5t-32.5 98.5q0 21 9 52t23.5 68t32.5 76t36 77q-33 -38 -69.5 -81.5t-69 -86t-58.5 -81t-39 -66.5q-1 -5 -1.5 -9t-0.5 -7l2 -8
q1 -3 1.5 -7t1.5 -7l-1 1l5.5 -22t0 -17.5t-10 -12t-23.5 -4.5q-19 0 -39.5 9.5t-37 27t-27 41.5t-10.5 54q0 27 8 57.5t21 63t29 66t33 65.5q8 16 12 23.5t5.5 10t1 2l-0.5 -0.5q-34 -38 -71.5 -83t-72 -89.5t-62 -84.5t-40.5 -69q-1 -5 -1.5 -9.5t-0.5 -6.5q0 -5 1 -10.5
t3 -10.5q3 -12 5 -22t0 -17.5t-9.5 -12t-24.5 -4.5q-19 0 -39 9.5t-36.5 27t-27.5 41.5t-11 54q0 27 8 57.5t21 63t29.5 65.5t33.5 66q28 55 50 102.5t22 77.5q0 16 22 17t49 -11t49 -34.5t22 -52.5q0 -15 -7 -35.5t-18 -45.5q28 34 57 67t54.5 60t46 45t32.5 23
q13 0 32.5 -8t36.5 -23t29.5 -36t12.5 -47q0 -14 -6.5 -34t-17.5 -45q30 36 60.5 71t56.5 62t46 43.5t29 16.5h5t8 -2q12 -3 27 -14t28 -26t22 -32.5t9 -34.5q0 -14 -17 -50.5t-40 -84.5q-17 -35 -35.5 -73.5t-33.5 -74t-25 -66t-10 -48.5q0 -8 3 -8q14 0 37.5 23t51 59
t56 79.5t53.5 84.5t44 74t27 49z" />
    <glyph glyph-name="n" unicode="n" horiz-adv-x="585" 
d="M578 453q10 18 24 23.5t25 1t16 -17.5t-4 -32q-10 -20 -29 -59.5t-44.5 -87.5t-56.5 -97.5t-64.5 -90.5t-68 -67t-66.5 -26q-49 0 -81 36.5t-32 98.5q0 21 8.5 51.5t22.5 66.5t31.5 75t34.5 76q-33 -39 -69.5 -83t-69 -86.5t-57.5 -80t-37 -62.5q-1 -5 -1.5 -9t-0.5 -6
l2 -8q1 -3 1 -7t1 -7v1q3 -12 5 -22t0 -17.5t-10 -12t-24 -4.5q-19 0 -39 9.5t-36.5 27t-27.5 41.5t-11 54q0 27 8 57.5t21 63t29.5 65.5t33.5 66q28 55 50 102.5t22 77.5q0 16 22 17t49 -11t49 -34.5t22 -52.5q0 -14 -7.5 -35t-19.5 -47q31 37 61.5 72t57 62.5t46.5 44.5
t29 17h6t8 -2q12 -4 27 -14.5t28 -25t21.5 -32t8.5 -35.5q0 -14 -16.5 -50.5t-39.5 -84.5q-17 -35 -35.5 -73.5t-33.5 -74t-25 -66t-10 -48.5q0 -8 2 -8q15 0 36 21t45.5 55t49.5 75.5t47 82.5t39.5 76.5t26.5 57.5v2z" />
    <glyph glyph-name="o" unicode="o" horiz-adv-x="603" 
d="M597 452q4 9 15.5 9t22 -6t17.5 -15t3 -18q-7 -14 -20.5 -38t-33.5 -53t-46.5 -59.5t-58 -57t-68.5 -46t-79 -25.5q-45 -63 -102 -103t-118 -40q-33 0 -64.5 13t-56 38.5t-39.5 63.5t-15 89q0 48 18.5 98.5t43 92.5t50 69t39.5 27q10 0 22 -2t23 -5q18 24 38.5 45
t44 36.5t48.5 25t51 9.5q38 0 62.5 -8.5t39 -24t20 -37t5.5 -46.5q0 -131 -59 -251q36 20 68.5 51t58.5 63t44 61t26 44zM132 77q35 0 65.5 18.5t57.5 50.5q-38 10 -71.5 30.5t-57.5 47.5q-13 -31 -21.5 -60t-8.5 -51q0 -17 8 -26.5t28 -9.5zM248 266q0 -23 11 -39t40 -20
q20 34 36 71t27 72.5t17 68t6 56.5q0 40 -10 40t-31 -25.5t-42.5 -63.5t-37.5 -81t-16 -79z" />
    <glyph glyph-name="p" unicode="p" horiz-adv-x="655" 
d="M646 455q10 18 24 23.5t25 1t16 -18t-4 -32.5q-10 -20 -33.5 -60t-61 -87.5t-88 -97.5t-112.5 -91t-135.5 -67t-157.5 -26q-37 0 -64 10t-46 27q-28 -48 -49.5 -89t-38.5 -70v2q-32 -69 -51.5 -120.5t-19.5 -74.5l2 -8q1 -3 1.5 -7t1.5 -7l-1 1q3 -12 5 -22t0 -17.5
t-9.5 -12t-23.5 -4.5q-20 0 -40 9.5t-37 27t-27.5 42t-10.5 54.5q0 25 14 69.5t37.5 100.5t53 121t60.5 131v-1q30 65 59.5 128t52.5 117t37 95.5t14 63.5q0 16 22.5 14.5t50 -14.5t50 -34t22.5 -42q0 -22 -12 -62q25 36 49 67.5t46.5 55t41.5 36.5t33 13q34 0 61 -5
t45.5 -21.5t28 -47.5t9.5 -83q0 -25 -7 -59t-20.5 -73t-34 -79t-46.5 -77q57 36 103 81.5t80.5 88.5t55.5 78t29 51v1zM74 69q31 0 62 25.5t60.5 66.5t55 91t44 99t29.5 91t11 67v1q-11 -2 -29.5 -20t-42 -48.5t-50.5 -70.5t-56 -85.5t-58 -94t-56 -95.5q10 -27 30 -27z" />
    <glyph glyph-name="q" unicode="q" horiz-adv-x="576" 
d="M576 452q4 8 15.5 8t23 -4.5t19 -12t3.5 -15.5q-9 -19 -33.5 -55t-58.5 -82t-74 -97.5t-79 -100.5l-132 -168q-27 -53 -52 -104t-44 -94.5t-30.5 -76.5t-11.5 -51q0 -4 1 -8q1 -3 1.5 -7t1.5 -7l-1 1l5.5 -22t0 -17.5t-10 -12t-23.5 -4.5q-19 0 -39.5 9.5t-37 26.5
t-27.5 42t-11 55q0 25 13 66t35 91.5t49 108.5t56 117q7 16 7 15.5t-2 -4.5l-2.5 -5t7.5 16q-26 -23 -53.5 -42t-45.5 -19q-41 0 -64.5 23t-36.5 54.5t-16.5 65t-3.5 53.5q0 65 27 136t72.5 130.5t106 98t127.5 38.5q38 0 64 -10.5t43 -27t26 -36t12.5 -38t2.5 -33.5t-4 -21
q-3 -8 -12.5 -7.5t-19 4.5t-16.5 9.5t-6 8.5q1 2 0.5 10.5t-6 17.5t-18.5 16.5t-36 7.5q-27 0 -54 -23.5t-52.5 -61t-47 -84t-38 -92t-25.5 -86t-9 -65.5q0 -10 -3 -13q9 2 32.5 26.5t53 60.5t61 78t57.5 80l-3 -4q11 29 18 53t7 39q0 16 22.5 14t49.5 -15t49.5 -33.5
t22.5 -41.5q0 -22 -10.5 -56.5t-27.5 -76.5q29 37 59 75.5t55.5 73.5t44.5 62.5t26 42.5z" />
    <glyph glyph-name="r" unicode="r" horiz-adv-x="365" 
d="M360 452q4 8 15 8t22.5 -4.5t19 -12t3.5 -15.5q-9 -20 -28.5 -59.5t-46 -87t-57.5 -97.5t-63.5 -91t-65.5 -67t-62 -26t-52 11t-39.5 28t-25.5 39t-9 45q0 29 12 69.5t26 77.5q17 43 39 89q-8 5 -16.5 11t-17.5 14q-8 -16 -17.5 -34.5t-29.5 -52.5q-4 -7 -15 -6t-22 7
t-18 14t-2 15v-1q15 26 24.5 44t16 31.5t11.5 23.5t10 21q-5 12 -7.5 27.5t-2.5 32.5q0 33 8 65t21 57.5t29 41t33 15.5q15 0 36 -3.5t39.5 -11t31.5 -20t13 -30.5q0 -16 -9 -33.5t-20 -38.5q-14 -23 -25.5 -48.5t-11.5 -48.5q0 -17 4.5 -29.5t12 -21t16.5 -14.5t17 -11
q17 -9 28 -18.5t11 -28.5q0 -12 -10 -35.5t-24 -52.5q-9 -20 -19 -42.5t-18 -43.5t-13.5 -40t-5.5 -32q0 -11 5 -11q15 0 37 23t47 59t50.5 80t48.5 86t40.5 77.5t25.5 54.5v1z" />
    <glyph glyph-name="s" unicode="s" horiz-adv-x="394" 
d="M385 452q4 8 15 8t22 -4.5t18.5 -12t4.5 -15.5q-9 -18 -26 -51.5t-42 -75t-57.5 -86.5t-72.5 -85.5t-86 -72.5t-98 -48q-34 -8 -63 -8h-6q-48 0 -74 23t-36 51t-7.5 51t10.5 23q16 0 21.5 -9t10.5 -22q2 -6 5 -12t8 -11.5t13 -9t21 -3.5q16 0 34 11.5t33 31.5t25 47
t10 58q0 29 -12 54t-26 51l1 -1l-18 32q-5 -11 -11.5 -24.5t-20.5 -36.5q-4 -8 -15 -6.5t-21.5 7t-17.5 13.5t-3 15q12 22 21 38t15 28t10 21.5t8 18.5l-1 -1l8 17q-3 18 -3 32q0 44 16.5 80.5t40.5 62.5t50 40t45 14q10 0 26 -2t31 -8.5t25.5 -18.5t10.5 -32
q0 -17 -10 -30.5t-24 -27.5q-16 -15 -31.5 -36t-15.5 -51q0 -35 12.5 -63t26.5 -56v1q17 -29 29.5 -60.5t12.5 -72.5q0 -8 -0.5 -18t-0.5 -18q28 31 51.5 65.5t42 67t33 60.5t23.5 47l10 21z" />
    <glyph glyph-name="t" unicode="t" horiz-adv-x="427" 
d="M546 667q0 -8 -16.5 -23t-51 -29.5t-88.5 -25.5t-128 -11q-9 -20 -18.5 -40t-19.5 -40q-27 -57 -54 -115.5t-48.5 -110.5t-35 -95t-13.5 -70q0 -24 15 -24q28 0 60.5 23t65.5 59t65.5 79.5t59 84.5t45.5 74.5t27 49.5q4 7 15 7t22.5 -4.5t19 -12t4.5 -15.5
q-10 -20 -31.5 -59.5t-52.5 -87.5t-69 -97.5t-80 -90.5t-86.5 -67t-88.5 -26q-18 0 -41.5 10.5t-44.5 30.5t-35 49t-14 67q0 22 13 62.5t34.5 92.5t49 111.5t55.5 119.5l21 45q-44 7 -78.5 17.5t-58 21.5t-36 21.5t-12.5 16.5q0 14 4.5 20.5t13.5 8t23 -1.5t34 -7
q23 -5 59 -11.5t85 -11.5q36 78 59.5 138.5t23.5 85.5q0 16 20 14t44.5 -15t44.5 -34t20 -42q0 -23 -13.5 -62.5t-36.5 -90.5q59 2 105.5 10t75.5 16l-1 -1q32 8 50 6.5t18 -20.5z" />
    <glyph glyph-name="u" unicode="u" horiz-adv-x="605" 
d="M593 453q10 18 24 23.5t24.5 1t15.5 -17.5t-3 -32l-9 -20l-32.5 -67.5t-44.5 -86t-54 -91t-60 -82t-63.5 -59t-64.5 -22.5q-21 0 -41 13t-35.5 33.5t-25.5 44t-10 44.5q0 17 6 43q-26 -35 -52.5 -67t-51 -57t-46 -39.5t-36.5 -14.5q-23 0 -44 14.5t-36.5 35.5t-25 45
t-9.5 43q0 27 8 57t21.5 62.5t29.5 65t33 64.5q14 26 27 51.5t23 48.5t16 42.5t6 34.5q0 16 22 17t49 -11t49 -34t22 -52q0 -12 -7.5 -33t-19.5 -48t-28 -58t-33 -64q-20 -39 -40 -77t-35 -68t-23 -48.5t-5 -18.5q6 0 22.5 16.5t38.5 43t48 61t53 70.5q62 84 137 191
q19 42 33 73t14 40q0 16 20 14.5t44 -14.5t44 -34t20 -42q0 -14 -16.5 -50.5t-39.5 -84.5q-17 -35 -35 -73.5t-33 -74t-25 -66t-10 -48.5q0 -8 2 -8q17 0 37.5 20t43 51.5t45.5 70.5t43 78t36.5 73.5t27.5 56.5l9 19v1z" />
    <glyph glyph-name="v" unicode="v" horiz-adv-x="516" 
d="M501 455q10 18 23.5 23.5t25 1t16 -18t-3.5 -32.5q-33 -61 -67 -109q-15 -20 -31.5 -39.5t-34 -34.5t-35.5 -24.5t-35 -9.5q-12 0 -24 3.5t-23 8.5q-17 -32 -41.5 -71t-56 -73t-68 -57t-77.5 -23q-36 0 -67.5 16t-54.5 41t-36.5 53.5t-13.5 54.5q0 27 7.5 56.5t20 59
t28 59.5t30.5 59q26 49 46.5 92.5t20.5 72.5q0 16 22 17t49 -11t49 -34.5t22 -52.5q0 -20 -17.5 -58.5t-40.5 -86.5q-15 -31 -31 -64t-28.5 -64.5t-21 -59t-8.5 -47.5q0 -28 25 -28q33 0 62.5 21.5t54.5 52t44 64t31 57.5q-26 35 -26 73q0 24 10 49t23 51q14 29 26.5 59.5
t12.5 61.5q0 16 22 17t49 -11t49 -34.5t22 -52.5q0 -25 -16 -60t-33 -68q-8 -15 -15 -29.5t-12.5 -25.5t-9 -17.5t-2.5 -6.5q9 0 20 7.5t22.5 20t23 28.5t22.5 33q26 39 51 89v1z" />
    <glyph glyph-name="w" unicode="w" horiz-adv-x="757" 
d="M742 454q4 7 15.5 7.5t23 -4t19 -12.5t3.5 -16q-33 -61 -67 -109q-15 -20 -31.5 -39.5t-34 -34.5t-35.5 -24.5t-35 -9.5q-35 0 -65 24q-14 -32 -36 -72.5t-48.5 -77t-56 -61.5t-59.5 -25q-26 0 -49.5 9t-44 23t-36.5 32.5t-26 38.5q-29 -43 -61 -73t-66 -30
q-36 0 -67.5 16t-54.5 41t-36.5 53.5t-13.5 54.5q0 27 7.5 56.5t20 59t28 59.5t30.5 59q26 49 46.5 92.5t20.5 72.5q0 16 22 17t49 -11t49 -34.5t22 -52.5q0 -19 -16 -57.5t-39 -87.5v1q-15 -32 -30.5 -65.5t-28 -65.5t-20.5 -60.5t-8 -49.5q0 -14 5.5 -22t19.5 -8
q11 0 25.5 15t30.5 37.5t31 50t28 53.5q17 49 41 90v-1q17 32 31 64t14 64q0 16 22.5 17t49 -11t49 -35t22.5 -53q0 -19 -13 -49.5t-29 -64.5q-9 -20 -18.5 -40.5t-17 -40t-12.5 -37t-5 -30.5q0 -14 7.5 -21.5t26.5 -7.5q11 0 25 13t29 34t29.5 46.5t27 50.5t22.5 46.5
t15 34.5q-5 11 -8.5 25t-3.5 25q0 24 10 49t23 51q14 29 26.5 59.5t12.5 61.5q0 16 22 17t49 -11t49 -34.5t22 -52.5q0 -25 -16 -60t-33 -68q-8 -15 -15.5 -29.5t-13 -25.5t-8.5 -17.5t-2 -6.5q9 0 20 7.5t22.5 20t23 28.5t22.5 33q26 39 51 89z" />
    <glyph glyph-name="x" unicode="x" horiz-adv-x="590" 
d="M575 455q10 18 23.5 23.5t25 1.5t16 -17.5t-3.5 -32.5l1 2q-2 -4 -4 -7.5t-4 -8.5q-12 -26 -31.5 -67t-45.5 -87.5t-56.5 -93t-65 -84t-71 -61t-74.5 -23.5q-27 0 -49.5 13.5t-39 34.5t-27.5 47.5t-16 52.5q-41 -43 -77.5 -79.5t-63.5 -59.5q-5 -4 -15.5 0t-20 11.5
t-15 16t-0.5 13.5q43 39 89.5 87t91.5 97q-1 3 -1 10q-3 27 -6.5 58l-7 62t-6.5 59.5t-5.5 50.5t-4 35t-0.5 13q-3 0 -16 -21.5t-27 -47.5q-17 -31 -36 -69q-4 -8 -13.5 -5.5t-18.5 10t-15 18t-3 18.5q1 2 7 15.5t16.5 33t24 42t29 41t32.5 31t34 12.5q5 0 26.5 -3.5
t47 -16.5t47.5 -38t27 -68v2q2 -8 2.5 -17t2.5 -20v-1q1 -9 1.5 -12t0.5 -5.5v-7t2 -16.5q43 52 78 100t60 86q9 14 22 17.5t23.5 -1t15.5 -16t-3 -28.5q-10 -20 -28.5 -47.5t-42.5 -59.5t-52.5 -68t-59.5 -72q6 -39 11.5 -79t10.5 -72.5t8.5 -53t5.5 -20.5q17 0 38 20
t43.5 51.5t45.5 70.5t43.5 78t37 74t27.5 57l9 20v1z" />
    <glyph glyph-name="y" unicode="y" horiz-adv-x="631" 
d="M621 455q10 18 23.5 23.5t25 1.5t16 -17.5t-3.5 -32.5q-18 -41 -52.5 -85t-79.5 -89t-98.5 -90t-110.5 -90q-44 -90 -94.5 -178.5t-101.5 -159t-100.5 -114t-91.5 -43.5q-45 0 -75 11.5t-47.5 28.5t-24.5 36.5t-7 34.5q0 29 25.5 63t69.5 72.5t101.5 81.5t122.5 89
q12 23 19.5 35.5l12 20t7.5 13t7 13t9.5 20.5t15.5 36q-23 -28 -45.5 -52.5t-42.5 -43t-37.5 -29.5t-29.5 -11q-23 0 -43.5 14.5t-36.5 35.5t-25 45t-9 43q0 27 8 57.5t21.5 63t30 65.5t33.5 65q13 26 26 51.5t23 48.5t16 43t6 34q0 15 22 15t49 -11t49 -32.5t22 -51.5
q0 -13 -7.5 -34.5t-20 -48.5t-28.5 -58.5t-33 -64.5q-20 -39 -39.5 -76.5t-34.5 -67.5t-23.5 -48.5t-5.5 -18.5q7 0 26 19.5t44.5 50.5t55 70t58 78.5t53.5 74.5t41 59q20 53 32.5 85t12.5 36q0 31 11 44.5t31 13.5q14 0 31.5 -11.5t33 -28.5t26 -37.5t10.5 -38.5
q0 -11 -7.5 -37t-20.5 -62.5t-30.5 -81t-37.5 -90.5q75 61 130 119.5t87 121.5v1zM-139 -335q27 0 56.5 20.5t60.5 55t62 81t61 98.5q-53 -40 -99.5 -76t-81 -66.5t-54.5 -55t-20 -41.5q0 -16 15 -16z" />
    <glyph glyph-name="z" unicode="z" horiz-adv-x="459" 
d="M481 455q10 18 23.5 23.5t25 1.5t16 -17.5t-3.5 -32.5q-18 -40 -47.5 -82t-68.5 -85.5t-85 -87t-95 -86.5q3 -14 5 -31t2 -39q0 -23 -13 -64t-36.5 -90t-56 -99.5t-72 -91.5t-85 -67t-94.5 -26q-45 0 -75 11.5t-47.5 28.5t-24.5 36.5t-7 34.5q0 29 23.5 64t63.5 74.5
t93.5 84t112.5 92.5v-1l75 62v8v14q-10 -1 -29.5 -18.5t-36.5 -34.5q-6 -7 -12.5 -13t-11.5 -11q-7 -5 -13.5 -9t-9.5 -4h-5q-2 0 -4.5 -0.5t-5.5 1.5q-14 3 -28 11.5t-26 20t-19.5 25.5t-7.5 28q0 9 6 26t16.5 38t23.5 44.5t27 47.5q32 55 73 119q-12 7 -26.5 18.5
t-27.5 29.5t-22 43t-9 57q0 33 8 65t20.5 57.5t28.5 41t33 15.5q16 0 37 -3.5t39.5 -11t31.5 -20t13 -31.5q0 -15 -9 -33t-20 -38q-13 -23 -25 -48.5t-12 -49.5q0 -17 4.5 -29.5t12 -21t16.5 -14.5t17 -11q16 -10 28 -19t12 -29q0 -25 -20.5 -68.5t-49.5 -92.5q10 3 19 3
q16 0 32.5 -4.5t31.5 -16.5q85 74 158 151t113 153v1zM67 -63q-48 -41 -91.5 -77.5t-76.5 -68t-53 -56t-21 -40.5q38 1 73 24t66 57.5t57 77t46 83.5zM-175 -308v3h-2q2 0 2 -3v0z" />
    <glyph glyph-name="braceleft" unicode="{" horiz-adv-x="504" 
d="M556 985q13 0 25.5 -4.5t22.5 -11.5t16 -15.5t6 -15.5q0 -14 -11 -22t-37 -8q-19 0 -40.5 -20t-44 -52.5t-46.5 -74.5t-48 -86q-22 -39 -44 -77t-44 -70.5t-44 -57.5t-44 -38q9 -12 15.5 -31t6.5 -52q0 -16 -7 -37t-19 -45t-27 -49.5t-30 -51.5l-30 -52t-26.5 -50
t-19 -45t-7.5 -36q0 -7 3.5 -15t7.5 -15q7 -13 12 -23.5t3.5 -18t-10.5 -12t-30 -4.5q-19 0 -37.5 9t-33 27t-23.5 45.5t-9 64.5q0 26 22.5 69.5t52.5 94.5q16 29 32.5 59.5t30 59t21.5 53t8 41.5q-11 7 -20.5 19.5t-16.5 24.5t-9 20.5t4 8.5q25 0 49.5 19t49 50t49.5 71
t51 82q30 50 61 98.5t64 87t69 62.5t76 24z" />
    <glyph glyph-name="bar" unicode="|" horiz-adv-x="289" 
d="M181 -98q0 -13 -18 -10.5t-40 16t-40 35t-18 45.5q0 16 0.5 50.5t1 81.5t1.5 104.5t2 119.5q1 77 2.5 158t2.5 153.5t1.5 130.5t0.5 89q0 13 21.5 9t47 -19t47 -38t21.5 -47q0 -12 -1 -42t-2.5 -73t-4 -95.5t-4.5 -110.5q-4 -80 -7.5 -165t-6.5 -161t-5 -137t-2 -94z" />
    <glyph glyph-name="braceright" unicode="}" horiz-adv-x="583" 
d="M434 971q15 0 36.5 -7.5t40.5 -23t32.5 -40.5t13.5 -59q0 -22 -12 -55.5t-31.5 -73t-43.5 -83t-48 -85.5q-19 -33 -36 -63.5t-30 -56t-20.5 -44t-7.5 -27.5q0 -14 5.5 -23.5t10.5 -16.5q5 -5 9.5 -12t4.5 -15q0 -23 -15 -28.5t-34 -5.5q-15 0 -28.5 -14.5t-27 -38.5
t-26 -54.5t-25.5 -62.5q-17 -41 -34 -80.5t-37.5 -71t-45.5 -51t-57 -19.5q-19 0 -38 6t-34 14t-24.5 17.5t-9.5 16.5q0 23 11.5 24.5t31.5 -3.5q4 -1 8.5 -1.5t11.5 -0.5q6 0 15 12.5t20 33.5t23.5 48t24.5 55q16 37 34.5 76t38 72.5t40 58.5t42.5 36q-5 11 -9 28t-4 40
q0 14 9 37t24 51.5t34 62t39 69.5q22 39 44.5 78t40.5 74.5t29 64.5t11 47q0 10 -7 21.5t-13 20.5h1q-9 12 -15 21.5t-6 16.5t7.5 10.5t25.5 3.5z" />
    <glyph glyph-name="asciitilde" unicode="~" horiz-adv-x="677" 
d="M222 669q-20 0 -31.5 16t-11.5 39q0 14 5 28.5t17 26.5t31 19.5t47 7.5q22 0 48 -5l52 -10q23 -5 41.5 -8.5t29.5 -3.5q13 0 17 2.5t6 5.5q3 5 5.5 9.5t16.5 4.5t25 -22.5t11 -52.5q0 -31 -21.5 -46.5t-56.5 -15.5q-16 0 -34.5 3.5t-40.5 8.5q-29 7 -61.5 13t-61.5 6
q-8 0 -12 -4q-2 -2 -2 -4z" />
    <glyph glyph-name="exclamdown" unicode="&#xa1;" horiz-adv-x="509" 
d="M89 29q0 -13 -21.5 -10.5t-47 16t-47 34.5t-21.5 45q0 15 9.5 39.5t25.5 55t36.5 66.5t43.5 74q27 45 53.5 90.5t47.5 87.5t34.5 77.5t13.5 58.5q0 13 18.5 10t40 -16.5t40 -35t18.5 -45.5q0 -18 -9.5 -45t-25 -59t-36 -69t-42.5 -76q-24 -42 -47.5 -85t-42 -82.5
t-30 -73t-11.5 -57.5zM349 685q-17 0 -33 7t-28.5 18.5t-20 25t-7.5 27.5q0 13 7.5 28.5t18.5 33.5t20.5 36.5t9.5 32.5q0 19 20 19.5t43.5 -10t43.5 -27t20 -31.5q0 -18 -11 -45t-26 -52.5t-31 -44t-26 -18.5z" />
    <glyph glyph-name="cent" unicode="&#xa2;" horiz-adv-x="507" 
d="M442 631q0 -16 -8 -39q18 -13 25.5 -33.5t7.5 -43.5q0 -17 -3 -34t-7 -32t-8 -27l-6 -18q-3 -8 -14.5 -9.5t-22.5 1t-19 9t-5 14.5v-1q3 13 7 27q3 12 6 26t5 28q-12 -29 -26.5 -63t-29.5 -69q-31 -73 -58 -137t-51 -131q16 6 29.5 17t25 24t20 27.5t15.5 27.5
q4 8 15.5 8.5t23 -4.5t19 -13t4.5 -16q-11 -22 -28 -49.5t-40 -52.5t-52.5 -44t-65.5 -23q-8 -29 -13.5 -50t-5.5 -35q0 -11 -15.5 -8.5t-33.5 13t-33.5 27.5t-15.5 36q0 15 7 40q-26 15 -45.5 38t-32.5 49.5t-19.5 54t-6.5 53.5q0 64 28.5 127.5t75.5 116t108.5 90
t126.5 49.5q9 29 15 52t6 37q0 10 15 9t32.5 -10t32.5 -24.5t15 -34.5zM444 406q0 -1 -1 -3v1q1 1 1 2zM192 270q19 44 39 89.5t37 89.5q-24 -31 -45 -67.5t-37.5 -74t-26.5 -73.5t-12 -67q10 25 21.5 50.5t23.5 52.5z" />
    <glyph glyph-name="sterling" unicode="&#xa3;" horiz-adv-x="675" 
d="M659 138q6 0 9 -11.5t0.5 -29.5t-12 -38t-28.5 -38t-48 -29.5t-71 -11.5q-23 0 -51.5 8t-60 20.5t-65.5 28t-68 31.5q-35 17 -66.5 32t-62.5 26q-21 -12 -43 -12q-27 0 -46.5 7t-31 17.5t-16 22.5t-2.5 21v6q0 26 20.5 48t53.5 22h12.5t12.5 -1q22 29 45 69t47 85
q-20 0 -38.5 -0.5t-36.5 -0.5q-3 -2 -6 -3t-9 -1q-7 0 -7 19t6.5 41t19 40t31.5 17l95 -7q34 65 70.5 128.5t75.5 113.5t79.5 80.5t84.5 30.5q52 0 86 -12t53 -30.5t26.5 -41.5t7.5 -44q0 -13 -4 -26v2q0 -2 -0.5 -3.5t-0.5 -2.5l-3 -14q-8 -19 -19 -38t-23 -38
q-15 -23 -27 -44t-12 -38q0 -6 1 -8q1 -8 3 -15t0.5 -12.5t-7.5 -9t-19 -3.5q-11 0 -23.5 5.5t-23.5 15.5t-18 24t-7 32q0 28 16.5 59.5t37.5 63.5q16 26 29.5 50.5t16.5 42.5q-6 2 -11 2q-36 0 -70 -23t-66 -61.5t-62.5 -89t-59.5 -105.5q11 -1 21 -1h18q13 0 19 2.5t8 4.5
q4 2 8.5 4t8.5 2q7 0 9.5 -16.5t0 -36.5t-10 -36.5t-20.5 -16.5l-110 -1q-27 -54 -53.5 -104.5t-52.5 -90.5q22 -11 44.5 -22.5t44.5 -22.5q29 -15 59.5 -29.5t59 -26t53.5 -18.5t44 -7q31 0 50 3t30.5 7.5t17 10l9.5 9.5q6 8 11.5 12.5t16.5 4.5z" />
    <glyph glyph-name="yen" unicode="&#xa5;" horiz-adv-x="605" 
d="M417 376q7 0 9.5 -16.5t0 -36.5t-10.5 -36.5t-21 -16.5l-79 -1l-5 -15h24q16 0 22.5 1.5t10.5 3.5l-3 -1q3 2 6 3t8 1q7 0 8 -15.5t-2.5 -33.5t-12 -33.5t-20.5 -15.5h-66q-2 -19 -4 -36.5t-2 -34.5q0 -23 4 -43t9 -37q4 -16 7 -29.5t2 -23t-8.5 -14.5t-24.5 -5
q-25 0 -48.5 13t-42 35.5t-29.5 52t-11 63.5q0 15 1 28t3 27l-76 -2q-6 0 -9 -0.5t-5 -0.5q-8 0 -12.5 -1.5t-7.5 -3.5q-5 -2 -7.5 -2.5t-7.5 -0.5q-6 0 -7.5 15.5t3 35.5t14 38.5t24.5 25.5q-5 6 -4 25t8 39.5t19 36.5t30 15l117 -10q4 9 4.5 11.5t1.5 5t5 8t15 20.5
q-18 -10 -37 -17.5t-33 -7.5h-5q-24 0 -41 11.5t-27.5 29.5t-15.5 39.5t-5 41.5q0 38 10.5 76.5t26.5 74.5t34.5 67.5t34.5 57.5q12 20 22 37.5t10 22.5v4q0 17 3.5 27t26.5 10q12 0 25.5 -7t25 -19t18.5 -29t7 -38q0 -13 -9.5 -30t-24.5 -38q-14 -20 -29.5 -45t-29 -54
t-22.5 -61t-9 -65q0 -9 0.5 -16.5t1.5 -14.5q22 11 54 37.5t68 61t72 73.5t67 74.5t52.5 64t27.5 43.5q0 10 0.5 19.5t3.5 16.5t10 11t20 4q10 0 22.5 -5.5t23 -17t17.5 -30t7 -43.5q0 -18 -10 -40t-26.5 -47t-38.5 -52.5t-47 -56.5q-40 -49 -83 -102t-81 -120h7
q13 0 19.5 2.5t9.5 4.5q7 6 17 6zM172 268q-24 -1 -48 -1.5t-47 -0.5q25 -3 45 -4.5t45 -3.5z" />
    <glyph glyph-name="dieresis" unicode="&#xa8;" horiz-adv-x="666" 
d="M239 829q15 0 27.5 -5.5t21.5 -14t14.5 -19.5t5.5 -22q0 -17 -7.5 -34.5t-21.5 -32.5t-33.5 -24.5t-42.5 -9.5q-7 0 -17.5 3.5t-20.5 11t-17 18.5t-7 27q0 15 10 32.5t25 33t32 26t31 10.5zM435 833q28 0 48.5 -19t20.5 -41q0 -17 -7.5 -35t-21.5 -32.5t-33.5 -24
t-43.5 -9.5q-7 0 -17.5 3.5t-20 11t-16.5 18.5t-7 27q0 15 9.5 32.5t24.5 32.5t32 25.5t32 10.5z" />
    <glyph glyph-name="copyright" unicode="&#xa9;" horiz-adv-x="900" 
d="M523 631q16 0 46.5 -12t60.5 -40.5t52.5 -76.5t22.5 -119q0 -91 -40 -166t-103 -129t-140 -83.5t-150 -29.5q-52 0 -98 15.5t-80.5 48t-55 83t-20.5 120.5q0 60 19 114.5t50.5 102t72 86t83 65.5t84 42t75.5 15q19 0 29.5 -11.5t14.5 -26t1.5 -26t-8.5 -11.5
q-19 0 -48 -12t-61 -34.5t-64.5 -55.5t-58.5 -75t-42 -93t-16 -110q0 -38 12 -66.5t32.5 -47t48 -27.5t59.5 -9q54 0 112 23.5t106.5 68.5t80 110t31.5 148q0 41 -11.5 71t-27 49t-31.5 28t-25 9q-12 0 -15 -3q-5 -4 -10 -6.5t-15 -2.5q-5 0 -6.5 11.5t0.5 25.5t10 25.5
t23 11.5zM470 277q-14 0 -24 7.5t-10 21.5q0 11 12 28q4 7 9.5 17t10.5 18.5t8 14.5t2 6q-13 0 -35 -19.5t-43.5 -48t-37 -60.5t-15.5 -56q0 -12 1 -12q10 0 20 7t18.5 17t15 20.5t10.5 16.5v-1q5 8 9 12.5t13 4.5q2 0 9 -1.5t14.5 -6t13.5 -12.5t6 -21q0 -8 -12.5 -28
t-32 -40.5t-44 -36.5t-48.5 -16q-14 0 -35 9.5t-40.5 29t-33 49t-13.5 68.5q0 37 22 76t56 70.5t73 51.5t74 20q30 0 49.5 -9t31 -22.5t15.5 -29t4 -27.5q0 -11 -10 -30.5t-22.5 -39t-24.5 -34t-16 -14.5z" />
    <glyph glyph-name="guillemotleft" unicode="&#xab;" horiz-adv-x="722" 
d="M309 568q0 10 17.5 6t38.5 -16t38.5 -28t17.5 -31q0 -7 -12.5 -22t-33.5 -34.5t-47.5 -42t-53.5 -44.5q-64 -53 -146 -115q19 -9 48 -25t56 -33t46 -33.5t19 -27.5q0 -17 -8 -26t-19 -10.5t-24 3.5t-22 14q-8 8 -30 20.5t-45 25.5q-27 15 -56 32.5t-52.5 35.5t-39 36.5
t-15.5 37.5q0 11 12 25.5t32.5 31t46.5 35t55 38.5v-1q31 22 63 44t57 42t41 36.5t16 25.5zM617 568q0 10 17.5 6t38 -16t38 -28t17.5 -31q0 -8 -14.5 -24t-38 -38t-53.5 -47t-61 -50q-73 -59 -166 -129q16 -8 36.5 -19.5t39 -23.5t31 -24.5t12.5 -22.5q0 -17 -7.5 -26
t-19 -10.5t-24 3.5t-21.5 14q-7 7 -24.5 17t-38.5 21q-22 12 -44.5 24.5t-40.5 27.5t-29.5 32t-11.5 37q0 11 13.5 26t36 33t51.5 38.5t61 43.5q36 25 72 50.5t65 48t47 40.5t18 27z" />
    <glyph glyph-name="registered" unicode="&#xae;" horiz-adv-x="900" 
d="M523 631q16 0 46.5 -12t60.5 -40.5t52.5 -76t22.5 -118.5q0 -92 -40 -167t-103 -129t-140 -83.5t-150 -29.5q-52 0 -98 15.5t-80.5 48t-55 83t-20.5 120.5q0 60 19 114.5t50.5 102t72 86t83 65.5t84 42t75.5 15q20 0 30.5 -11.5t14 -25.5t1 -25.5t-8.5 -11.5
q-19 0 -48 -12t-61 -34.5t-64.5 -55.5t-58.5 -75t-42 -93t-16 -110q0 -39 12 -67t32.5 -47t48 -28t59.5 -9q54 0 112 23.5t106.5 68.5t80 110t31.5 148q0 41 -11.5 71t-27 49t-31.5 28t-25 9q-12 0 -15 -3q-5 -4 -10 -6.5t-15 -2.5q-5 0 -6.5 11.5t1 25.5t10 25.5t22.5 11.5
zM554 410q0 -22 -21 -47t-47 -46q-30 -26 -68 -50q2 -40 17 -64.5t26 -38.5q7 -9 10 -13.5t3 -12.5q0 -11 -15 -18.5t-36.5 -3.5t-45 23.5t-39.5 62.5q-11 -22 -25 -42.5t-22 -20.5q-9 0 -23 5t-27 13.5t-22.5 18.5t-9.5 19q0 3 4.5 15t12 28t16.5 34l17 34q11 22 22.5 45.5
t21 43t15.5 33.5t6 18q0 6 6 10.5t15.5 7t21 3t21.5 -2.5q12 8 29.5 14t38.5 6q45 0 71.5 -19t26.5 -55zM391 337q12 32 20 60q-10 -9 -22 -19t-26 -19z" />
    <glyph glyph-name="degree" unicode="&#xb0;" horiz-adv-x="420" 
d="M355 918q22 0 42 -8.5t34.5 -22t23 -30.5t8.5 -34q0 -27 -12 -56t-34.5 -53t-54 -39.5t-69.5 -15.5q-11 0 -27 5.5t-31 17t-25.5 29.5t-10.5 42q0 22 15.5 51t39 54t51 42.5t50.5 17.5zM367 827q-11 -5 -23.5 -17t-24 -26t-20 -29t-11.5 -26q15 4 29 14.5t24.5 24.5
t17.5 29.5t8 29.5z" />
    <glyph glyph-name="acute" unicode="&#xb4;" horiz-adv-x="669" 
d="M216 703q6 0 23 10.5t38.5 26.5t45 35.5t43 38t32 33.5t12.5 22q0 8 18 5t39 -13t39 -23t18 -25q0 -9 -15.5 -26t-40 -36.5t-55.5 -40t-61.5 -37t-57.5 -27t-45 -10.5q-14 0 -22.5 10.5t-12.5 23t-3.5 23t5.5 10.5z" />
    <glyph glyph-name="mu" unicode="&#xb5;" horiz-adv-x="653" 
d="M419 83q10 0 11.5 -13t-3 -28.5t-13 -28.5t-19.5 -13q-21 0 -41 13t-36 33.5t-26 44t-10 44.5q0 19 7 43q-26 -35 -52.5 -67t-51.5 -57t-46 -39.5t-37 -14.5t-29 6q-24 -50 -45.5 -96.5t-37.5 -85.5t-25.5 -68.5t-9.5 -46.5q0 -13 -18 -10t-39 16.5t-39 34.5t-18 45
q0 18 12.5 54.5t33 85t47 106t55.5 117.5l29 61l-1 -1l8 17l38 82q26 58 48 110t34 92v-1q2 14 4.5 25.5t2.5 20.5q0 10 3 15q4 11 14 17t21 4q13 0 31 -8t34.5 -23.5t27.5 -37t11 -47.5q0 -20 -18.5 -61t-42.5 -88q-9 -18 -19 -38.5t-20.5 -42.5t-21.5 -44.5t-21 -42.5
l-33 -68q-4 -11 -8 -19.5t-7 -10.5q7 2 24 19.5t39.5 44.5t48.5 61.5t52 69.5q61 83 134 187q20 42 33.5 73t13.5 40q0 16 20 14.5t44.5 -14.5t44.5 -34t20 -42q0 -14 -16.5 -50.5t-39.5 -84.5q-17 -35 -35.5 -73.5t-33.5 -74t-25 -66t-10 -48.5q0 -8 2 -8z" />
    <glyph glyph-name="guillemotright" unicode="&#xbb;" horiz-adv-x="660" 
d="M-7 160q0 3 12 14.5t32 27.5t45.5 35.5t52.5 39.5q62 47 143 103q-13 15 -32.5 38t-39 47.5t-37 47t-26.5 34.5q-4 6 3.5 14.5t19.5 15.5t24.5 9t17.5 -5q-2 3 11.5 -12t32.5 -35q23 -25 51 -56t52 -60t40 -53.5t16 -36.5q0 -9 -10.5 -21t-27.5 -26t-39.5 -30t-47.5 -32
q-24 -17 -50.5 -35t-52 -37t-48.5 -37t-40 -35q-10 -10 -27 -1.5t-33.5 25t-29 34.5t-12.5 27zM300 160q0 3 9.5 12.5t24.5 23t34.5 29t39.5 31.5q48 37 109 81q-17 19 -42.5 50t-51.5 63.5t-48.5 61t-31.5 40.5q-4 6 3.5 15t19.5 15.5t24.5 8.5t17.5 -5h1q3 -5 17 -20.5
t33 -35.5q27 -30 61 -67.5t63 -72.5t49 -64t20 -41q0 -19 -26.5 -40t-66.5 -48q-35 -24 -77 -54.5t-80 -67.5q-10 -10 -27 -1.5t-33.5 25t-29 34.5t-12.5 27z" />
    <glyph glyph-name="questiondown" unicode="&#xbf;" horiz-adv-x="547" 
d="M477 629q-17 0 -32.5 7.5t-28.5 18.5t-20.5 25t-7.5 28q0 13 8 28t19 33t20 36.5t9 32.5q0 19 20 19.5t44 -9.5t44 -27t20 -32q0 -17 -11 -44.5t-26.5 -53t-31.5 -44t-26 -18.5zM167 2q-30 0 -61.5 7.5t-57 25.5t-42 47t-16.5 72q0 26 15 54.5t39.5 59.5t56 62.5
l63.5 63.5q29 29 56.5 57t49 53.5t34.5 47.5t13 40q0 12 10 13.5t24.5 -3t32 -14.5t32 -22t24.5 -24.5t10 -22.5q0 -16 -10.5 -35t-28.5 -41t-41.5 -46t-48.5 -49q-32 -32 -65 -66t-59.5 -68t-44 -67t-17.5 -64q0 -5 7.5 -11t29.5 -6q27 0 60.5 20t63 48.5t49.5 60t20 53.5
q0 12 -4.5 20t-12.5 8q-7 0 -8.5 8t0 18t5.5 18t9 8q9 0 22 -3t26 -13t22 -28.5t9 -49.5q0 -27 -23.5 -67t-61.5 -76.5t-85.5 -62.5t-95.5 -26z" />
    <glyph glyph-name="Agrave" unicode="&#xc0;" 
d="M999 -99q11 20 23 20t21 -7q11 -9 21 -25q-15 -32 -41 -58q-23 -22 -61 -39.5t-96 -17.5q-57 0 -118.5 21t-113.5 67t-85.5 118.5t-33.5 175.5q0 34 9 75t26 89q-40 11 -76 27.5t-68 33.5q-75 -83 -150 -158.5t-143.5 -133.5t-126 -92t-97.5 -34q-68 0 -118 19t-84 51
t-50.5 75t-16.5 90q0 62 30 126t89.5 116.5t148.5 86t206 33.5q46 0 85 -7t74 -18t66.5 -26t63.5 -31q48 53 95 107t91 106.5t84.5 101t73.5 89.5l122 145q3 12 12.5 19.5t23.5 6.5t33 -11t36.5 -26t29.5 -35.5t12 -38.5q0 -23 -13 -60.5t-34 -85t-48 -101.5t-55 -109
q-29 -57 -55.5 -108.5t-52.5 -107.5q14 -6 19 -15t5 -18q0 -14 -13 -25t-42 -13q-23 -54 -36.5 -100t-13.5 -78q0 -81 25 -133.5t61 -83t75 -42t66 -11.5q53 0 79.5 17t34.5 32zM-107 58q30 0 77 29.5t105 79t123 115.5t133 139q-54 27 -109 46t-123 19q-69 0 -126.5 -31.5
t-99 -79.5t-65 -104t-23.5 -105q0 -47 25.5 -77.5t82.5 -30.5zM458 439q31 -17 58.5 -28t60.5 -19q29 70 65 146.5t71 150.5q16 31 23.5 45t12 22t9 18t13.5 34q-59 -74 -139 -169.5t-174 -199.5zM794 1309q0 10 20 21.5t43.5 19t43.5 9t20 -7.5q0 -5 9 -19t23 -32.5t32 -38
t37 -36t36.5 -27t31.5 -10.5q6 0 6.5 -11t-3.5 -24t-13 -24t-23 -11q-27 0 -57 11t-59 28t-56 38.5t-47 43t-32 40t-12 30.5z" />
    <glyph glyph-name="Aacute" unicode="&#xc1;" 
d="M999 -99q11 20 23 20t21 -7q11 -9 21 -25q-15 -32 -41 -58q-23 -22 -61 -39.5t-96 -17.5q-57 0 -118.5 21t-113.5 67t-85.5 118.5t-33.5 175.5q0 34 9 75t26 89q-40 11 -76 27.5t-68 33.5q-75 -83 -150 -158.5t-143.5 -133.5t-126 -92t-97.5 -34q-68 0 -118 19t-84 51
t-50.5 75t-16.5 90q0 62 30 126t89.5 116.5t148.5 86t206 33.5q46 0 85 -7t74 -18t66.5 -26t63.5 -31q48 53 95 107t91 106.5t84.5 101t73.5 89.5l122 145q3 12 12.5 19.5t23.5 6.5t33 -11t36.5 -26t29.5 -35.5t12 -38.5q0 -23 -13 -60.5t-34 -85t-48 -101.5t-55 -109
q-29 -57 -55.5 -108.5t-52.5 -107.5q14 -6 19 -15t5 -18q0 -14 -13 -25t-42 -13q-23 -54 -36.5 -100t-13.5 -78q0 -81 25 -133.5t61 -83t75 -42t66 -11.5q53 0 79.5 17t34.5 32zM-107 58q30 0 77 29.5t105 79t123 115.5t133 139q-54 27 -109 46t-123 19q-69 0 -126.5 -31.5
t-99 -79.5t-65 -104t-23.5 -105q0 -47 25.5 -77.5t82.5 -30.5zM458 439q31 -17 58.5 -28t60.5 -19q29 70 65 146.5t71 150.5q16 31 23.5 45t12 22t9 18t13.5 34q-59 -74 -139 -169.5t-174 -199.5zM771 1185q6 0 23 10.5t38.5 26.5t45 35.5t43 38t32 33.5t12.5 22q0 8 18 5
t39 -13t39 -23t18 -25q0 -9 -15.5 -26t-40 -36.5t-55.5 -40t-61.5 -37t-57.5 -27t-45 -10.5q-14 0 -22.5 10.5t-12.5 23t-3.5 23t5.5 10.5z" />
    <glyph glyph-name="Acircumflex" unicode="&#xc2;" 
d="M999 -99q11 20 23 20t21 -7q11 -9 21 -25q-15 -32 -41 -58q-23 -22 -61 -39.5t-96 -17.5q-57 0 -118.5 21t-113.5 67t-85.5 118.5t-33.5 175.5q0 34 9 75t26 89q-40 11 -76 27.5t-68 33.5q-75 -83 -150 -158.5t-143.5 -133.5t-126 -92t-97.5 -34q-68 0 -118 19t-84 51
t-50.5 75t-16.5 90q0 62 30 126t89.5 116.5t148.5 86t206 33.5q46 0 85 -7t74 -18t66.5 -26t63.5 -31q48 53 95 107t91 106.5t84.5 101t73.5 89.5l122 145q3 12 12.5 19.5t23.5 6.5t33 -11t36.5 -26t29.5 -35.5t12 -38.5q0 -23 -13 -60.5t-34 -85t-48 -101.5t-55 -109
q-29 -57 -55.5 -108.5t-52.5 -107.5q14 -6 19 -15t5 -18q0 -14 -13 -25t-42 -13q-23 -54 -36.5 -100t-13.5 -78q0 -81 25 -133.5t61 -83t75 -42t66 -11.5q53 0 79.5 17t34.5 32zM-107 58q30 0 77 29.5t105 79t123 115.5t133 139q-54 27 -109 46t-123 19q-69 0 -126.5 -31.5
t-99 -79.5t-65 -104t-23.5 -105q0 -47 25.5 -77.5t82.5 -30.5zM458 439q31 -17 58.5 -28t60.5 -19q29 70 65 146.5t71 150.5q16 31 23.5 45t12 22t9 18t13.5 34q-59 -74 -139 -169.5t-174 -199.5zM797 1168q3 0 14 9.5t26.5 24t33.5 32.5t36 35q29 30 53 52t35 22
q7 0 23.5 -3t33.5 -9.5t30 -18.5t13 -30q0 -14 7.5 -31t18 -33.5t23 -32t21.5 -26.5q8 -11 14 -19.5t6 -14.5q0 -14 -12.5 -23t-23.5 -9q-16 0 -38.5 18.5t-42.5 41.5q-25 26 -50 61q-14 -14 -35.5 -35t-45.5 -40t-49 -32.5t-45 -13.5q-14 0 -25 11.5t-17.5 26t-7.5 26
t4 11.5z" />
    <glyph glyph-name="Atilde" unicode="&#xc3;" 
d="M999 -99q11 20 23 20t21 -7q11 -9 21 -25q-15 -32 -41 -58q-23 -22 -61 -39.5t-96 -17.5q-57 0 -118.5 21t-113.5 67t-85.5 118.5t-33.5 175.5q0 34 9 75t26 89q-40 11 -76 27.5t-68 33.5q-75 -83 -150 -158.5t-143.5 -133.5t-126 -92t-97.5 -34q-68 0 -118 19t-84 51
t-50.5 75t-16.5 90q0 62 30 126t89.5 116.5t148.5 86t206 33.5q46 0 85 -7t74 -18t66.5 -26t63.5 -31q48 53 95 107t91 106.5t84.5 101t73.5 89.5l122 145q3 12 12.5 19.5t23.5 6.5t33 -11t36.5 -26t29.5 -35.5t12 -38.5q0 -23 -13 -60.5t-34 -85t-48 -101.5t-55 -109
q-29 -57 -55.5 -108.5t-52.5 -107.5q14 -6 19 -15t5 -18q0 -14 -13 -25t-42 -13q-23 -54 -36.5 -100t-13.5 -78q0 -81 25 -133.5t61 -83t75 -42t66 -11.5q53 0 79.5 17t34.5 32zM-107 58q30 0 77 29.5t105 79t123 115.5t133 139q-54 27 -109 46t-123 19q-69 0 -126.5 -31.5
t-99 -79.5t-65 -104t-23.5 -105q0 -47 25.5 -77.5t82.5 -30.5zM458 439q31 -17 58.5 -28t60.5 -19q29 70 65 146.5t71 150.5q16 31 23.5 45t12 22t9 18t13.5 34q-59 -74 -139 -169.5t-174 -199.5zM832 1125q-20 0 -31.5 16t-11.5 39q0 14 5 28.5t17 26.5t31 19.5t47 7.5
q22 0 48 -5l52 -10q23 -5 41.5 -8.5t29.5 -3.5q13 0 17 2.5t6 5.5q3 5 5.5 9.5t16.5 4.5t25 -22.5t11 -52.5q0 -31 -21.5 -46.5t-56.5 -15.5q-16 0 -34.5 3.5t-40.5 8.5q-29 7 -61.5 13t-61.5 6q-8 0 -12 -4q-2 -2 -2 -4z" />
    <glyph glyph-name="Adieresis" unicode="&#xc4;" 
d="M999 -99q11 20 23 20t21 -7q11 -9 21 -25q-15 -32 -41 -58q-23 -22 -61 -39.5t-96 -17.5q-57 0 -118.5 21t-113.5 67t-85.5 118.5t-33.5 175.5q0 34 9 75t26 89q-40 11 -76 27.5t-68 33.5q-75 -83 -150 -158.5t-143.5 -133.5t-126 -92t-97.5 -34q-68 0 -118 19t-84 51
t-50.5 75t-16.5 90q0 62 30 126t89.5 116.5t148.5 86t206 33.5q46 0 85 -7t74 -18t66.5 -26t63.5 -31q48 53 95 107t91 106.5t84.5 101t73.5 89.5l122 145q3 12 12.5 19.5t23.5 6.5t33 -11t36.5 -26t29.5 -35.5t12 -38.5q0 -23 -13 -60.5t-34 -85t-48 -101.5t-55 -109
q-29 -57 -55.5 -108.5t-52.5 -107.5q14 -6 19 -15t5 -18q0 -14 -13 -25t-42 -13q-23 -54 -36.5 -100t-13.5 -78q0 -81 25 -133.5t61 -83t75 -42t66 -11.5q53 0 79.5 17t34.5 32zM-107 58q30 0 77 29.5t105 79t123 115.5t133 139q-54 27 -109 46t-123 19q-69 0 -126.5 -31.5
t-99 -79.5t-65 -104t-23.5 -105q0 -47 25.5 -77.5t82.5 -30.5zM458 439q31 -17 58.5 -28t60.5 -19q29 70 65 146.5t71 150.5q16 31 23.5 45t12 22t9 18t13.5 34q-59 -74 -139 -169.5t-174 -199.5zM884 1292q15 0 27.5 -5.5t21.5 -14t14.5 -19.5t5.5 -22q0 -17 -7.5 -34.5
t-21.5 -32.5t-33.5 -24.5t-42.5 -9.5q-7 0 -17.5 3.5t-20.5 11t-17 18.5t-7 27q0 15 10 32.5t25 33t32 26t31 10.5zM1080 1296q28 0 48.5 -19t20.5 -41q0 -17 -7.5 -35t-21.5 -32.5t-33.5 -24t-43.5 -9.5q-7 0 -17.5 3.5t-20 11t-16.5 18.5t-7 27q0 15 9.5 32.5t24.5 32.5
t32 25.5t32 10.5z" />
    <glyph glyph-name="Aring" unicode="&#xc5;" 
d="M999 -99q11 20 23 20t21 -7q11 -9 21 -25q-15 -32 -41 -58q-23 -22 -61 -39.5t-96 -17.5q-57 0 -118.5 21t-113.5 67t-85.5 118.5t-33.5 175.5q0 34 9 75t26 89q-40 11 -76 27.5t-68 33.5q-75 -83 -150 -158.5t-143.5 -133.5t-126 -92t-97.5 -34q-68 0 -118 19t-84 51
t-50.5 75t-16.5 90q0 62 30 126t89.5 116.5t148.5 86t206 33.5q46 0 85 -7t74 -18t66.5 -26t63.5 -31q48 53 95 107t91 106.5t84.5 101t73.5 89.5l122 145q3 12 12.5 19.5t23.5 6.5t33 -11t36.5 -26t29.5 -35.5t12 -38.5q0 -23 -13 -60.5t-34 -85t-48 -101.5t-55 -109
q-29 -57 -55.5 -108.5t-52.5 -107.5q14 -6 19 -15t5 -18q0 -14 -13 -25t-42 -13q-23 -54 -36.5 -100t-13.5 -78q0 -81 25 -133.5t61 -83t75 -42t66 -11.5q53 0 79.5 17t34.5 32zM-107 58q30 0 77 29.5t105 79t123 115.5t133 139q-54 27 -109 46t-123 19q-69 0 -126.5 -31.5
t-99 -79.5t-65 -104t-23.5 -105q0 -47 25.5 -77.5t82.5 -30.5zM458 439q31 -17 58.5 -28t60.5 -19q29 70 65 146.5t71 150.5q16 31 23.5 45t12 22t9 18t13.5 34q-59 -74 -139 -169.5t-174 -199.5zM989 1373q22 0 42 -8.5t34.5 -22t23 -30.5t8.5 -34q0 -27 -12 -56t-34.5 -53
t-54 -39.5t-69.5 -15.5q-11 0 -27 5.5t-31 17t-25.5 29.5t-10.5 42q0 22 15.5 51t39 54t51 42.5t50.5 17.5zM1001 1282q-11 -5 -23.5 -17t-24 -26t-20 -29t-11.5 -26q15 4 29 14.5t24.5 24.5t17.5 29.5t8 29.5z" />
    <glyph glyph-name="AE" unicode="&#xc6;" horiz-adv-x="1650" 
d="M1786 1031q0 -23 -7.5 -48.5t-20 -51t-28 -51.5t-30.5 -50q-14 -22 -27 -44t-24 -43.5t-17.5 -40.5t-6.5 -35q0 -5 1 -9.5t3 -9.5v1q3 -11 5 -21t0.5 -17.5t-9.5 -12t-24 -4.5q-17 0 -37.5 9t-38 25t-29 39t-11.5 51q0 43 23 92t52 100q-6 3 -14.5 5t-20.5 2
q-55 0 -106 -15.5t-96.5 -41t-83.5 -58t-65.5 -67t-43.5 -67.5t-18 -59q35 13 67 20t63 7q74 0 114.5 -19.5t59 -45t21.5 -50t3 -33.5q0 -22 -8.5 -35t-19 -20.5t-21 -10t-13.5 -2.5h-6q-6 -7 -16 -12t-25 -5q-52 0 -106.5 9t-101.5 32q-75 -35 -139.5 -90t-112 -115
t-74 -117t-26.5 -96q0 -43 12 -73t33 -49t50 -27.5t63 -8.5q50 0 108 15t115 40.5t109.5 58.5t92.5 69t64 72.5t24 69.5q0 16 6.5 26.5t16 17t20.5 9.5t19 3q23 0 32.5 -10t9.5 -27q0 -44 -31.5 -94t-84.5 -98.5t-123 -93.5t-146.5 -78.5t-154.5 -53.5t-148 -19h-7
q-56 0 -114 21t-105 67t-77 118.5t-30 175.5q0 33 9 74.5t26 89.5q-40 11 -75.5 27.5t-68.5 33.5q-75 -83 -150 -158.5t-143 -133.5t-125.5 -92t-97.5 -34q-68 0 -118.5 19t-84.5 51t-50.5 75t-16.5 90q0 62 30 126t89.5 116.5t148.5 86t206 33.5q46 0 85 -7t74 -18
t66.5 -26t63.5 -31q48 53 95 107t91.5 106.5t84.5 101t74 89.5l122 145q2 12 12 19.5t24 6.5q13 -1 32 -11t36.5 -26t29.5 -35.5t12 -38.5q0 -23 -13 -60.5t-34 -85t-48 -101.5t-55 -109q-29 -57 -55.5 -108.5t-52.5 -107.5l9 -6q54 57 116.5 107t128.5 88q-11 23 -15.5 47
t-4.5 56q0 41 22.5 87t60 91t87 85.5t104 71t110.5 49t107 18.5q58 0 91.5 -17.5t50.5 -41.5q17 32 27.5 62t10.5 56q0 10 10 13.5t24.5 1t32 -10.5t32 -21.5t24.5 -32.5t10 -43zM1346 464h8q1 1 2 1.5t2 2.5q-5 6 -20.5 11.5t-38.5 5.5q-14 0 -30 -1t-30 -3
q29 -10 54 -13.5t42 -3.5h11zM-97 59q31 0 78 29.5t104.5 79t123 115.5t132.5 139q-54 27 -108.5 46t-122.5 19q-69 0 -127 -31.5t-99.5 -79.5t-65 -104t-23.5 -105q0 -47 25.5 -77.5t82.5 -30.5zM782 811q-29 -37 -65 -81t-76.5 -92t-84 -98.5t-88.5 -99.5
q29 -14 58.5 -26.5t60.5 -20.5q14 33 31 71t35 76.5t35.5 76.5t34.5 73q16 31 23.5 45t12.5 22.5t9.5 19t13.5 34.5zM452 422q4 5 8 9t8 9l-22 11z" />
    <glyph glyph-name="Ccedilla" unicode="&#xc7;" horiz-adv-x="963" 
d="M256 -105q86 0 163 30t143 78t121 107t98 116.5t73 108t47 80.5q8 21 22.5 31t26.5 10q19 0 28 -14.5t-5 -45.5q-18 -34 -46.5 -84.5t-67.5 -107.5t-88 -116.5t-106 -112.5t-123 -94t-139 -61q11 -15 17.5 -34t6.5 -45q0 -41 -21.5 -80t-55.5 -69.5t-75 -49.5t-81 -19
q-32 0 -55.5 9t-40.5 22t-27.5 28.5t-15.5 29.5q-6 16 0.5 25t18 11.5t23.5 -3.5t18 -20l-1 1q2 -5 9 -11.5t21 -6.5q42 0 77.5 15t61.5 39t40.5 54.5t14.5 61.5q0 14 -5 19.5t-13 7.5q-5 -1 -12.5 -1.5t-12.5 -0.5q-12 -2 -25 -5.5t-24 -7.5q-31 -11 -49 -11
q-24 0 -29.5 12.5t-0.5 26.5q-54 19 -93.5 51.5t-65 72t-38 83t-12.5 84.5q0 74 23 153.5t63.5 160t95.5 158.5t118 148.5t132 130t138 103t135 68t123 24.5q28 0 66 -12t72 -31t57.5 -42.5t23.5 -46.5q0 -51 -17.5 -108.5t-46 -114.5t-64.5 -108.5t-73 -91.5t-71.5 -63.5
t-60.5 -23.5q-37 0 -56 17.5t-19 33.5q0 14 10 24t33 10q20 0 45.5 18.5t52.5 49.5t53.5 72t48.5 86t38 91t21 88q-20 3 -32 3q-75 0 -159.5 -39.5t-168 -106.5t-159.5 -156t-134.5 -186.5t-93 -198.5t-34.5 -193q0 -34 15 -59t36 -41t45 -23.5t42 -7.5z" />
    <glyph glyph-name="Egrave" unicode="&#xc8;" horiz-adv-x="961" 
d="M1124 1062q0 -23 -7.5 -48.5t-19.5 -51t-27.5 -51.5t-31.5 -50q-14 -22 -27 -44t-24 -43t-17.5 -40.5t-6.5 -35.5q0 -5 1 -9.5t3 -9.5v1q3 -11 5.5 -21t0.5 -17.5t-9.5 -12t-23.5 -4.5q-18 0 -38.5 9t-38 25t-29 39t-11.5 51q0 43 23 92t52 100q-12 7 -35 7
q-54 0 -105.5 -15.5t-96.5 -41t-83 -58t-65.5 -67t-44 -67.5t-17.5 -59q34 13 66.5 20t62.5 7q75 0 115 -19.5t59 -45t22 -50t3 -33.5q0 -21 -8.5 -34.5t-19 -21t-21 -10t-13.5 -2.5h-6q-7 -7 -17 -12t-25 -5q-52 0 -106 9.5t-102 31.5q-75 -35 -139.5 -90t-111.5 -115
t-74 -117t-27 -96q0 -43 12 -73t33 -49t50 -27.5t63 -8.5q51 0 108.5 15t115 40.5t110 58.5t92.5 69.5t64 73t24 68.5q0 16 6.5 26.5t16 17t20 9.5t18.5 3q23 0 33 -10t10 -27q0 -44 -31 -93.5t-84 -98t-122 -93t-145 -78.5t-153.5 -54t-147.5 -20q-58 0 -108 15t-86.5 48.5
t-57.5 86.5t-21 130q0 57 34.5 126.5t92 139t132 132.5t153.5 107q-9 22 -15 48t-6 55q0 42 22.5 87.5t60 90.5t87.5 85.5t104.5 71.5t110.5 49t106 18q59 0 92 -17.5t50 -41.5q17 32 28 62t11 56q0 15 20.5 15.5t45.5 -11.5t45.5 -36.5t20.5 -60.5zM673 495q4 0 6.5 0.5
t4.5 0.5h9q1 1 2 1.5t2 1.5q-5 6 -21 11.5t-39 5.5q-14 0 -30 -1t-30 -3q29 -10 54 -13.5t42 -3.5zM677 1401q0 10 20 21.5t43.5 19t43.5 9t20 -7.5q0 -5 9 -19t23 -32.5t32 -38t37 -36t36.5 -27t31.5 -10.5q6 0 6.5 -11t-3.5 -24t-13 -24t-23 -11q-27 0 -57 11t-59 28
t-56 38.5t-47 43t-32 40t-12 30.5z" />
    <glyph glyph-name="Eacute" unicode="&#xc9;" horiz-adv-x="961" 
d="M1124 1062q0 -23 -7.5 -48.5t-19.5 -51t-27.5 -51.5t-31.5 -50q-14 -22 -27 -44t-24 -43t-17.5 -40.5t-6.5 -35.5q0 -5 1 -9.5t3 -9.5v1q3 -11 5.5 -21t0.5 -17.5t-9.5 -12t-23.5 -4.5q-18 0 -38.5 9t-38 25t-29 39t-11.5 51q0 43 23 92t52 100q-12 7 -35 7
q-54 0 -105.5 -15.5t-96.5 -41t-83 -58t-65.5 -67t-44 -67.5t-17.5 -59q34 13 66.5 20t62.5 7q75 0 115 -19.5t59 -45t22 -50t3 -33.5q0 -21 -8.5 -34.5t-19 -21t-21 -10t-13.5 -2.5h-6q-7 -7 -17 -12t-25 -5q-52 0 -106 9.5t-102 31.5q-75 -35 -139.5 -90t-111.5 -115
t-74 -117t-27 -96q0 -43 12 -73t33 -49t50 -27.5t63 -8.5q51 0 108.5 15t115 40.5t110 58.5t92.5 69.5t64 73t24 68.5q0 16 6.5 26.5t16 17t20 9.5t18.5 3q23 0 33 -10t10 -27q0 -44 -31 -93.5t-84 -98t-122 -93t-145 -78.5t-153.5 -54t-147.5 -20q-58 0 -108 15t-86.5 48.5
t-57.5 86.5t-21 130q0 57 34.5 126.5t92 139t132 132.5t153.5 107q-9 22 -15 48t-6 55q0 42 22.5 87.5t60 90.5t87.5 85.5t104.5 71.5t110.5 49t106 18q59 0 92 -17.5t50 -41.5q17 32 28 62t11 56q0 15 20.5 15.5t45.5 -11.5t45.5 -36.5t20.5 -60.5zM673 495q4 0 6.5 0.5
t4.5 0.5h9q1 1 2 1.5t2 1.5q-5 6 -21 11.5t-39 5.5q-14 0 -30 -1t-30 -3q29 -10 54 -13.5t42 -3.5zM721 1230q6 0 23 10.5t38.5 26.5t45 35.5t43 38t32 33.5t12.5 22q0 8 18 5t39 -13t39 -23t18 -25q0 -9 -15.5 -26t-40 -36.5t-55.5 -40t-61.5 -37t-57.5 -27t-45 -10.5
q-14 0 -22.5 10.5t-12.5 23t-3.5 23t5.5 10.5z" />
    <glyph glyph-name="Ecircumflex" unicode="&#xca;" horiz-adv-x="961" 
d="M1124 1062q0 -23 -7.5 -48.5t-19.5 -51t-27.5 -51.5t-31.5 -50q-14 -22 -27 -44t-24 -43t-17.5 -40.5t-6.5 -35.5q0 -5 1 -9.5t3 -9.5v1q3 -11 5.5 -21t0.5 -17.5t-9.5 -12t-23.5 -4.5q-18 0 -38.5 9t-38 25t-29 39t-11.5 51q0 43 23 92t52 100q-12 7 -35 7
q-54 0 -105.5 -15.5t-96.5 -41t-83 -58t-65.5 -67t-44 -67.5t-17.5 -59q34 13 66.5 20t62.5 7q75 0 115 -19.5t59 -45t22 -50t3 -33.5q0 -21 -8.5 -34.5t-19 -21t-21 -10t-13.5 -2.5h-6q-7 -7 -17 -12t-25 -5q-52 0 -106 9.5t-102 31.5q-75 -35 -139.5 -90t-111.5 -115
t-74 -117t-27 -96q0 -43 12 -73t33 -49t50 -27.5t63 -8.5q51 0 108.5 15t115 40.5t110 58.5t92.5 69.5t64 73t24 68.5q0 16 6.5 26.5t16 17t20 9.5t18.5 3q23 0 33 -10t10 -27q0 -44 -31 -93.5t-84 -98t-122 -93t-145 -78.5t-153.5 -54t-147.5 -20q-58 0 -108 15t-86.5 48.5
t-57.5 86.5t-21 130q0 57 34.5 126.5t92 139t132 132.5t153.5 107q-9 22 -15 48t-6 55q0 42 22.5 87.5t60 90.5t87.5 85.5t104.5 71.5t110.5 49t106 18q59 0 92 -17.5t50 -41.5q17 32 28 62t11 56q0 15 20.5 15.5t45.5 -11.5t45.5 -36.5t20.5 -60.5zM673 495q4 0 6.5 0.5
t4.5 0.5h9q1 1 2 1.5t2 1.5q-5 6 -21 11.5t-39 5.5q-14 0 -30 -1t-30 -3q29 -10 54 -13.5t42 -3.5zM646 1252q3 0 14 9.5t26.5 24t33.5 32.5t36 35q29 30 53 52t35 22q7 0 23.5 -3t33.5 -9.5t30 -18.5t13 -30q0 -14 7.5 -31t18 -33.5t23 -32t21.5 -26.5q8 -11 14 -19.5
t6 -14.5q0 -14 -12.5 -23t-23.5 -9q-16 0 -38.5 18.5t-42.5 41.5q-25 26 -50 61q-14 -14 -35.5 -35t-45.5 -40t-49 -32.5t-45 -13.5q-14 0 -25 11.5t-17.5 26t-7.5 26t4 11.5z" />
    <glyph glyph-name="Edieresis" unicode="&#xcb;" horiz-adv-x="961" 
d="M1124 1062q0 -23 -7.5 -48.5t-19.5 -51t-27.5 -51.5t-31.5 -50q-14 -22 -27 -44t-24 -43t-17.5 -40.5t-6.5 -35.5q0 -5 1 -9.5t3 -9.5v1q3 -11 5.5 -21t0.5 -17.5t-9.5 -12t-23.5 -4.5q-18 0 -38.5 9t-38 25t-29 39t-11.5 51q0 43 23 92t52 100q-12 7 -35 7
q-54 0 -105.5 -15.5t-96.5 -41t-83 -58t-65.5 -67t-44 -67.5t-17.5 -59q34 13 66.5 20t62.5 7q75 0 115 -19.5t59 -45t22 -50t3 -33.5q0 -21 -8.5 -34.5t-19 -21t-21 -10t-13.5 -2.5h-6q-7 -7 -17 -12t-25 -5q-52 0 -106 9.5t-102 31.5q-75 -35 -139.5 -90t-111.5 -115
t-74 -117t-27 -96q0 -43 12 -73t33 -49t50 -27.5t63 -8.5q51 0 108.5 15t115 40.5t110 58.5t92.5 69.5t64 73t24 68.5q0 16 6.5 26.5t16 17t20 9.5t18.5 3q23 0 33 -10t10 -27q0 -44 -31 -93.5t-84 -98t-122 -93t-145 -78.5t-153.5 -54t-147.5 -20q-58 0 -108 15t-86.5 48.5
t-57.5 86.5t-21 130q0 57 34.5 126.5t92 139t132 132.5t153.5 107q-9 22 -15 48t-6 55q0 42 22.5 87.5t60 90.5t87.5 85.5t104.5 71.5t110.5 49t106 18q59 0 92 -17.5t50 -41.5q17 32 28 62t11 56q0 15 20.5 15.5t45.5 -11.5t45.5 -36.5t20.5 -60.5zM673 495q4 0 6.5 0.5
t4.5 0.5h9q1 1 2 1.5t2 1.5q-5 6 -21 11.5t-39 5.5q-14 0 -30 -1t-30 -3q29 -10 54 -13.5t42 -3.5zM767 1335q15 0 27.5 -5.5t21.5 -14t14.5 -19.5t5.5 -22q0 -17 -7.5 -34.5t-21.5 -32.5t-33.5 -24.5t-42.5 -9.5q-7 0 -17.5 3.5t-20.5 11t-17 18.5t-7 27q0 15 10 32.5
t25 33t32 26t31 10.5zM963 1339q28 0 48.5 -19t20.5 -41q0 -17 -7.5 -35t-21.5 -32.5t-33.5 -24t-43.5 -9.5q-7 0 -17.5 3.5t-20 11t-16.5 18.5t-7 27q0 15 9.5 32.5t24.5 32.5t32 25.5t32 10.5z" />
    <glyph glyph-name="Igrave" unicode="&#xcc;" horiz-adv-x="725" 
d="M787 908q0 -18 -22 -62t-56 -108q-27 -50 -59 -111t-64.5 -128t-63 -138.5t-54 -142.5t-37.5 -140.5t-14 -132.5q0 -31 11 -60.5t20 -49.5q7 -13 12 -26t5 -22q0 -17 -12 -27t-42 -10q-36 0 -65.5 19.5t-50 50.5t-31.5 67.5t-11 71.5q0 76 19 162.5t49.5 175.5t69 176
t78 165t75 143.5t61.5 110.5h-1l30 55q-43 -6 -99.5 -25t-119.5 -48t-129 -66.5t-128.5 -80t-118 -89.5t-97 -94.5t-65.5 -94.5t-24 -90q0 -18 5.5 -32.5t11.5 -25.5q7 -15 12 -26.5t2.5 -19t-14 -11.5t-36.5 -4q-27 0 -51.5 9.5t-43.5 27t-30 43.5t-11 59t27 78t74.5 96
t112 105.5t139.5 106t156.5 98t163.5 81t161.5 55t148.5 20.5q19 0 38 -9t34 -24t24.5 -35t9.5 -43zM486 1263q0 10 20 21.5t43.5 19t43.5 9t20 -7.5q0 -5 9 -19t23 -32.5t32 -38t37 -36t36.5 -27t31.5 -10.5q6 0 6.5 -11t-3.5 -24t-13 -24t-23 -11q-27 0 -57 11t-59 28
t-56 38.5t-47 43t-32 40t-12 30.5z" />
    <glyph glyph-name="Iacute" unicode="&#xcd;" horiz-adv-x="725" 
d="M787 908q0 -18 -22 -62t-56 -108q-27 -50 -59 -111t-64.5 -128t-63 -138.5t-54 -142.5t-37.5 -140.5t-14 -132.5q0 -31 11 -60.5t20 -49.5q7 -13 12 -26t5 -22q0 -17 -12 -27t-42 -10q-36 0 -65.5 19.5t-50 50.5t-31.5 67.5t-11 71.5q0 76 19 162.5t49.5 175.5t69 176
t78 165t75 143.5t61.5 110.5h-1l30 55q-43 -6 -99.5 -25t-119.5 -48t-129 -66.5t-128.5 -80t-118 -89.5t-97 -94.5t-65.5 -94.5t-24 -90q0 -18 5.5 -32.5t11.5 -25.5q7 -15 12 -26.5t2.5 -19t-14 -11.5t-36.5 -4q-27 0 -51.5 9.5t-43.5 27t-30 43.5t-11 59t27 78t74.5 96
t112 105.5t139.5 106t156.5 98t163.5 81t161.5 55t148.5 20.5q19 0 38 -9t34 -24t24.5 -35t9.5 -43zM521 1136q6 0 23 10.5t38.5 26.5t45 35.5t43 38t32 33.5t12.5 22q0 8 18 5t39 -13t39 -23t18 -25q0 -9 -15.5 -26t-40 -36.5t-55.5 -40t-61.5 -37t-57.5 -27t-45 -10.5
q-14 0 -22.5 10.5t-12.5 23t-3.5 23t5.5 10.5z" />
    <glyph glyph-name="Icircumflex" unicode="&#xce;" horiz-adv-x="725" 
d="M787 908q0 -18 -22 -62t-56 -108q-27 -50 -59 -111t-64.5 -128t-63 -138.5t-54 -142.5t-37.5 -140.5t-14 -132.5q0 -31 11 -60.5t20 -49.5q7 -13 12 -26t5 -22q0 -17 -12 -27t-42 -10q-36 0 -65.5 19.5t-50 50.5t-31.5 67.5t-11 71.5q0 76 19 162.5t49.5 175.5t69 176
t78 165t75 143.5t61.5 110.5h-1l30 55q-43 -6 -99.5 -25t-119.5 -48t-129 -66.5t-128.5 -80t-118 -89.5t-97 -94.5t-65.5 -94.5t-24 -90q0 -18 5.5 -32.5t11.5 -25.5q7 -15 12 -26.5t2.5 -19t-14 -11.5t-36.5 -4q-27 0 -51.5 9.5t-43.5 27t-30 43.5t-11 59t27 78t74.5 96
t112 105.5t139.5 106t156.5 98t163.5 81t161.5 55t148.5 20.5q19 0 38 -9t34 -24t24.5 -35t9.5 -43zM547 1127q3 0 14 9.5t26.5 24t33.5 32.5t36 35q29 30 53 52t35 22q7 0 23.5 -3t33.5 -9.5t30 -18.5t13 -30q0 -14 7.5 -31t18 -33.5t23 -32t21.5 -26.5q8 -11 14 -19.5
t6 -14.5q0 -14 -12.5 -23t-23.5 -9q-16 0 -38.5 18.5t-42.5 41.5q-25 26 -50 61q-14 -14 -35.5 -35t-45.5 -40t-49 -32.5t-45 -13.5q-14 0 -25 11.5t-17.5 26t-7.5 26t4 11.5z" />
    <glyph glyph-name="Idieresis" unicode="&#xcf;" horiz-adv-x="725" 
d="M787 908q0 -18 -22 -62t-56 -108q-27 -50 -59 -111t-64.5 -128t-63 -138.5t-54 -142.5t-37.5 -140.5t-14 -132.5q0 -31 11 -60.5t20 -49.5q7 -13 12 -26t5 -22q0 -17 -12 -27t-42 -10q-36 0 -65.5 19.5t-50 50.5t-31.5 67.5t-11 71.5q0 76 19 162.5t49.5 175.5t69 176
t78 165t75 143.5t61.5 110.5h-1l30 55q-43 -6 -99.5 -25t-119.5 -48t-129 -66.5t-128.5 -80t-118 -89.5t-97 -94.5t-65.5 -94.5t-24 -90q0 -18 5.5 -32.5t11.5 -25.5q7 -15 12 -26.5t2.5 -19t-14 -11.5t-36.5 -4q-27 0 -51.5 9.5t-43.5 27t-30 43.5t-11 59t27 78t74.5 96
t112 105.5t139.5 106t156.5 98t163.5 81t161.5 55t148.5 20.5q19 0 38 -9t34 -24t24.5 -35t9.5 -43zM603 1256q15 0 27.5 -5.5t21.5 -14t14.5 -19.5t5.5 -22q0 -17 -7.5 -34.5t-21.5 -32.5t-33.5 -24.5t-42.5 -9.5q-7 0 -17.5 3.5t-20.5 11t-17 18.5t-7 27q0 15 10 32.5
t25 33t32 26t31 10.5zM799 1260q28 0 48.5 -19t20.5 -41q0 -17 -7.5 -35t-21.5 -32.5t-33.5 -24t-43.5 -9.5q-7 0 -17.5 3.5t-20 11t-16.5 18.5t-7 27q0 15 9.5 32.5t24.5 32.5t32 25.5t32 10.5z" />
    <glyph glyph-name="Ntilde" unicode="&#xd1;" horiz-adv-x="888" 
d="M971 -110q12 20 24 21.5t21 -6.5q11 -9 20 -26q-16 -32 -42 -58q-23 -22 -61 -39.5t-96 -17.5q-37 0 -79.5 9.5t-84 29.5t-79.5 50.5t-67 73.5t-46.5 98t-17.5 124q0 71 26.5 157t67 176.5t88.5 180t92 168.5q25 45 46.5 84.5t37.5 72t25.5 56t9.5 35.5q0 17 -26.5 -2
t-68.5 -61.5t-94.5 -101.5t-105.5 -121t-100.5 -121t-78.5 -101q-12 -16 -21.5 -28.5t-17.5 -21.5l-33 -61q-26 -49 -51 -96.5t-44 -90.5t-30.5 -80.5t-11.5 -65.5q0 -33 3.5 -45t8.5 -20q3 -7 6.5 -14.5t3.5 -19.5q0 -19 -11.5 -28.5t-30.5 -9.5q-17 0 -38.5 11t-41 34.5
t-33 60t-13.5 86.5q0 28 12.5 69t33.5 90.5t47.5 105.5t55.5 114q30 60 58.5 119t51 112t36 97t13.5 74q0 38 -31 38q-48 0 -102 -29t-107.5 -77t-102.5 -109t-86.5 -125t-60 -125.5t-22.5 -110.5q0 -48 4.5 -80.5t11.5 -54t14 -34.5t13 -20q5 -8 9 -15.5t4 -16.5
q0 -12 -13 -20.5t-33 -8.5q-22 0 -53.5 11.5t-60.5 42.5t-49.5 85.5t-20.5 139.5q0 71 27.5 143.5t75.5 140.5t113 127t141 103t158.5 69.5t165.5 25.5q38 0 63.5 -11.5t41.5 -29.5t24 -40.5t11.5 -44t4 -39.5t0.5 -27q0 -19 -3.5 -39.5t-9.5 -43.5q39 47 82 94.5t86 91.5
t85 82.5t79 67t68.5 45t53.5 16.5q34 0 58 -11t38 -29.5t20.5 -42t6.5 -48.5q0 -18 -12 -49.5t-31.5 -72t-46 -88t-54.5 -97.5q-43 -77 -90 -164t-86.5 -172.5t-65 -163.5t-25.5 -136q0 -82 25 -134t61 -82t75 -41.5t67 -11.5q53 0 79.5 16t34.5 31zM583 1219
q-20 0 -31.5 16t-11.5 39q0 14 5 28.5t17 26.5t31 19.5t47 7.5q22 0 48 -5l52 -10q23 -5 41.5 -8.5t29.5 -3.5q13 0 17 2.5t6 5.5q3 5 5.5 9.5t16.5 4.5t25 -22.5t11 -52.5q0 -31 -21.5 -46.5t-56.5 -15.5q-16 0 -34.5 3.5t-40.5 8.5q-29 7 -61.5 13t-61.5 6q-8 0 -12 -4
q-2 -2 -2 -4z" />
    <glyph glyph-name="Ograve" unicode="&#xd2;" horiz-adv-x="1015" 
d="M751 1037q64 0 110.5 -21t76.5 -59t44 -90.5t14 -115.5q0 -91 -28.5 -197.5t-79.5 -213.5t-122 -206.5t-155.5 -176t-179.5 -122.5t-195 -46q-61 0 -104.5 17t-71 47t-40 72t-12.5 92q0 75 27.5 164.5t73.5 180t107 175t128.5 150t137.5 105t134 39.5q25 0 45 -10.5
t33.5 -25.5t20.5 -32.5t7 -31.5q0 -19 -9.5 -30.5t-30.5 -11.5q-8 0 -11.5 0.5t-7.5 1.5q-4 0 -7.5 0.5t-6.5 0.5q-51 0 -107 -37.5t-110.5 -98t-104 -138t-87 -157.5t-59.5 -156.5t-22 -134.5q0 -48 18.5 -76.5t60.5 -28.5q50 0 102.5 28t105 76t102.5 113t95 139t83 154
t65.5 157.5t43 149.5t15.5 131q0 70 -26.5 112.5t-85.5 42.5q-83 0 -169.5 -33.5t-168 -86.5t-153 -119t-125.5 -131.5t-85 -123t-31 -94.5q0 -27 3 -40t7 -21q2 -8 4.5 -13.5t2.5 -16.5q0 -19 -13 -28.5t-34 -9.5q-20 0 -45.5 10t-48 30.5t-38 50.5t-15.5 71q0 59 35 128
t97 138.5t148 134t188.5 114t218 79.5t235.5 30zM607 1268q0 10 20 21.5t43.5 19t43.5 9t20 -7.5q0 -5 9 -19t23 -32.5t32 -38t37 -36t36.5 -27t31.5 -10.5q6 0 6.5 -11t-3.5 -24t-13 -24t-23 -11q-27 0 -57 11t-59 28t-56 38.5t-47 43t-32 40t-12 30.5z" />
    <glyph glyph-name="Oacute" unicode="&#xd3;" horiz-adv-x="1015" 
d="M751 1037q64 0 110.5 -21t76.5 -59t44 -90.5t14 -115.5q0 -91 -28.5 -197.5t-79.5 -213.5t-122 -206.5t-155.5 -176t-179.5 -122.5t-195 -46q-61 0 -104.5 17t-71 47t-40 72t-12.5 92q0 75 27.5 164.5t73.5 180t107 175t128.5 150t137.5 105t134 39.5q25 0 45 -10.5
t33.5 -25.5t20.5 -32.5t7 -31.5q0 -19 -9.5 -30.5t-30.5 -11.5q-8 0 -11.5 0.5t-7.5 1.5q-4 0 -7.5 0.5t-6.5 0.5q-51 0 -107 -37.5t-110.5 -98t-104 -138t-87 -157.5t-59.5 -156.5t-22 -134.5q0 -48 18.5 -76.5t60.5 -28.5q50 0 102.5 28t105 76t102.5 113t95 139t83 154
t65.5 157.5t43 149.5t15.5 131q0 70 -26.5 112.5t-85.5 42.5q-83 0 -169.5 -33.5t-168 -86.5t-153 -119t-125.5 -131.5t-85 -123t-31 -94.5q0 -27 3 -40t7 -21q2 -8 4.5 -13.5t2.5 -16.5q0 -19 -13 -28.5t-34 -9.5q-20 0 -45.5 10t-48 30.5t-38 50.5t-15.5 71q0 59 35 128
t97 138.5t148 134t188.5 114t218 79.5t235.5 30zM593 1132q6 0 23 10.5t38.5 26.5t45 35.5t43 38t32 33.5t12.5 22q0 8 18 5t39 -13t39 -23t18 -25q0 -9 -15.5 -26t-40 -36.5t-55.5 -40t-61.5 -37t-57.5 -27t-45 -10.5q-14 0 -22.5 10.5t-12.5 23t-3.5 23t5.5 10.5z" />
    <glyph glyph-name="Ocircumflex" unicode="&#xd4;" horiz-adv-x="1015" 
d="M751 1037q64 0 110.5 -21t76.5 -59t44 -90.5t14 -115.5q0 -91 -28.5 -197.5t-79.5 -213.5t-122 -206.5t-155.5 -176t-179.5 -122.5t-195 -46q-61 0 -104.5 17t-71 47t-40 72t-12.5 92q0 75 27.5 164.5t73.5 180t107 175t128.5 150t137.5 105t134 39.5q25 0 45 -10.5
t33.5 -25.5t20.5 -32.5t7 -31.5q0 -19 -9.5 -30.5t-30.5 -11.5q-8 0 -11.5 0.5t-7.5 1.5q-4 0 -7.5 0.5t-6.5 0.5q-51 0 -107 -37.5t-110.5 -98t-104 -138t-87 -157.5t-59.5 -156.5t-22 -134.5q0 -48 18.5 -76.5t60.5 -28.5q50 0 102.5 28t105 76t102.5 113t95 139t83 154
t65.5 157.5t43 149.5t15.5 131q0 70 -26.5 112.5t-85.5 42.5q-83 0 -169.5 -33.5t-168 -86.5t-153 -119t-125.5 -131.5t-85 -123t-31 -94.5q0 -27 3 -40t7 -21q2 -8 4.5 -13.5t2.5 -16.5q0 -19 -13 -28.5t-34 -9.5q-20 0 -45.5 10t-48 30.5t-38 50.5t-15.5 71q0 59 35 128
t97 138.5t148 134t188.5 114t218 79.5t235.5 30zM639 1161q3 0 14 9.5t26.5 24t33.5 32.5t36 35q29 30 53 52t35 22q7 0 23.5 -3t33.5 -9.5t30 -18.5t13 -30q0 -14 7.5 -31t18 -33.5t23 -32t21.5 -26.5q8 -11 14 -19.5t6 -14.5q0 -14 -12.5 -23t-23.5 -9q-16 0 -38.5 18.5
t-42.5 41.5q-25 26 -50 61q-14 -14 -35.5 -35t-45.5 -40t-49 -32.5t-45 -13.5q-14 0 -25 11.5t-17.5 26t-7.5 26t4 11.5z" />
    <glyph glyph-name="Otilde" unicode="&#xd5;" horiz-adv-x="1015" 
d="M751 1037q64 0 110.5 -21t76.5 -59t44 -90.5t14 -115.5q0 -91 -28.5 -197.5t-79.5 -213.5t-122 -206.5t-155.5 -176t-179.5 -122.5t-195 -46q-61 0 -104.5 17t-71 47t-40 72t-12.5 92q0 75 27.5 164.5t73.5 180t107 175t128.5 150t137.5 105t134 39.5q25 0 45 -10.5
t33.5 -25.5t20.5 -32.5t7 -31.5q0 -19 -9.5 -30.5t-30.5 -11.5q-8 0 -11.5 0.5t-7.5 1.5q-4 0 -7.5 0.5t-6.5 0.5q-51 0 -107 -37.5t-110.5 -98t-104 -138t-87 -157.5t-59.5 -156.5t-22 -134.5q0 -48 18.5 -76.5t60.5 -28.5q50 0 102.5 28t105 76t102.5 113t95 139t83 154
t65.5 157.5t43 149.5t15.5 131q0 70 -26.5 112.5t-85.5 42.5q-83 0 -169.5 -33.5t-168 -86.5t-153 -119t-125.5 -131.5t-85 -123t-31 -94.5q0 -27 3 -40t7 -21q2 -8 4.5 -13.5t2.5 -16.5q0 -19 -13 -28.5t-34 -9.5q-20 0 -45.5 10t-48 30.5t-38 50.5t-15.5 71q0 59 35 128
t97 138.5t148 134t188.5 114t218 79.5t235.5 30zM656 1126q-20 0 -31.5 16t-11.5 39q0 14 5 28.5t17 26.5t31 19.5t47 7.5q22 0 48 -5l52 -10q23 -5 41.5 -8.5t29.5 -3.5q13 0 17 2.5t6 5.5q3 5 5.5 9.5t16.5 4.5t25 -22.5t11 -52.5q0 -31 -21.5 -46.5t-56.5 -15.5
q-16 0 -34.5 3.5t-40.5 8.5q-29 7 -61.5 13t-61.5 6q-8 0 -12 -4q-2 -2 -2 -4z" />
    <glyph glyph-name="Odieresis" unicode="&#xd6;" horiz-adv-x="1015" 
d="M751 1037q64 0 110.5 -21t76.5 -59t44 -90.5t14 -115.5q0 -91 -28.5 -197.5t-79.5 -213.5t-122 -206.5t-155.5 -176t-179.5 -122.5t-195 -46q-61 0 -104.5 17t-71 47t-40 72t-12.5 92q0 75 27.5 164.5t73.5 180t107 175t128.5 150t137.5 105t134 39.5q25 0 45 -10.5
t33.5 -25.5t20.5 -32.5t7 -31.5q0 -19 -9.5 -30.5t-30.5 -11.5q-8 0 -11.5 0.5t-7.5 1.5q-4 0 -7.5 0.5t-6.5 0.5q-51 0 -107 -37.5t-110.5 -98t-104 -138t-87 -157.5t-59.5 -156.5t-22 -134.5q0 -48 18.5 -76.5t60.5 -28.5q50 0 102.5 28t105 76t102.5 113t95 139t83 154
t65.5 157.5t43 149.5t15.5 131q0 70 -26.5 112.5t-85.5 42.5q-83 0 -169.5 -33.5t-168 -86.5t-153 -119t-125.5 -131.5t-85 -123t-31 -94.5q0 -27 3 -40t7 -21q2 -8 4.5 -13.5t2.5 -16.5q0 -19 -13 -28.5t-34 -9.5q-20 0 -45.5 10t-48 30.5t-38 50.5t-15.5 71q0 59 35 128
t97 138.5t148 134t188.5 114t218 79.5t235.5 30zM698 1268q15 0 27.5 -5.5t21.5 -14t14.5 -19.5t5.5 -22q0 -17 -7.5 -34.5t-21.5 -32.5t-33.5 -24.5t-42.5 -9.5q-7 0 -17.5 3.5t-20.5 11t-17 18.5t-7 27q0 15 10 32.5t25 33t32 26t31 10.5zM894 1272q28 0 48.5 -19
t20.5 -41q0 -17 -7.5 -35t-21.5 -32.5t-33.5 -24t-43.5 -9.5q-7 0 -17.5 3.5t-20 11t-16.5 18.5t-7 27q0 15 9.5 32.5t24.5 32.5t32 25.5t32 10.5z" />
    <glyph glyph-name="multiply" unicode="&#xd7;" horiz-adv-x="540" 
d="M461 541q0 -14 -9.5 -32t-24.5 -38t-34.5 -41.5t-39.5 -40.5l21.5 -43t19.5 -38q10 -19 17 -33.5t7 -19.5q0 -19 -7.5 -26.5t-21.5 -7.5q-17 0 -49 28t-64 72q-6 -5 -12.5 -10t-11.5 -10q-35 -32 -60 -54.5t-25 -27.5q0 -3 1 -5q0 -2 0.5 -5.5t0.5 -5.5q0 -7 -16.5 -3
t-36 15t-36 26.5t-16.5 31.5q0 14 12 32.5t32.5 39t46 42.5t52.5 43q-17 35 -26 66t-9 62q0 10 18.5 9t42 -9.5t45.5 -22t29 -28.5q34 26 56 44t22 23q0 10 12 12t26 -2.5t26 -15.5t12 -27z" />
    <glyph glyph-name="Oslash" unicode="&#xd8;" horiz-adv-x="1015" 
d="M901 1064q0 -8 -5.5 -22.5t-15.5 -36.5q60 -36 87.5 -101.5t27.5 -152.5q0 -89 -27.5 -193.5t-77 -209t-118 -202.5t-150 -175t-174 -126t-189.5 -55q-23 -54 -35.5 -90.5t-12.5 -53.5q0 -13 -18 -10t-39.5 16.5t-39.5 34.5t-18 45q0 10 6.5 30.5t17.5 48.5
q-61 27 -87 80.5t-26 125.5q0 56 15.5 121t43.5 133t66 136t83 130t95.5 116t102 93.5t103 62t99.5 22.5h10t9 -1q19 40 33.5 70t30.5 65q-81 -8 -163.5 -44.5t-159.5 -90t-144.5 -117.5t-117.5 -126t-79 -117t-29 -90q0 -27 3 -40t7 -21q2 -8 4.5 -13.5t2.5 -16.5
q0 -19 -13 -28.5t-34 -9.5q-20 0 -45 10t-48 30.5t-38.5 50.5t-15.5 71q0 58 34 126t94.5 136.5t144 132.5t183.5 114t213 81t231 34q35 81 35 112q0 13 21.5 10.5t47.5 -15.5t47.5 -34.5t21.5 -45.5zM371 310q45 87 90.5 175t88.5 173q-47 -29 -94.5 -77.5t-91 -108.5
t-81 -128t-65.5 -134.5t-44 -128.5t-16 -111q0 -18 2 -33t7 -27q38 80 91 182.5t113 217.5zM640 536q-45 -85 -92 -173t-91.5 -173.5t-85 -165.5t-73.5 -148q64 21 129.5 78.5t127 137.5t115 175.5t94 192.5t63.5 188.5t23 164.5q0 26 -4 49.5t-12 41.5
q-36 -72 -86.5 -166.5t-107.5 -201.5z" />
    <glyph glyph-name="Ugrave" unicode="&#xd9;" horiz-adv-x="938" 
d="M657 15q0 -56 6 -91.5t15 -57t19.5 -32.5t18.5 -18h-1q11 -8 18 -16t7 -22q0 -18 -14.5 -27.5t-38.5 -9.5q-25 0 -58.5 14t-64 48.5t-52 92t-21.5 145.5q0 34 12 80t31.5 98t44 107t49.5 108q-39 -62 -81 -125.5t-85.5 -123t-87.5 -112.5t-86 -93.5t-81.5 -66
t-73.5 -30.5q-4 -2 -8.5 -1.5t-10.5 0.5q-18 2 -40.5 16t-42 41.5t-32.5 68t-13 96.5q0 33 14.5 80.5t38 104.5t53.5 122t62 132q33 70 65.5 139.5t58 132t41.5 115t16 88.5q0 23 -9 36.5t-32 13.5q-48 0 -100 -26t-102.5 -69.5t-96 -99.5t-79.5 -115.5t-54.5 -118
t-20.5 -106.5t4.5 -80.5t11.5 -54.5t14 -34.5t13 -20.5q5 -7 9.5 -13.5t4.5 -17.5q0 -12 -13 -20.5t-33 -8.5q-22 0 -53.5 11.5t-61 42.5t-50 85.5t-20.5 139.5q0 71 26 141t71.5 134t107.5 118t135 94t154 62.5t164 22.5q57 0 88.5 -23.5t46.5 -57t17.5 -69.5t1.5 -60v-11
q0 -41 -15 -92t-39 -108.5t-55 -120t-63 -126.5q-32 -62 -62 -122.5t-53.5 -116t-38 -103.5t-14.5 -84q0 -31 2 -45.5t6 -22.5q36 19 82 67.5t98 115t106.5 145t105.5 157.5q121 186 250 409q0 5 -2 13q-2 13 -2.5 22t4.5 15t17 9t35 3q21 0 41 -8.5t35 -23.5t24.5 -36.5
t9.5 -46.5q0 -39 -14 -89.5t-36.5 -106t-49.5 -112.5t-52 -108q-27 -53 -52.5 -106t-45.5 -102.5t-32 -93.5t-12 -80zM505 1166q0 10 20 21.5t43.5 19t43.5 9t20 -7.5q0 -5 9 -19t23 -32.5t32 -38t37 -36t36.5 -27t31.5 -10.5q6 0 6.5 -11t-3.5 -24t-13 -24t-23 -11
q-27 0 -57 11t-59 28t-56 38.5t-47 43t-32 40t-12 30.5z" />
    <glyph glyph-name="Uacute" unicode="&#xda;" horiz-adv-x="938" 
d="M657 15q0 -56 6 -91.5t15 -57t19.5 -32.5t18.5 -18h-1q11 -8 18 -16t7 -22q0 -18 -14.5 -27.5t-38.5 -9.5q-25 0 -58.5 14t-64 48.5t-52 92t-21.5 145.5q0 34 12 80t31.5 98t44 107t49.5 108q-39 -62 -81 -125.5t-85.5 -123t-87.5 -112.5t-86 -93.5t-81.5 -66
t-73.5 -30.5q-4 -2 -8.5 -1.5t-10.5 0.5q-18 2 -40.5 16t-42 41.5t-32.5 68t-13 96.5q0 33 14.5 80.5t38 104.5t53.5 122t62 132q33 70 65.5 139.5t58 132t41.5 115t16 88.5q0 23 -9 36.5t-32 13.5q-48 0 -100 -26t-102.5 -69.5t-96 -99.5t-79.5 -115.5t-54.5 -118
t-20.5 -106.5t4.5 -80.5t11.5 -54.5t14 -34.5t13 -20.5q5 -7 9.5 -13.5t4.5 -17.5q0 -12 -13 -20.5t-33 -8.5q-22 0 -53.5 11.5t-61 42.5t-50 85.5t-20.5 139.5q0 71 26 141t71.5 134t107.5 118t135 94t154 62.5t164 22.5q57 0 88.5 -23.5t46.5 -57t17.5 -69.5t1.5 -60v-11
q0 -41 -15 -92t-39 -108.5t-55 -120t-63 -126.5q-32 -62 -62 -122.5t-53.5 -116t-38 -103.5t-14.5 -84q0 -31 2 -45.5t6 -22.5q36 19 82 67.5t98 115t106.5 145t105.5 157.5q121 186 250 409q0 5 -2 13q-2 13 -2.5 22t4.5 15t17 9t35 3q21 0 41 -8.5t35 -23.5t24.5 -36.5
t9.5 -46.5q0 -39 -14 -89.5t-36.5 -106t-49.5 -112.5t-52 -108q-27 -53 -52.5 -106t-45.5 -102.5t-32 -93.5t-12 -80zM562 1039q6 0 23 10.5t38.5 26.5t45 35.5t43 38t32 33.5t12.5 22q0 8 18 5t39 -13t39 -23t18 -25q0 -9 -15.5 -26t-40 -36.5t-55.5 -40t-61.5 -37
t-57.5 -27t-45 -10.5q-14 0 -22.5 10.5t-12.5 23t-3.5 23t5.5 10.5z" />
    <glyph glyph-name="Ucircumflex" unicode="&#xdb;" horiz-adv-x="938" 
d="M657 15q0 -56 6 -91.5t15 -57t19.5 -32.5t18.5 -18h-1q11 -8 18 -16t7 -22q0 -18 -14.5 -27.5t-38.5 -9.5q-25 0 -58.5 14t-64 48.5t-52 92t-21.5 145.5q0 34 12 80t31.5 98t44 107t49.5 108q-39 -62 -81 -125.5t-85.5 -123t-87.5 -112.5t-86 -93.5t-81.5 -66
t-73.5 -30.5q-4 -2 -8.5 -1.5t-10.5 0.5q-18 2 -40.5 16t-42 41.5t-32.5 68t-13 96.5q0 33 14.5 80.5t38 104.5t53.5 122t62 132q33 70 65.5 139.5t58 132t41.5 115t16 88.5q0 23 -9 36.5t-32 13.5q-48 0 -100 -26t-102.5 -69.5t-96 -99.5t-79.5 -115.5t-54.5 -118
t-20.5 -106.5t4.5 -80.5t11.5 -54.5t14 -34.5t13 -20.5q5 -7 9.5 -13.5t4.5 -17.5q0 -12 -13 -20.5t-33 -8.5q-22 0 -53.5 11.5t-61 42.5t-50 85.5t-20.5 139.5q0 71 26 141t71.5 134t107.5 118t135 94t154 62.5t164 22.5q57 0 88.5 -23.5t46.5 -57t17.5 -69.5t1.5 -60v-11
q0 -41 -15 -92t-39 -108.5t-55 -120t-63 -126.5q-32 -62 -62 -122.5t-53.5 -116t-38 -103.5t-14.5 -84q0 -31 2 -45.5t6 -22.5q36 19 82 67.5t98 115t106.5 145t105.5 157.5q121 186 250 409q0 5 -2 13q-2 13 -2.5 22t4.5 15t17 9t35 3q21 0 41 -8.5t35 -23.5t24.5 -36.5
t9.5 -46.5q0 -39 -14 -89.5t-36.5 -106t-49.5 -112.5t-52 -108q-27 -53 -52.5 -106t-45.5 -102.5t-32 -93.5t-12 -80zM534 1072q3 0 14 9.5t26.5 24t33.5 32.5t36 35q29 30 53 52t35 22q7 0 23.5 -3t33.5 -9.5t30 -18.5t13 -30q0 -14 7.5 -31t18 -33.5t23 -32t21.5 -26.5
q8 -11 14 -19.5t6 -14.5q0 -14 -12.5 -23t-23.5 -9q-16 0 -38.5 18.5t-42.5 41.5q-25 26 -50 61q-14 -14 -35.5 -35t-45.5 -40t-49 -32.5t-45 -13.5q-14 0 -25 11.5t-17.5 26t-7.5 26t4 11.5z" />
    <glyph glyph-name="Udieresis" unicode="&#xdc;" horiz-adv-x="938" 
d="M657 15q0 -56 6 -91.5t15 -57t19.5 -32.5t18.5 -18h-1q11 -8 18 -16t7 -22q0 -18 -14.5 -27.5t-38.5 -9.5q-25 0 -58.5 14t-64 48.5t-52 92t-21.5 145.5q0 34 12 80t31.5 98t44 107t49.5 108q-39 -62 -81 -125.5t-85.5 -123t-87.5 -112.5t-86 -93.5t-81.5 -66
t-73.5 -30.5q-4 -2 -8.5 -1.5t-10.5 0.5q-18 2 -40.5 16t-42 41.5t-32.5 68t-13 96.5q0 33 14.5 80.5t38 104.5t53.5 122t62 132q33 70 65.5 139.5t58 132t41.5 115t16 88.5q0 23 -9 36.5t-32 13.5q-48 0 -100 -26t-102.5 -69.5t-96 -99.5t-79.5 -115.5t-54.5 -118
t-20.5 -106.5t4.5 -80.5t11.5 -54.5t14 -34.5t13 -20.5q5 -7 9.5 -13.5t4.5 -17.5q0 -12 -13 -20.5t-33 -8.5q-22 0 -53.5 11.5t-61 42.5t-50 85.5t-20.5 139.5q0 71 26 141t71.5 134t107.5 118t135 94t154 62.5t164 22.5q57 0 88.5 -23.5t46.5 -57t17.5 -69.5t1.5 -60v-11
q0 -41 -15 -92t-39 -108.5t-55 -120t-63 -126.5q-32 -62 -62 -122.5t-53.5 -116t-38 -103.5t-14.5 -84q0 -31 2 -45.5t6 -22.5q36 19 82 67.5t98 115t106.5 145t105.5 157.5q121 186 250 409q0 5 -2 13q-2 13 -2.5 22t4.5 15t17 9t35 3q21 0 41 -8.5t35 -23.5t24.5 -36.5
t9.5 -46.5q0 -39 -14 -89.5t-36.5 -106t-49.5 -112.5t-52 -108q-27 -53 -52.5 -106t-45.5 -102.5t-32 -93.5t-12 -80zM614 1139q15 0 27.5 -5.5t21.5 -14t14.5 -19.5t5.5 -22q0 -17 -7.5 -34.5t-21.5 -32.5t-33.5 -24.5t-42.5 -9.5q-7 0 -17.5 3.5t-20.5 11t-17 18.5t-7 27
q0 15 10 32.5t25 33t32 26t31 10.5zM810 1143q28 0 48.5 -19t20.5 -41q0 -17 -7.5 -35t-21.5 -32.5t-33.5 -24t-43.5 -9.5q-7 0 -17.5 3.5t-20 11t-16.5 18.5t-7 27q0 15 9.5 32.5t24.5 32.5t32 25.5t32 10.5z" />
    <glyph glyph-name="Yacute" unicode="&#xdd;" horiz-adv-x="884" 
d="M962 729q0 -21 -11.5 -50t-32 -65.5t-48 -79.5t-59.5 -91q-55 -83 -116.5 -180.5t-113 -201.5t-85 -211t-33.5 -209q0 -45 7.5 -75t14.5 -47q7 -18 10.5 -30t0.5 -19t-14 -10t-34 -3q-26 0 -54.5 9.5t-52.5 33t-40 63.5t-16 101q0 49 8 98t24 101t40 108.5t56 119.5
l-11 -17q-31 -45 -60 -84.5t-58 -69.5t-58 -47.5t-59 -17.5h-11q-43 0 -74 23t-50.5 58.5t-28.5 79t-9 84.5q0 83 21.5 166.5t53.5 161t69 146.5t69 125q29 52 49.5 89.5t20.5 55.5v9q0 13 0.5 24t4 18.5t12.5 12t26 4.5q22 0 42 -10t34.5 -27.5t23 -41t8.5 -49.5
q0 -21 -20 -59t-49 -91q-29 -51 -62.5 -114t-62.5 -134t-48.5 -148t-19.5 -155q0 -34 5 -65t13 -54q20 8 57.5 46.5t85.5 96t103 129.5t109.5 147.5t104.5 149.5t88 135t61 105t23 59q0 12 0.5 22.5t5 18t14.5 12t29 4.5q18 0 35.5 -9t31 -28.5t22 -49.5t8.5 -73zM503 909
q6 0 23 10.5t38.5 26.5t45 35.5t43 38t32 33.5t12.5 22q0 8 18 5t39 -13t39 -23t18 -25q0 -9 -15.5 -26t-40 -36.5t-55.5 -40t-61.5 -37t-57.5 -27t-45 -10.5q-14 0 -22.5 10.5t-12.5 23t-3.5 23t5.5 10.5z" />
    <glyph glyph-name="germandbls" unicode="&#xdf;" horiz-adv-x="561" 
d="M541 685q0 -35 -12 -78t-32 -86.5t-45.5 -83.5t-51.5 -68q26 -21 44.5 -55.5t18.5 -86.5q0 -55 -18 -101t-49.5 -79.5t-73.5 -52t-90 -18.5q-50 0 -82 16t-51 38t-26.5 45.5t-7.5 38.5q0 18 9.5 34.5t22.5 26.5t27 12.5t24 -7.5q16 -16 14.5 -26t-6.5 -21l1 1
q-2 -4 -2 -11t4 -18t11.5 -22t19 -19t27.5 -8q22 0 43 19.5t37 48t25.5 59.5t9.5 54q0 31 -13 54.5t-31 36.5q-8 2 -17 5t-17 5h-2q-1 0 -1 1q-23 12 -35 24.5t-13.5 23t6.5 17t26 6.5q36 0 71.5 35.5t63 88.5t45 113.5t17.5 111.5v30q-15 0 -44 -25.5t-65 -70.5
t-77.5 -106.5t-82.5 -133.5t-78 -150.5t-66 -158t-46 -157t-17 -146.5q0 -27 5 -51t11 -44q5 -18 8 -33t1.5 -25.5t-9.5 -16t-25 -5.5q-29 0 -56 15t-48 41t-34 60.5t-13 73.5q0 62 16 139t44.5 160.5t67 169t83.5 166t94 150.5t98.5 122.5t97.5 82.5t91 30q38 0 66.5 -10
t48 -32.5t29 -59t9.5 -89.5z" />
    <glyph glyph-name="agrave" unicode="&#xe0;" horiz-adv-x="678" 
d="M-48 197q0 43 14.5 89.5t40 91.5t60.5 85.5t75.5 71t84.5 48.5t88 18q38 0 64.5 -10.5t43.5 -27t26 -36.5t12.5 -38.5t2.5 -33.5t-4 -21h1q-3 -8 -12.5 -7.5t-19 4t-17 9t-6.5 8.5q1 2 0.5 11t-6 18.5t-18 17t-35.5 7.5q-24 0 -51.5 -21t-54.5 -54.5t-52 -76t-43.5 -86
t-30 -84t-11.5 -69.5q0 -36 21 -36q25 0 51 22t50.5 56t45.5 75t37 78t25 65t9 37t10 11t25 -2t33 -11.5t33 -17t25 -20t10 -18.5q0 -11 -10.5 -36t-24.5 -57q-10 -22 -20.5 -46t-19 -47t-14 -43t-5.5 -33q0 -5 -1 -5q14 0 35.5 23.5t46.5 60t50.5 80.5t48 85.5t39.5 75
t25 49.5q4 8 15.5 8t22.5 -4.5t18.5 -12.5t4.5 -16q-9 -20 -29.5 -60t-47.5 -88t-58.5 -98.5t-64 -91.5t-63.5 -67.5t-57 -26.5q-29 0 -50.5 14.5t-36.5 31.5q-18 20 -30 47q-12 -14 -28 -30t-34.5 -30t-39 -23.5t-40.5 -9.5q-39 0 -68.5 17.5t-49.5 46t-30.5 63.5t-10.5 70
zM177 819q0 11 19.5 22t43.5 18.5t43.5 9t19.5 -6.5q0 -5 8.5 -19.5t22.5 -32.5t32 -37.5t37 -36t36.5 -27t31.5 -10.5q5 0 5.5 -11t-3.5 -23.5t-13 -23.5t-22 -11q-40 0 -86 23t-85 54.5t-64.5 63t-25.5 48.5z" />
    <glyph glyph-name="aacute" unicode="&#xe1;" horiz-adv-x="678" 
d="M-48 197q0 43 14.5 89.5t40 91.5t60.5 85.5t75.5 71t84.5 48.5t88 18q38 0 64.5 -10.5t43.5 -27t26 -36.5t12.5 -38.5t2.5 -33.5t-4 -21h1q-3 -8 -12.5 -7.5t-19 4t-17 9t-6.5 8.5q1 2 0.5 11t-6 18.5t-18 17t-35.5 7.5q-24 0 -51.5 -21t-54.5 -54.5t-52 -76t-43.5 -86
t-30 -84t-11.5 -69.5q0 -36 21 -36q25 0 51 22t50.5 56t45.5 75t37 78t25 65t9 37t10 11t25 -2t33 -11.5t33 -17t25 -20t10 -18.5q0 -11 -10.5 -36t-24.5 -57q-10 -22 -20.5 -46t-19 -47t-14 -43t-5.5 -33q0 -5 -1 -5q14 0 35.5 23.5t46.5 60t50.5 80.5t48 85.5t39.5 75
t25 49.5q4 8 15.5 8t22.5 -4.5t18.5 -12.5t4.5 -16q-9 -20 -29.5 -60t-47.5 -88t-58.5 -98.5t-64 -91.5t-63.5 -67.5t-57 -26.5q-29 0 -50.5 14.5t-36.5 31.5q-18 20 -30 47q-12 -14 -28 -30t-34.5 -30t-39 -23.5t-40.5 -9.5q-39 0 -68.5 17.5t-49.5 46t-30.5 63.5t-10.5 70
zM216 703q6 0 23 10.5t38.5 26.5t45 35.5t43 38t32 33.5t12.5 22q0 8 18 5t39 -13t39 -23t18 -25q0 -9 -15.5 -26t-40 -36.5t-55.5 -40t-61.5 -37t-57.5 -27t-45 -10.5q-14 0 -22.5 10.5t-12.5 23t-3.5 23t5.5 10.5z" />
    <glyph glyph-name="acircumflex" unicode="&#xe2;" horiz-adv-x="678" 
d="M-48 197q0 43 14.5 89.5t40 91.5t60.5 85.5t75.5 71t84.5 48.5t88 18q38 0 64.5 -10.5t43.5 -27t26 -36.5t12.5 -38.5t2.5 -33.5t-4 -21h1q-3 -8 -12.5 -7.5t-19 4t-17 9t-6.5 8.5q1 2 0.5 11t-6 18.5t-18 17t-35.5 7.5q-24 0 -51.5 -21t-54.5 -54.5t-52 -76t-43.5 -86
t-30 -84t-11.5 -69.5q0 -36 21 -36q25 0 51 22t50.5 56t45.5 75t37 78t25 65t9 37t10 11t25 -2t33 -11.5t33 -17t25 -20t10 -18.5q0 -11 -10.5 -36t-24.5 -57q-10 -22 -20.5 -46t-19 -47t-14 -43t-5.5 -33q0 -5 -1 -5q14 0 35.5 23.5t46.5 60t50.5 80.5t48 85.5t39.5 75
t25 49.5q4 8 15.5 8t22.5 -4.5t18.5 -12.5t4.5 -16q-9 -20 -29.5 -60t-47.5 -88t-58.5 -98.5t-64 -91.5t-63.5 -67.5t-57 -26.5q-29 0 -50.5 14.5t-36.5 31.5q-18 20 -30 47q-12 -14 -28 -30t-34.5 -30t-39 -23.5t-40.5 -9.5q-39 0 -68.5 17.5t-49.5 46t-30.5 63.5t-10.5 70
zM133 698q3 0 14 9.5t26.5 24t33.5 32.5t36 35q29 30 53 52t35 22q7 0 23.5 -3t33.5 -9.5t30 -18.5t13 -30q0 -14 7.5 -31t18 -33.5t23 -32t21.5 -26.5q8 -11 14 -19.5t6 -14.5q0 -14 -12.5 -23t-23.5 -9q-16 0 -38.5 18.5t-42.5 41.5q-25 26 -50 61q-14 -14 -35.5 -35
t-45.5 -40t-49 -32.5t-45 -13.5q-14 0 -25 11.5t-17.5 26t-7.5 26t4 11.5z" />
    <glyph glyph-name="atilde" unicode="&#xe3;" horiz-adv-x="678" 
d="M-48 197q0 43 14.5 89.5t40 91.5t60.5 85.5t75.5 71t84.5 48.5t88 18q38 0 64.5 -10.5t43.5 -27t26 -36.5t12.5 -38.5t2.5 -33.5t-4 -21h1q-3 -8 -12.5 -7.5t-19 4t-17 9t-6.5 8.5q1 2 0.5 11t-6 18.5t-18 17t-35.5 7.5q-24 0 -51.5 -21t-54.5 -54.5t-52 -76t-43.5 -86
t-30 -84t-11.5 -69.5q0 -36 21 -36q25 0 51 22t50.5 56t45.5 75t37 78t25 65t9 37t10 11t25 -2t33 -11.5t33 -17t25 -20t10 -18.5q0 -11 -10.5 -36t-24.5 -57q-10 -22 -20.5 -46t-19 -47t-14 -43t-5.5 -33q0 -5 -1 -5q14 0 35.5 23.5t46.5 60t50.5 80.5t48 85.5t39.5 75
t25 49.5q4 8 15.5 8t22.5 -4.5t18.5 -12.5t4.5 -16q-9 -20 -29.5 -60t-47.5 -88t-58.5 -98.5t-64 -91.5t-63.5 -67.5t-57 -26.5q-29 0 -50.5 14.5t-36.5 31.5q-18 20 -30 47q-12 -14 -28 -30t-34.5 -30t-39 -23.5t-40.5 -9.5q-39 0 -68.5 17.5t-49.5 46t-30.5 63.5t-10.5 70
zM207 669q-20 0 -31.5 16t-11.5 39q0 14 5 28.5t17 26.5t31 19.5t47 7.5q22 0 48 -5l52 -10q23 -5 41.5 -8.5t29.5 -3.5q13 0 17 2.5t6 5.5q3 5 5.5 9.5t16.5 4.5t25 -22.5t11 -52.5q0 -31 -21.5 -46.5t-56.5 -15.5q-16 0 -34.5 3.5t-40.5 8.5q-29 7 -61.5 13t-61.5 6
q-8 0 -12 -4q-2 -2 -2 -4z" />
    <glyph glyph-name="adieresis" unicode="&#xe4;" horiz-adv-x="678" 
d="M-48 197q0 43 14.5 89.5t40 91.5t60.5 85.5t75.5 71t84.5 48.5t88 18q38 0 64.5 -10.5t43.5 -27t26 -36.5t12.5 -38.5t2.5 -33.5t-4 -21h1q-3 -8 -12.5 -7.5t-19 4t-17 9t-6.5 8.5q1 2 0.5 11t-6 18.5t-18 17t-35.5 7.5q-24 0 -51.5 -21t-54.5 -54.5t-52 -76t-43.5 -86
t-30 -84t-11.5 -69.5q0 -36 21 -36q25 0 51 22t50.5 56t45.5 75t37 78t25 65t9 37t10 11t25 -2t33 -11.5t33 -17t25 -20t10 -18.5q0 -11 -10.5 -36t-24.5 -57q-10 -22 -20.5 -46t-19 -47t-14 -43t-5.5 -33q0 -5 -1 -5q14 0 35.5 23.5t46.5 60t50.5 80.5t48 85.5t39.5 75
t25 49.5q4 8 15.5 8t22.5 -4.5t18.5 -12.5t4.5 -16q-9 -20 -29.5 -60t-47.5 -88t-58.5 -98.5t-64 -91.5t-63.5 -67.5t-57 -26.5q-29 0 -50.5 14.5t-36.5 31.5q-18 20 -30 47q-12 -14 -28 -30t-34.5 -30t-39 -23.5t-40.5 -9.5q-39 0 -68.5 17.5t-49.5 46t-30.5 63.5t-10.5 70
zM242 829q15 0 27.5 -5.5t21.5 -14t14.5 -19.5t5.5 -22q0 -17 -7.5 -34.5t-21.5 -32.5t-33.5 -24.5t-42.5 -9.5q-7 0 -17.5 3.5t-20.5 11t-17 18.5t-7 27q0 15 10 32.5t25 33t32 26t31 10.5zM438 833q28 0 48.5 -19t20.5 -41q0 -17 -7.5 -35t-21.5 -32.5t-33.5 -24
t-43.5 -9.5q-7 0 -17.5 3.5t-20 11t-16.5 18.5t-7 27q0 15 9.5 32.5t24.5 32.5t32 25.5t32 10.5z" />
    <glyph glyph-name="aring" unicode="&#xe5;" horiz-adv-x="678" 
d="M-48 197q0 43 14.5 89.5t40 91.5t60.5 85.5t75.5 71t84.5 48.5t88 18q38 0 64.5 -10.5t43.5 -27t26 -36.5t12.5 -38.5t2.5 -33.5t-4 -21h1q-3 -8 -12.5 -7.5t-19 4t-17 9t-6.5 8.5q1 2 0.5 11t-6 18.5t-18 17t-35.5 7.5q-24 0 -51.5 -21t-54.5 -54.5t-52 -76t-43.5 -86
t-30 -84t-11.5 -69.5q0 -36 21 -36q25 0 51 22t50.5 56t45.5 75t37 78t25 65t9 37t10 11t25 -2t33 -11.5t33 -17t25 -20t10 -18.5q0 -11 -10.5 -36t-24.5 -57q-10 -22 -20.5 -46t-19 -47t-14 -43t-5.5 -33q0 -5 -1 -5q14 0 35.5 23.5t46.5 60t50.5 80.5t48 85.5t39.5 75
t25 49.5q4 8 15.5 8t22.5 -4.5t18.5 -12.5t4.5 -16q-9 -20 -29.5 -60t-47.5 -88t-58.5 -98.5t-64 -91.5t-63.5 -67.5t-57 -26.5q-29 0 -50.5 14.5t-36.5 31.5q-18 20 -30 47q-12 -14 -28 -30t-34.5 -30t-39 -23.5t-40.5 -9.5q-39 0 -68.5 17.5t-49.5 46t-30.5 63.5t-10.5 70
zM354 918q22 0 42 -8.5t34.5 -22t23 -30.5t8.5 -34q0 -27 -12 -56t-34.5 -53t-54 -39.5t-69.5 -15.5q-11 0 -27 5.5t-31 17t-25.5 29.5t-10.5 42q0 22 15.5 51t39 54t51 42.5t50.5 17.5zM366 827q-11 -5 -23.5 -17t-24 -26t-20 -29t-11.5 -26q15 4 29 14.5t24.5 24.5
t17.5 29.5t8 29.5z" />
    <glyph glyph-name="ae" unicode="&#xe6;" horiz-adv-x="914" 
d="M856 453q4 8 15.5 8.5t22.5 -4t18.5 -12.5t4.5 -16q-9 -19 -28.5 -55.5t-48 -81.5t-65.5 -92.5t-80.5 -88.5t-93.5 -71t-104 -38q-7 -2 -14 -2.5t-17 -0.5q-42 0 -75 19.5t-56 42.5q-27 27 -48 62q-12 -18 -29.5 -39.5t-39.5 -40t-48.5 -31.5t-55.5 -13q-39 0 -68.5 17.5
t-49.5 46t-30 63.5t-10 70q0 43 14.5 89.5t40 91.5t60.5 85.5t75.5 71t84.5 48.5t88 18q28 0 50 -6t38.5 -16.5t28 -24t18.5 -27.5q48 33 102 53t108 20q47 0 67 -21t20 -56q0 -26 -13.5 -59.5t-36 -69.5t-53 -71t-64 -64t-68.5 -49.5t-67 -27.5q-4 -19 -4 -38q0 -44 28 -52
h7q44 0 87 22.5t82 57.5t73.5 77.5t61.5 83t45.5 73t26.5 48.5zM677 528q-25 0 -53 -23.5t-56 -61t-52.5 -84.5t-41.5 -93q36 18 73 52t67 72t49 74t19 58q0 6 -5 6zM128 74q17 0 36 13.5t38 35t37.5 49.5t34.5 58q4 68 38 133.5t88 117.5q-5 8 -16.5 14t-32.5 6
q-24 0 -51.5 -21t-54.5 -54.5t-52 -76t-43.5 -86t-30 -84t-11.5 -69.5q0 -36 20 -36z" />
    <glyph glyph-name="ccedilla" unicode="&#xe7;" horiz-adv-x="507" 
d="M465 456q10 18 24 23.5t25 1.5t16 -17.5t-4 -32.5q-9 -18 -26.5 -50.5t-42.5 -73t-57.5 -84t-70 -83.5t-80 -73t-87.5 -50q13 -11 20.5 -28.5t7.5 -42.5q0 -30 -15.5 -58.5t-40.5 -51t-55 -36.5t-59 -14q-22 0 -39 7t-30 17t-21.5 21.5t-12.5 21.5t2.5 17t16 9t19.5 -1
t14 -13q1 -2 4.5 -5t10.5 -3q28 0 52.5 10t42 26.5t27.5 37t10 40.5q0 14 -13 14q-10 0 -22.5 -3.5t-23.5 -6.5q-11 -4 -19.5 -6.5t-15.5 -2.5q-13 0 -19 5t-7.5 12.5t1.5 16t8 16.5q-30 13 -52.5 36t-37.5 50.5t-22.5 57.5t-7.5 58q0 70 34 138.5t89.5 123t125.5 88
t142 33.5q49 0 66.5 -27t17.5 -64q0 -32 -8.5 -61.5t-12.5 -43.5q0 -1 -0.5 -1t-0.5 -1v-1q-3 -8 -14 -10t-23 0.5t-20 8.5t-5 14v-1q5 16 9 34q4 15 7 32.5t3 32.5q0 10 -1 16.5t-5 6.5q-23 0 -49.5 -20t-52 -53t-49 -75.5t-42 -86t-29 -85t-10.5 -73.5q0 -23 8 -37.5
t26 -14.5q46 0 89 22.5t82 58t73 78t60 83t44 73.5t26 49v1z" />
    <glyph glyph-name="egrave" unicode="&#xe8;" horiz-adv-x="588" 
d="M544 453q4 8 15.5 8t22.5 -4.5t18.5 -12.5t4.5 -16q-10 -20 -30.5 -59.5t-51 -87t-69.5 -97.5t-86 -91t-101 -67t-113 -26q-50 0 -86 21t-60 53t-35.5 70t-11.5 73q0 70 34 138.5t89.5 122.5t125 87.5t141.5 33.5q47 0 67.5 -21t20.5 -56q0 -26 -13.5 -59.5t-36.5 -69.5
t-53 -71t-63.5 -64t-68.5 -49.5t-67 -27.5q-4 -19 -4 -38q0 -23 8 -37.5t27 -14.5q44 0 87 22.5t82 57.5t73.5 77.5t61.5 83t45.5 73t26.5 48.5zM364 528q-24 0 -52.5 -23.5t-56 -61t-52 -84.5t-41.5 -93q36 18 73 52t67 72t48.5 74t18.5 58q0 6 -5 6zM117 827q0 10 20 21.5
t43.5 19t43.5 9t20 -7.5q0 -5 9 -19t23 -32.5t32 -38t37 -36t36.5 -27t31.5 -10.5q6 0 6.5 -11t-3.5 -24t-13 -24t-23 -11q-27 0 -57 11t-59 28t-56 38.5t-47 43t-32 40t-12 30.5z" />
    <glyph glyph-name="eacute" unicode="&#xe9;" horiz-adv-x="588" 
d="M544 453q4 8 15.5 8t22.5 -4.5t18.5 -12.5t4.5 -16q-10 -20 -30.5 -59.5t-51 -87t-69.5 -97.5t-86 -91t-101 -67t-113 -26q-50 0 -86 21t-60 53t-35.5 70t-11.5 73q0 70 34 138.5t89.5 122.5t125 87.5t141.5 33.5q47 0 67.5 -21t20.5 -56q0 -26 -13.5 -59.5t-36.5 -69.5
t-53 -71t-63.5 -64t-68.5 -49.5t-67 -27.5q-4 -19 -4 -38q0 -23 8 -37.5t27 -14.5q44 0 87 22.5t82 57.5t73.5 77.5t61.5 83t45.5 73t26.5 48.5zM364 528q-24 0 -52.5 -23.5t-56 -61t-52 -84.5t-41.5 -93q36 18 73 52t67 72t48.5 74t18.5 58q0 6 -5 6zM171 703q6 0 23 10.5
t38.5 26.5t45 35.5t43 38t32 33.5t12.5 22q0 8 18 5t39 -13t39 -23t18 -25q0 -9 -15.5 -26t-40 -36.5t-55.5 -40t-61.5 -37t-57.5 -27t-45 -10.5q-14 0 -22.5 10.5t-12.5 23t-3.5 23t5.5 10.5z" />
    <glyph glyph-name="ecircumflex" unicode="&#xea;" horiz-adv-x="588" 
d="M544 453q4 8 15.5 8t22.5 -4.5t18.5 -12.5t4.5 -16q-10 -20 -30.5 -59.5t-51 -87t-69.5 -97.5t-86 -91t-101 -67t-113 -26q-50 0 -86 21t-60 53t-35.5 70t-11.5 73q0 70 34 138.5t89.5 122.5t125 87.5t141.5 33.5q47 0 67.5 -21t20.5 -56q0 -26 -13.5 -59.5t-36.5 -69.5
t-53 -71t-63.5 -64t-68.5 -49.5t-67 -27.5q-4 -19 -4 -38q0 -23 8 -37.5t27 -14.5q44 0 87 22.5t82 57.5t73.5 77.5t61.5 83t45.5 73t26.5 48.5zM364 528q-24 0 -52.5 -23.5t-56 -61t-52 -84.5t-41.5 -93q36 18 73 52t67 72t48.5 74t18.5 58q0 6 -5 6zM141 698q3 0 14 9.5
t26.5 24t33.5 32.5t36 35q29 30 53 52t35 22q7 0 23.5 -3t33.5 -9.5t30 -18.5t13 -30q0 -14 7.5 -31t18 -33.5t23 -32t21.5 -26.5q8 -11 14 -19.5t6 -14.5q0 -14 -12.5 -23t-23.5 -9q-16 0 -38.5 18.5t-42.5 41.5q-25 26 -50 61q-14 -14 -35.5 -35t-45.5 -40t-49 -32.5
t-45 -13.5q-14 0 -25 11.5t-17.5 26t-7.5 26t4 11.5z" />
    <glyph glyph-name="edieresis" unicode="&#xeb;" horiz-adv-x="588" 
d="M544 453q4 8 15.5 8t22.5 -4.5t18.5 -12.5t4.5 -16q-10 -20 -30.5 -59.5t-51 -87t-69.5 -97.5t-86 -91t-101 -67t-113 -26q-50 0 -86 21t-60 53t-35.5 70t-11.5 73q0 70 34 138.5t89.5 122.5t125 87.5t141.5 33.5q47 0 67.5 -21t20.5 -56q0 -26 -13.5 -59.5t-36.5 -69.5
t-53 -71t-63.5 -64t-68.5 -49.5t-67 -27.5q-4 -19 -4 -38q0 -23 8 -37.5t27 -14.5q44 0 87 22.5t82 57.5t73.5 77.5t61.5 83t45.5 73t26.5 48.5zM364 528q-24 0 -52.5 -23.5t-56 -61t-52 -84.5t-41.5 -93q36 18 73 52t67 72t48.5 74t18.5 58q0 6 -5 6zM230 829
q15 0 27.5 -5.5t21.5 -14t14.5 -19.5t5.5 -22q0 -17 -7.5 -34.5t-21.5 -32.5t-33.5 -24.5t-42.5 -9.5q-7 0 -17.5 3.5t-20.5 11t-17 18.5t-7 27q0 15 10 32.5t25 33t32 26t31 10.5zM426 833q28 0 48.5 -19t20.5 -41q0 -17 -7.5 -35t-21.5 -32.5t-33.5 -24t-43.5 -9.5
q-7 0 -17.5 3.5t-20 11t-16.5 18.5t-7 27q0 15 9.5 32.5t24.5 32.5t32 25.5t32 10.5z" />
    <glyph glyph-name="igrave" unicode="&#xec;" horiz-adv-x="376" 
d="M341 457q4 7 15 7t22.5 -4.5t19 -12.5t4.5 -16q-10 -22 -31.5 -62.5t-50.5 -88t-64 -97.5t-72.5 -90.5t-77 -66.5t-77.5 -26q-50 0 -81.5 36.5t-31.5 98.5q0 22 10 56t26 73.5t35.5 82t37.5 81.5q24 51 41 89t17 49q0 16 20 14.5t44 -14.5t44 -34t20 -43q0 -6 -5 -20
t-13 -32.5t-18 -40t-20 -42.5q-16 -34 -34.5 -73t-34 -75t-25.5 -66.5t-10 -47.5q0 -9 3 -9q22 0 49.5 23.5t57 59.5t58.5 80t53.5 85.5t42.5 75t26 49.5v1zM11 827q0 10 20 21.5t43.5 19t43.5 9t20 -7.5q0 -5 9 -19t23 -32.5t32 -38t37 -36t36.5 -27t31.5 -10.5
q6 0 6.5 -11t-3.5 -24t-13 -24t-23 -11q-27 0 -57 11t-59 28t-56 38.5t-47 43t-32 40t-12 30.5z" />
    <glyph glyph-name="iacute" unicode="&#xed;" horiz-adv-x="376" 
d="M341 457q4 7 15 7t22.5 -4.5t19 -12.5t4.5 -16q-10 -22 -31.5 -62.5t-50.5 -88t-64 -97.5t-72.5 -90.5t-77 -66.5t-77.5 -26q-50 0 -81.5 36.5t-31.5 98.5q0 22 10 56t26 73.5t35.5 82t37.5 81.5q24 51 41 89t17 49q0 16 20 14.5t44 -14.5t44 -34t20 -43q0 -6 -5 -20
t-13 -32.5t-18 -40t-20 -42.5q-16 -34 -34.5 -73t-34 -75t-25.5 -66.5t-10 -47.5q0 -9 3 -9q22 0 49.5 23.5t57 59.5t58.5 80t53.5 85.5t42.5 75t26 49.5v1zM41 703q6 0 23 10.5t38.5 26.5t45 35.5t43 38t32 33.5t12.5 22q0 8 18 5t39 -13t39 -23t18 -25q0 -9 -15.5 -26
t-40 -36.5t-55.5 -40t-61.5 -37t-57.5 -27t-45 -10.5q-14 0 -22.5 10.5t-12.5 23t-3.5 23t5.5 10.5z" />
    <glyph glyph-name="icircumflex" unicode="&#xee;" horiz-adv-x="376" 
d="M341 457q4 7 15 7t22.5 -4.5t19 -12.5t4.5 -16q-10 -22 -31.5 -62.5t-50.5 -88t-64 -97.5t-72.5 -90.5t-77 -66.5t-77.5 -26q-50 0 -81.5 36.5t-31.5 98.5q0 22 10 56t26 73.5t35.5 82t37.5 81.5q24 51 41 89t17 49q0 16 20 14.5t44 -14.5t44 -34t20 -43q0 -6 -5 -20
t-13 -32.5t-18 -40t-20 -42.5q-16 -34 -34.5 -73t-34 -75t-25.5 -66.5t-10 -47.5q0 -9 3 -9q22 0 49.5 23.5t57 59.5t58.5 80t53.5 85.5t42.5 75t26 49.5v1zM-21 698q3 0 14 9.5t26.5 24t33.5 32.5t36 35q29 30 53 52t35 22q7 0 23.5 -3t33.5 -9.5t30 -18.5t13 -30
q0 -14 7.5 -31t18 -33.5t23 -32t21.5 -26.5q8 -11 14 -19.5t6 -14.5q0 -14 -12.5 -23t-23.5 -9q-16 0 -38.5 18.5t-42.5 41.5q-25 26 -50 61q-14 -14 -35.5 -35t-45.5 -40t-49 -32.5t-45 -13.5q-14 0 -25 11.5t-17.5 26t-7.5 26t4 11.5z" />
    <glyph glyph-name="idieresis" unicode="&#xef;" horiz-adv-x="376" 
d="M341 457q4 7 15 7t22.5 -4.5t19 -12.5t4.5 -16q-10 -22 -31.5 -62.5t-50.5 -88t-64 -97.5t-72.5 -90.5t-77 -66.5t-77.5 -26q-50 0 -81.5 36.5t-31.5 98.5q0 22 10 56t26 73.5t35.5 82t37.5 81.5q24 51 41 89t17 49q0 16 20 14.5t44 -14.5t44 -34t20 -43q0 -6 -5 -20
t-13 -32.5t-18 -40t-20 -42.5q-16 -34 -34.5 -73t-34 -75t-25.5 -66.5t-10 -47.5q0 -9 3 -9q22 0 49.5 23.5t57 59.5t58.5 80t53.5 85.5t42.5 75t26 49.5v1zM96 829q15 0 27.5 -5.5t21.5 -14t14.5 -19.5t5.5 -22q0 -17 -7.5 -34.5t-21.5 -32.5t-33.5 -24.5t-42.5 -9.5
q-7 0 -17.5 3.5t-20.5 11t-17 18.5t-7 27q0 15 10 32.5t25 33t32 26t31 10.5zM292 833q28 0 48.5 -19t20.5 -41q0 -17 -7.5 -35t-21.5 -32.5t-33.5 -24t-43.5 -9.5q-7 0 -17.5 3.5t-20 11t-16.5 18.5t-7 27q0 15 9.5 32.5t24.5 32.5t32 25.5t32 10.5z" />
    <glyph glyph-name="ntilde" unicode="&#xf1;" horiz-adv-x="625" 
d="M578 453q10 18 24 23.5t25 1t16 -17.5t-4 -32q-10 -20 -29 -59.5t-44.5 -87.5t-56.5 -97.5t-64.5 -90.5t-68 -67t-66.5 -26q-49 0 -81 36.5t-32 98.5q0 21 8.5 51.5t22.5 66.5t31.5 75t34.5 76q-33 -39 -69.5 -83t-69 -86.5t-57.5 -80t-37 -62.5q-1 -5 -1.5 -9t-0.5 -6
l2 -8q1 -3 1 -7t1 -7v1q3 -12 5 -22t0 -17.5t-10 -12t-24 -4.5q-19 0 -39 9.5t-36.5 27t-27.5 41.5t-11 54q0 27 8 57.5t21 63t29.5 65.5t33.5 66q28 55 50 102.5t22 77.5q0 16 22 17t49 -11t49 -34.5t22 -52.5q0 -14 -7.5 -35t-19.5 -47q31 37 61.5 72t57 62.5t46.5 44.5
t29 17h6t8 -2q12 -4 27 -14.5t28 -25t21.5 -32t8.5 -35.5q0 -14 -16.5 -50.5t-39.5 -84.5q-17 -35 -35.5 -73.5t-33.5 -74t-25 -66t-10 -48.5q0 -8 2 -8q15 0 36 21t45.5 55t49.5 75.5t47 82.5t39.5 76.5t26.5 57.5v2zM180 669q-20 0 -31.5 16t-11.5 39q0 14 5 28.5t17 26.5
t31 19.5t47 7.5q22 0 48 -5l52 -10q23 -5 41.5 -8.5t29.5 -3.5q13 0 17 2.5t6 5.5q3 5 5.5 9.5t16.5 4.5t25 -22.5t11 -52.5q0 -31 -21.5 -46.5t-56.5 -15.5q-16 0 -34.5 3.5t-40.5 8.5q-29 7 -61.5 13t-61.5 6q-8 0 -12 -4q-2 -2 -2 -4z" />
    <glyph glyph-name="ograve" unicode="&#xf2;" horiz-adv-x="642" 
d="M597 452q4 9 15.5 9t22 -6t17.5 -15t3 -18q-7 -14 -20.5 -38t-33.5 -53t-46.5 -59.5t-58 -57t-68.5 -46t-79 -25.5q-45 -63 -102 -103t-118 -40q-33 0 -64.5 13t-56 38.5t-39.5 63.5t-15 89q0 48 18.5 98.5t43 92.5t50 69t39.5 27q10 0 22 -2t23 -5q18 24 38.5 45
t44 36.5t48.5 25t51 9.5q38 0 62.5 -8.5t39 -24t20 -37t5.5 -46.5q0 -131 -59 -251q36 20 68.5 51t58.5 63t44 61t26 44zM132 77q35 0 65.5 18.5t57.5 50.5q-38 10 -71.5 30.5t-57.5 47.5q-13 -31 -21.5 -60t-8.5 -51q0 -17 8 -26.5t28 -9.5zM248 266q0 -23 11 -39t40 -20
q20 34 36 71t27 72.5t17 68t6 56.5q0 40 -10 40t-31 -25.5t-42.5 -63.5t-37.5 -81t-16 -79zM144 827q0 10 20 21.5t43.5 19t43.5 9t20 -7.5q0 -5 9 -19t23 -32.5t32 -38t37 -36t36.5 -27t31.5 -10.5q6 0 6.5 -11t-3.5 -24t-13 -24t-23 -11q-27 0 -57 11t-59 28t-56 38.5
t-47 43t-32 40t-12 30.5z" />
    <glyph glyph-name="oacute" unicode="&#xf3;" horiz-adv-x="642" 
d="M597 452q4 9 15.5 9t22 -6t17.5 -15t3 -18q-7 -14 -20.5 -38t-33.5 -53t-46.5 -59.5t-58 -57t-68.5 -46t-79 -25.5q-45 -63 -102 -103t-118 -40q-33 0 -64.5 13t-56 38.5t-39.5 63.5t-15 89q0 48 18.5 98.5t43 92.5t50 69t39.5 27q10 0 22 -2t23 -5q18 24 38.5 45
t44 36.5t48.5 25t51 9.5q38 0 62.5 -8.5t39 -24t20 -37t5.5 -46.5q0 -131 -59 -251q36 20 68.5 51t58.5 63t44 61t26 44zM132 77q35 0 65.5 18.5t57.5 50.5q-38 10 -71.5 30.5t-57.5 47.5q-13 -31 -21.5 -60t-8.5 -51q0 -17 8 -26.5t28 -9.5zM248 266q0 -23 11 -39t40 -20
q20 34 36 71t27 72.5t17 68t6 56.5q0 40 -10 40t-31 -25.5t-42.5 -63.5t-37.5 -81t-16 -79zM182 703q6 0 23 10.5t38.5 26.5t45 35.5t43 38t32 33.5t12.5 22q0 8 18 5t39 -13t39 -23t18 -25q0 -9 -15.5 -26t-40 -36.5t-55.5 -40t-61.5 -37t-57.5 -27t-45 -10.5
q-14 0 -22.5 10.5t-12.5 23t-3.5 23t5.5 10.5z" />
    <glyph glyph-name="ocircumflex" unicode="&#xf4;" horiz-adv-x="642" 
d="M597 452q4 9 15.5 9t22 -6t17.5 -15t3 -18q-7 -14 -20.5 -38t-33.5 -53t-46.5 -59.5t-58 -57t-68.5 -46t-79 -25.5q-45 -63 -102 -103t-118 -40q-33 0 -64.5 13t-56 38.5t-39.5 63.5t-15 89q0 48 18.5 98.5t43 92.5t50 69t39.5 27q10 0 22 -2t23 -5q18 24 38.5 45
t44 36.5t48.5 25t51 9.5q38 0 62.5 -8.5t39 -24t20 -37t5.5 -46.5q0 -131 -59 -251q36 20 68.5 51t58.5 63t44 61t26 44zM132 77q35 0 65.5 18.5t57.5 50.5q-38 10 -71.5 30.5t-57.5 47.5q-13 -31 -21.5 -60t-8.5 -51q0 -17 8 -26.5t28 -9.5zM248 266q0 -23 11 -39t40 -20
q20 34 36 71t27 72.5t17 68t6 56.5q0 40 -10 40t-31 -25.5t-42.5 -63.5t-37.5 -81t-16 -79zM163 698q3 0 14 9.5t26.5 24t33.5 32.5t36 35q29 30 53 52t35 22q7 0 23.5 -3t33.5 -9.5t30 -18.5t13 -30q0 -14 7.5 -31t18 -33.5t23 -32t21.5 -26.5q8 -11 14 -19.5t6 -14.5
q0 -14 -12.5 -23t-23.5 -9q-16 0 -38.5 18.5t-42.5 41.5q-25 26 -50 61q-14 -14 -35.5 -35t-45.5 -40t-49 -32.5t-45 -13.5q-14 0 -25 11.5t-17.5 26t-7.5 26t4 11.5z" />
    <glyph glyph-name="otilde" unicode="&#xf5;" horiz-adv-x="642" 
d="M597 452q4 9 15.5 9t22 -6t17.5 -15t3 -18q-7 -14 -20.5 -38t-33.5 -53t-46.5 -59.5t-58 -57t-68.5 -46t-79 -25.5q-45 -63 -102 -103t-118 -40q-33 0 -64.5 13t-56 38.5t-39.5 63.5t-15 89q0 48 18.5 98.5t43 92.5t50 69t39.5 27q10 0 22 -2t23 -5q18 24 38.5 45
t44 36.5t48.5 25t51 9.5q38 0 62.5 -8.5t39 -24t20 -37t5.5 -46.5q0 -131 -59 -251q36 20 68.5 51t58.5 63t44 61t26 44zM132 77q35 0 65.5 18.5t57.5 50.5q-38 10 -71.5 30.5t-57.5 47.5q-13 -31 -21.5 -60t-8.5 -51q0 -17 8 -26.5t28 -9.5zM248 266q0 -23 11 -39t40 -20
q20 34 36 71t27 72.5t17 68t6 56.5q0 40 -10 40t-31 -25.5t-42.5 -63.5t-37.5 -81t-16 -79zM189 669q-20 0 -31.5 16t-11.5 39q0 14 5 28.5t17 26.5t31 19.5t47 7.5q22 0 48 -5l52 -10q23 -5 41.5 -8.5t29.5 -3.5q13 0 17 2.5t6 5.5q3 5 5.5 9.5t16.5 4.5t25 -22.5t11 -52.5
q0 -31 -21.5 -46.5t-56.5 -15.5q-16 0 -34.5 3.5t-40.5 8.5q-29 7 -61.5 13t-61.5 6q-8 0 -12 -4q-2 -2 -2 -4z" />
    <glyph glyph-name="odieresis" unicode="&#xf6;" horiz-adv-x="642" 
d="M597 452q4 9 15.5 9t22 -6t17.5 -15t3 -18q-7 -14 -20.5 -38t-33.5 -53t-46.5 -59.5t-58 -57t-68.5 -46t-79 -25.5q-45 -63 -102 -103t-118 -40q-33 0 -64.5 13t-56 38.5t-39.5 63.5t-15 89q0 48 18.5 98.5t43 92.5t50 69t39.5 27q10 0 22 -2t23 -5q18 24 38.5 45
t44 36.5t48.5 25t51 9.5q38 0 62.5 -8.5t39 -24t20 -37t5.5 -46.5q0 -131 -59 -251q36 20 68.5 51t58.5 63t44 61t26 44zM132 77q35 0 65.5 18.5t57.5 50.5q-38 10 -71.5 30.5t-57.5 47.5q-13 -31 -21.5 -60t-8.5 -51q0 -17 8 -26.5t28 -9.5zM248 266q0 -23 11 -39t40 -20
q20 34 36 71t27 72.5t17 68t6 56.5q0 40 -10 40t-31 -25.5t-42.5 -63.5t-37.5 -81t-16 -79zM276 829q15 0 27.5 -5.5t21.5 -14t14.5 -19.5t5.5 -22q0 -17 -7.5 -34.5t-21.5 -32.5t-33.5 -24.5t-42.5 -9.5q-7 0 -17.5 3.5t-20.5 11t-17 18.5t-7 27q0 15 10 32.5t25 33t32 26
t31 10.5zM472 833q28 0 48.5 -19t20.5 -41q0 -17 -7.5 -35t-21.5 -32.5t-33.5 -24t-43.5 -9.5q-7 0 -17.5 3.5t-20 11t-16.5 18.5t-7 27q0 15 9.5 32.5t24.5 32.5t32 25.5t32 10.5z" />
    <glyph glyph-name="divide" unicode="&#xf7;" horiz-adv-x="538" 
d="M113 411q25 0 62 0.5t76 2.5q34 2 67.5 3t50.5 1q19 0 36 -15.5t27.5 -34.5t12.5 -34.5t-8 -15.5h-18q-5 0 -11 0.5t-18 0.5q-17 0 -41.5 0.5t-53.5 0.5q-35 1 -69.5 1h-63.5q-26 0 -45.5 14t-30.5 31t-12.5 31t7.5 14h32zM283 561q23 0 37.5 -8.5t16.5 -22.5
q4 -5 8.5 -13.5t4.5 -19.5q0 -8 -6.5 -18t-16 -19t-21.5 -15.5t-23 -6.5q-22 0 -41 17.5t-19 37.5q0 9 4.5 20.5t12 22t18.5 18t25 7.5zM213 287q23 0 37.5 -9t16.5 -23q4 -4 8.5 -13t4.5 -20q0 -8 -6.5 -18t-16 -19t-21.5 -15t-23 -6q-22 0 -41 17.5t-19 37.5q0 9 4.5 20.5
t12 22t18.5 18t25 7.5z" />
    <glyph glyph-name="oslash" unicode="&#xf8;" horiz-adv-x="642" 
d="M598 452q4 9 15.5 9t22 -6t17.5 -15t3 -18q-7 -14 -20.5 -38t-34 -53t-46.5 -59.5t-58 -57t-69 -46t-79 -25.5q-40 -57 -84.5 -92.5t-97.5 -46.5q-26 -64 -26 -97q0 -11 -16 -8.5t-35.5 13.5t-35.5 29.5t-16 38.5q0 8 2.5 18.5t6.5 23.5q-41 23 -66.5 68t-25.5 114
q0 48 18.5 98.5t43 92.5t49.5 69t39 27q11 0 23 -2t23 -5q16 21 35 40t40 35t43.5 26.5t45.5 13.5q18 52 18 78q0 11 19 9t42 -13.5t42 -29.5t19 -38q0 -17 -14 -48q11 -16 15 -33.5t4 -39.5q0 -131 -59 -251q36 20 68 51t58.5 63t44.5 61t26 44zM126 223q-9 -22 -16 -43
t-11 -39l36 73zM213 106q23 17 43 40l-20 6zM270 218q9 -8 30 -11q32 54 53 115t28 110q-11 -23 -24 -47t-26 -49q-17 -32 -30.5 -59t-30.5 -59z" />
    <glyph glyph-name="ugrave" unicode="&#xf9;" horiz-adv-x="639" 
d="M593 453q10 18 24 23.5t24.5 1t15.5 -17.5t-3 -32l-9 -20l-32.5 -67.5t-44.5 -86t-54 -91t-60 -82t-63.5 -59t-64.5 -22.5q-21 0 -41 13t-35.5 33.5t-25.5 44t-10 44.5q0 17 6 43q-26 -35 -52.5 -67t-51 -57t-46 -39.5t-36.5 -14.5q-23 0 -44 14.5t-36.5 35.5t-25 45
t-9.5 43q0 27 8 57t21.5 62.5t29.5 65t33 64.5q14 26 27 51.5t23 48.5t16 42.5t6 34.5q0 16 22 17t49 -11t49 -34t22 -52q0 -12 -7.5 -33t-19.5 -48t-28 -58t-33 -64q-20 -39 -40 -77t-35 -68t-23 -48.5t-5 -18.5q6 0 22.5 16.5t38.5 43t48 61t53 70.5q62 84 137 191
q19 42 33 73t14 40q0 16 20 14.5t44 -14.5t44 -34t20 -42q0 -14 -16.5 -50.5t-39.5 -84.5q-17 -35 -35 -73.5t-33 -74t-25 -66t-10 -48.5q0 -8 2 -8q17 0 37.5 20t43 51.5t45.5 70.5t43 78t36.5 73.5t27.5 56.5l9 19v1zM143 827q0 10 20 21.5t43.5 19t43.5 9t20 -7.5
q0 -5 9 -19t23 -32.5t32 -38t37 -36t36.5 -27t31.5 -10.5q6 0 6.5 -11t-3.5 -24t-13 -24t-23 -11q-27 0 -57 11t-59 28t-56 38.5t-47 43t-32 40t-12 30.5z" />
    <glyph glyph-name="uacute" unicode="&#xfa;" horiz-adv-x="639" 
d="M593 453q10 18 24 23.5t24.5 1t15.5 -17.5t-3 -32l-9 -20l-32.5 -67.5t-44.5 -86t-54 -91t-60 -82t-63.5 -59t-64.5 -22.5q-21 0 -41 13t-35.5 33.5t-25.5 44t-10 44.5q0 17 6 43q-26 -35 -52.5 -67t-51 -57t-46 -39.5t-36.5 -14.5q-23 0 -44 14.5t-36.5 35.5t-25 45
t-9.5 43q0 27 8 57t21.5 62.5t29.5 65t33 64.5q14 26 27 51.5t23 48.5t16 42.5t6 34.5q0 16 22 17t49 -11t49 -34t22 -52q0 -12 -7.5 -33t-19.5 -48t-28 -58t-33 -64q-20 -39 -40 -77t-35 -68t-23 -48.5t-5 -18.5q6 0 22.5 16.5t38.5 43t48 61t53 70.5q62 84 137 191
q19 42 33 73t14 40q0 16 20 14.5t44 -14.5t44 -34t20 -42q0 -14 -16.5 -50.5t-39.5 -84.5q-17 -35 -35 -73.5t-33 -74t-25 -66t-10 -48.5q0 -8 2 -8q17 0 37.5 20t43 51.5t45.5 70.5t43 78t36.5 73.5t27.5 56.5l9 19v1zM172 703q6 0 23 10.5t38.5 26.5t45 35.5t43 38
t32 33.5t12.5 22q0 8 18 5t39 -13t39 -23t18 -25q0 -9 -15.5 -26t-40 -36.5t-55.5 -40t-61.5 -37t-57.5 -27t-45 -10.5q-14 0 -22.5 10.5t-12.5 23t-3.5 23t5.5 10.5z" />
    <glyph glyph-name="ucircumflex" unicode="&#xfb;" horiz-adv-x="639" 
d="M593 453q10 18 24 23.5t24.5 1t15.5 -17.5t-3 -32l-9 -20l-32.5 -67.5t-44.5 -86t-54 -91t-60 -82t-63.5 -59t-64.5 -22.5q-21 0 -41 13t-35.5 33.5t-25.5 44t-10 44.5q0 17 6 43q-26 -35 -52.5 -67t-51 -57t-46 -39.5t-36.5 -14.5q-23 0 -44 14.5t-36.5 35.5t-25 45
t-9.5 43q0 27 8 57t21.5 62.5t29.5 65t33 64.5q14 26 27 51.5t23 48.5t16 42.5t6 34.5q0 16 22 17t49 -11t49 -34t22 -52q0 -12 -7.5 -33t-19.5 -48t-28 -58t-33 -64q-20 -39 -40 -77t-35 -68t-23 -48.5t-5 -18.5q6 0 22.5 16.5t38.5 43t48 61t53 70.5q62 84 137 191
q19 42 33 73t14 40q0 16 20 14.5t44 -14.5t44 -34t20 -42q0 -14 -16.5 -50.5t-39.5 -84.5q-17 -35 -35 -73.5t-33 -74t-25 -66t-10 -48.5q0 -8 2 -8q17 0 37.5 20t43 51.5t45.5 70.5t43 78t36.5 73.5t27.5 56.5l9 19v1zM138 698q3 0 14 9.5t26.5 24t33.5 32.5t36 35
q29 30 53 52t35 22q7 0 23.5 -3t33.5 -9.5t30 -18.5t13 -30q0 -14 7.5 -31t18 -33.5t23 -32t21.5 -26.5q8 -11 14 -19.5t6 -14.5q0 -14 -12.5 -23t-23.5 -9q-16 0 -38.5 18.5t-42.5 41.5q-25 26 -50 61q-14 -14 -35.5 -35t-45.5 -40t-49 -32.5t-45 -13.5q-14 0 -25 11.5
t-17.5 26t-7.5 26t4 11.5z" />
    <glyph glyph-name="udieresis" unicode="&#xfc;" horiz-adv-x="639" 
d="M593 453q10 18 24 23.5t24.5 1t15.5 -17.5t-3 -32l-9 -20l-32.5 -67.5t-44.5 -86t-54 -91t-60 -82t-63.5 -59t-64.5 -22.5q-21 0 -41 13t-35.5 33.5t-25.5 44t-10 44.5q0 17 6 43q-26 -35 -52.5 -67t-51 -57t-46 -39.5t-36.5 -14.5q-23 0 -44 14.5t-36.5 35.5t-25 45
t-9.5 43q0 27 8 57t21.5 62.5t29.5 65t33 64.5q14 26 27 51.5t23 48.5t16 42.5t6 34.5q0 16 22 17t49 -11t49 -34t22 -52q0 -12 -7.5 -33t-19.5 -48t-28 -58t-33 -64q-20 -39 -40 -77t-35 -68t-23 -48.5t-5 -18.5q6 0 22.5 16.5t38.5 43t48 61t53 70.5q62 84 137 191
q19 42 33 73t14 40q0 16 20 14.5t44 -14.5t44 -34t20 -42q0 -14 -16.5 -50.5t-39.5 -84.5q-17 -35 -35 -73.5t-33 -74t-25 -66t-10 -48.5q0 -8 2 -8q17 0 37.5 20t43 51.5t45.5 70.5t43 78t36.5 73.5t27.5 56.5l9 19v1zM227 829q15 0 27.5 -5.5t21.5 -14t14.5 -19.5t5.5 -22
q0 -17 -7.5 -34.5t-21.5 -32.5t-33.5 -24.5t-42.5 -9.5q-7 0 -17.5 3.5t-20.5 11t-17 18.5t-7 27q0 15 10 32.5t25 33t32 26t31 10.5zM423 833q28 0 48.5 -19t20.5 -41q0 -17 -7.5 -35t-21.5 -32.5t-33.5 -24t-43.5 -9.5q-7 0 -17.5 3.5t-20 11t-16.5 18.5t-7 27
q0 15 9.5 32.5t24.5 32.5t32 25.5t32 10.5z" />
    <glyph glyph-name="yacute" unicode="&#xfd;" horiz-adv-x="673" 
d="M621 455q10 18 23.5 23.5t25 1.5t16 -17.5t-3.5 -32.5q-18 -41 -52.5 -85t-79.5 -89t-98.5 -90t-110.5 -90q-44 -90 -94.5 -178.5t-101.5 -159t-100.5 -114t-91.5 -43.5q-45 0 -75 11.5t-47.5 28.5t-24.5 36.5t-7 34.5q0 29 25.5 63t69.5 72.5t101.5 81.5t122.5 89
q12 23 19.5 35.5l12 20t7.5 13t7 13t9.5 20.5t15.5 36q-23 -28 -45.5 -52.5t-42.5 -43t-37.5 -29.5t-29.5 -11q-23 0 -43.5 14.5t-36.5 35.5t-25 45t-9 43q0 27 8 57.5t21.5 63t30 65.5t33.5 65q13 26 26 51.5t23 48.5t16 43t6 34q0 15 22 15t49 -11t49 -32.5t22 -51.5
q0 -13 -7.5 -34.5t-20 -48.5t-28.5 -58.5t-33 -64.5q-20 -39 -39.5 -76.5t-34.5 -67.5t-23.5 -48.5t-5.5 -18.5q7 0 26 19.5t44.5 50.5t55 70t58 78.5t53.5 74.5t41 59q20 53 32.5 85t12.5 36q0 31 11 44.5t31 13.5q14 0 31.5 -11.5t33 -28.5t26 -37.5t10.5 -38.5
q0 -11 -7.5 -37t-20.5 -62.5t-30.5 -81t-37.5 -90.5q75 61 130 119.5t87 121.5v1zM-139 -335q27 0 56.5 20.5t60.5 55t62 81t61 98.5q-53 -40 -99.5 -76t-81 -66.5t-54.5 -55t-20 -41.5q0 -16 15 -16zM189 703q6 0 23 10.5t38.5 26.5t45 35.5t43 38t32 33.5t12.5 22
q0 8 18 5t39 -13t39 -23t18 -25q0 -9 -15.5 -26t-40 -36.5t-55.5 -40t-61.5 -37t-57.5 -27t-45 -10.5q-14 0 -22.5 10.5t-12.5 23t-3.5 23t5.5 10.5z" />
    <glyph glyph-name="ydieresis" unicode="&#xff;" horiz-adv-x="673" 
d="M621 455q10 18 23.5 23.5t25 1.5t16 -17.5t-3.5 -32.5q-18 -41 -52.5 -85t-79.5 -89t-98.5 -90t-110.5 -90q-44 -90 -94.5 -178.5t-101.5 -159t-100.5 -114t-91.5 -43.5q-45 0 -75 11.5t-47.5 28.5t-24.5 36.5t-7 34.5q0 29 25.5 63t69.5 72.5t101.5 81.5t122.5 89
q12 23 19.5 35.5l12 20t7.5 13t7 13t9.5 20.5t15.5 36q-23 -28 -45.5 -52.5t-42.5 -43t-37.5 -29.5t-29.5 -11q-23 0 -43.5 14.5t-36.5 35.5t-25 45t-9 43q0 27 8 57.5t21.5 63t30 65.5t33.5 65q13 26 26 51.5t23 48.5t16 43t6 34q0 15 22 15t49 -11t49 -32.5t22 -51.5
q0 -13 -7.5 -34.5t-20 -48.5t-28.5 -58.5t-33 -64.5q-20 -39 -39.5 -76.5t-34.5 -67.5t-23.5 -48.5t-5.5 -18.5q7 0 26 19.5t44.5 50.5t55 70t58 78.5t53.5 74.5t41 59q20 53 32.5 85t12.5 36q0 31 11 44.5t31 13.5q14 0 31.5 -11.5t33 -28.5t26 -37.5t10.5 -38.5
q0 -11 -7.5 -37t-20.5 -62.5t-30.5 -81t-37.5 -90.5q75 61 130 119.5t87 121.5v1zM-139 -335q27 0 56.5 20.5t60.5 55t62 81t61 98.5q-53 -40 -99.5 -76t-81 -66.5t-54.5 -55t-20 -41.5q0 -16 15 -16zM244 829q15 0 27.5 -5.5t21.5 -14t14.5 -19.5t5.5 -22q0 -17 -7.5 -34.5
t-21.5 -32.5t-33.5 -24.5t-42.5 -9.5q-7 0 -17.5 3.5t-20.5 11t-17 18.5t-7 27q0 15 10 32.5t25 33t32 26t31 10.5zM440 833q28 0 48.5 -19t20.5 -41q0 -17 -7.5 -35t-21.5 -32.5t-33.5 -24t-43.5 -9.5q-7 0 -17.5 3.5t-20 11t-16.5 18.5t-7 27q0 15 9.5 32.5t24.5 32.5
t32 25.5t32 10.5z" />
    <glyph glyph-name="dotlessi" unicode="&#x131;" horiz-adv-x="376" 
d="M341 457q4 7 15 7t22.5 -4.5t19 -12.5t4.5 -16q-10 -22 -31.5 -62.5t-50.5 -88t-64 -97.5t-72.5 -90.5t-77 -66.5t-77.5 -26q-50 0 -81.5 36.5t-31.5 98.5q0 22 10 56t26 73.5t35.5 82t37.5 81.5q24 51 41 89t17 49q0 16 20 14.5t44 -14.5t44 -34t20 -43q0 -6 -5 -20
t-13 -32.5t-18 -40t-20 -42.5q-16 -34 -34.5 -73t-34 -75t-25.5 -66.5t-10 -47.5q0 -9 3 -9q22 0 49.5 23.5t57 59.5t58.5 80t53.5 85.5t42.5 75t26 49.5v1z" />
    <glyph glyph-name="OE" unicode="&#x152;" horiz-adv-x="1647" 
d="M1780 1013q0 -23 -7.5 -48.5t-19.5 -51t-27.5 -51.5t-31.5 -50q-14 -22 -27 -44t-24 -43.5t-17.5 -40.5t-6.5 -35q0 -5 1 -9.5t3 -9.5v1q3 -11 5.5 -21t0.5 -17.5t-9.5 -12t-23.5 -4.5q-18 0 -38.5 9t-38 25t-29 39t-11.5 51q0 43 23 92t52 100q-6 3 -14.5 5t-20.5 2
q-55 0 -106 -15.5t-96.5 -41t-83 -58t-65.5 -67t-44 -67.5t-17 -59q34 13 66 20t63 7q75 0 115 -19.5t59 -45t22 -50t3 -33.5q0 -22 -8.5 -35t-19.5 -20.5t-21 -10t-14 -2.5h-5q-7 -7 -17 -12t-25 -5q-52 0 -106.5 9t-101.5 32q-75 -35 -139.5 -90t-112 -115t-74 -117
t-26.5 -96q0 -43 12 -73t33 -49t50 -27.5t63 -8.5q50 0 108 15t115 40.5t109.5 58.5t93 69t64.5 72.5t24 69.5q0 16 6.5 26.5t16 17t20 9.5t18.5 3q23 0 33 -10t10 -27q0 -44 -31 -93t-84 -97.5t-122 -93t-145 -78.5t-153.5 -54t-147.5 -20q-47 0 -89.5 10t-76.5 31.5
t-59 56t-37 83.5q-83 -72 -168.5 -109t-182.5 -37q-61 0 -104.5 16.5t-71 46.5t-40 72t-12.5 93q0 75 27.5 164.5t73.5 180t107 175t128.5 149.5t137.5 104.5t134 39.5q25 0 45 -10t33.5 -25t20.5 -32.5t7 -31.5q0 -20 -9.5 -31.5t-30.5 -11.5q-8 0 -11.5 0.5t-7.5 1.5
q-8 2 -14 2q-51 0 -107 -37.5t-110.5 -98t-104 -138t-87 -157.5t-59.5 -156.5t-22 -134.5q0 -48 18.5 -76.5t61.5 -28.5q49 0 102 28t105 76t102.5 113t95 139t82.5 153.5t65.5 157.5t43 149.5t15.5 130.5q0 71 -26 113t-86 42q-83 0 -169.5 -33.5t-168 -86.5t-153 -119
t-125.5 -131t-85 -123t-31 -94q0 -27 3.5 -40t6.5 -21q2 -8 4.5 -13.5t2.5 -16.5q0 -19 -13 -29t-34 -10q-20 0 -45 10t-48 30.5t-38.5 51t-15.5 71.5q0 59 35 128t97 138.5t148 134t188.5 114t217.5 79.5t236 30q64 0 110.5 -21t76.5 -59t44 -90.5t14 -114.5v-11
q30 55 83 109t116.5 97t132.5 69.5t130 26.5q58 0 91.5 -17.5t50.5 -41.5q17 32 28 62t11 56q0 15 20.5 15.5t45.5 -11.5t45.5 -36.5t20.5 -60.5zM1340 446h9q3 3 3 4q-4 6 -20 11.5t-39 5.5q-14 0 -30 -1t-30 -3q29 -10 54 -13.5t42 -3.5h11zM997 542q-10 19 -14 38
q-3 -14 -6.5 -27.5t-8.5 -27.5z" />
    <glyph glyph-name="oe" unicode="&#x153;" horiz-adv-x="938" 
d="M878 453q4 8 15.5 8t22.5 -4.5t18.5 -12.5t4.5 -16q-9 -20 -30 -59.5t-51 -87t-69.5 -97.5t-86.5 -91t-101 -67t-113 -26q-60 0 -100.5 29.5t-63.5 73.5q-42 -48 -90 -75.5t-100 -27.5q-33 0 -64.5 13t-56 38.5t-39.5 63.5t-15 89q0 48 18.5 98.5t43.5 92.5t50 69t39 27
q10 0 22.5 -2t23.5 -5q18 24 38.5 45t44 36.5t48.5 25t51 9.5q63 0 90.5 -23t33.5 -61q50 38 107 60.5t117 22.5q47 0 67 -21t20 -56q0 -26 -13.5 -59.5t-36 -69.5t-53 -71t-64 -64t-68.5 -49.5t-67 -27.5q-4 -19 -4 -38q0 -23 8.5 -37.5t26.5 -14.5q44 0 87 22.5t82 57.5
t73.5 77.5t61.5 83t45.5 73t26.5 48.5zM699 528q-25 0 -53 -23.5t-56 -61t-52.5 -84.5t-41.5 -93q36 18 73 52t67 72t49 74t19 58q0 6 -5 6zM137 77q35 0 65.5 18.5t58.5 50.5q-38 10 -71.5 30.5t-57.5 47.5q-13 -31 -21.5 -60t-8.5 -51q0 -17 7.5 -26.5t27.5 -9.5zM254 266
q0 -22 9.5 -37t32.5 -20v8q0 61 24 119.5t69 109.5q1 8 1 15.5v12.5q0 19 -2 30t-7 11q-10 0 -31 -25.5t-42.5 -63.5t-37.5 -81t-16 -79z" />
    <glyph glyph-name="Scaron" unicode="&#x160;" horiz-adv-x="914" 
d="M589 149q0 7 -16 13t-44.5 10.5t-67 8.5t-83.5 8q-62 6 -131 13.5t-136.5 21t-129 35.5t-108 56t-74 83t-27.5 117q0 57 36 126.5t99.5 140t150 137t187.5 118t212 82.5t223 31q59 0 110 -15.5t88.5 -47t59 -80t21.5 -115.5q0 -45 -25 -103.5t-66 -120t-92 -120.5
t-102.5 -105.5t-99 -75t-80.5 -28.5q-12 0 -30 13.5t-34 32.5t-27.5 39.5t-11.5 35.5q0 16 9.5 26.5t29.5 10.5q14 0 48 24t77 63t89.5 89t84.5 101.5t63 101t25 87.5q0 59 -33.5 87t-84.5 28q-108 0 -204 -36.5t-177 -93.5t-145 -127.5t-108.5 -139t-68.5 -126.5t-24 -91
q0 -44 33.5 -71t88 -44.5t123.5 -27t140 -17.5q72 -8 139.5 -18t120.5 -27.5t85 -46.5t32 -75t-27 -93.5t-72 -91.5t-103.5 -83t-120.5 -68t-123.5 -45.5t-112.5 -16.5q-62 0 -99.5 27.5t-58 63.5t-27 70t-6.5 48q0 22 12.5 33t27.5 11q16 0 28.5 -11t12.5 -33q0 -10 2 -21
t10 -20.5t25 -15.5t46 -6q26 0 69 14.5t92 37.5t99 52.5t90 58.5t65.5 56t25.5 45zM877 1407q-2 0 -13 -9.5t-26.5 -24t-34 -32.5t-36.5 -36q-30 -30 -55.5 -53t-35.5 -23q-8 0 -24.5 3t-34 10t-30.5 19t-13 30q0 14 -7.5 31t-19 34.5t-23.5 33t-21 27.5q-20 23 -20 33
q0 16 12.5 24t24.5 8q16 0 38.5 -19.5t43.5 -42.5q25 -27 50 -61q13 14 34.5 35t46.5 40.5t50.5 33.5t47.5 14q14 0 25 -11.5t17.5 -26t7.5 -26t-4 -11.5z" />
    <glyph glyph-name="scaron" unicode="&#x161;" horiz-adv-x="422" 
d="M385 452q4 8 15 8t22 -4.5t18.5 -12t4.5 -15.5q-9 -18 -26 -51.5t-42 -75t-57.5 -86.5t-72.5 -85.5t-86 -72.5t-98 -48q-34 -8 -63 -8h-6q-48 0 -74 23t-36 51t-7.5 51t10.5 23q16 0 21.5 -9t10.5 -22q2 -6 5 -12t8 -11.5t13 -9t21 -3.5q16 0 34 11.5t33 31.5t25 47
t10 58q0 29 -12 54t-26 51l1 -1l-18 32q-5 -11 -11.5 -24.5t-20.5 -36.5q-4 -8 -15 -6.5t-21.5 7t-17.5 13.5t-3 15q12 22 21 38t15 28t10 21.5t8 18.5l-1 -1l8 17q-3 18 -3 32q0 44 16.5 80.5t40.5 62.5t50 40t45 14q10 0 26 -2t31 -8.5t25.5 -18.5t10.5 -32
q0 -17 -10 -30.5t-24 -27.5q-16 -15 -31.5 -36t-15.5 -51q0 -35 12.5 -63t26.5 -56v1q17 -29 29.5 -60.5t12.5 -72.5q0 -8 -0.5 -18t-0.5 -18q28 31 51.5 65.5t42 67t33 60.5t23.5 47l10 21zM399 901q-2 0 -13 -9.5t-26.5 -24t-34 -32.5t-36.5 -36q-30 -30 -55.5 -53
t-35.5 -23q-8 0 -24.5 3t-34 10t-30.5 19t-13 30q0 14 -7.5 31t-19 34.5t-23.5 33t-21 27.5q-20 23 -20 33q0 16 12.5 24t24.5 8q16 0 38.5 -19.5t43.5 -42.5q25 -27 50 -61q13 14 34.5 35t46.5 40.5t50.5 33.5t47.5 14q14 0 25 -11.5t17.5 -26t7.5 -26t-4 -11.5z" />
    <glyph glyph-name="Ydieresis" unicode="&#x178;" horiz-adv-x="884" 
d="M962 729q0 -21 -11.5 -50t-32 -65.5t-48 -79.5t-59.5 -91q-55 -83 -116.5 -180.5t-113 -201.5t-85 -211t-33.5 -209q0 -45 7.5 -75t14.5 -47q7 -18 10.5 -30t0.5 -19t-14 -10t-34 -3q-26 0 -54.5 9.5t-52.5 33t-40 63.5t-16 101q0 49 8 98t24 101t40 108.5t56 119.5
l-11 -17q-31 -45 -60 -84.5t-58 -69.5t-58 -47.5t-59 -17.5h-11q-43 0 -74 23t-50.5 58.5t-28.5 79t-9 84.5q0 83 21.5 166.5t53.5 161t69 146.5t69 125q29 52 49.5 89.5t20.5 55.5v9q0 13 0.5 24t4 18.5t12.5 12t26 4.5q22 0 42 -10t34.5 -27.5t23 -41t8.5 -49.5
q0 -21 -20 -59t-49 -91q-29 -51 -62.5 -114t-62.5 -134t-48.5 -148t-19.5 -155q0 -34 5 -65t13 -54q20 8 57.5 46.5t85.5 96t103 129.5t109.5 147.5t104.5 149.5t88 135t61 105t23 59q0 12 0.5 22.5t5 18t14.5 12t29 4.5q18 0 35.5 -9t31 -28.5t22 -49.5t8.5 -73zM552 1027
q15 0 27.5 -5.5t21.5 -14t14.5 -19.5t5.5 -22q0 -17 -7.5 -34.5t-21.5 -32.5t-33.5 -24.5t-42.5 -9.5q-7 0 -17.5 3.5t-20.5 11t-17 18.5t-7 27q0 15 10 32.5t25 33t32 26t31 10.5zM748 1031q28 0 48.5 -19t20.5 -41q0 -17 -7.5 -35t-21.5 -32.5t-33.5 -24t-43.5 -9.5
q-7 0 -17.5 3.5t-20 11t-16.5 18.5t-7 27q0 15 9.5 32.5t24.5 32.5t32 25.5t32 10.5z" />
    <glyph glyph-name="Zcaron" unicode="&#x17d;" horiz-adv-x="745" 
d="M931 -66q78 -39 128.5 -86.5t80 -95t41.5 -91.5t12 -77q0 -23 -3 -33q-3 -14 -9.5 -25t-15 -18t-19 -9t-21.5 3q-23 13 -22 32.5t9 36.5l5 13l-1 -1q4 18 0 41t-16.5 47t-33.5 46t-51 37q-71 35 -138 58.5t-130 37t-121.5 19t-112.5 5.5q-84 0 -155 -9t-130 -19
q-38 -7 -70 -11t-59 -4q-35 0 -56 10q-5 2 -11 7t-11 10q-27 24 -40 61.5t-13 78.5q0 65 25 121q28 60 72 116.5t98.5 109.5t116.5 102t126 93.5t127 84.5t120 75q24 15 42 26t33 20t29 18t30 20q-73 13 -144.5 17.5t-135.5 4.5q-67 0 -121.5 -3.5t-90.5 -5.5
q-23 -1 -39.5 -1.5t-20.5 0.5q-23 5 -27.5 18t0.5 30q7 21 47 39t100 31t133 20.5t145 7.5q63 0 122 -5.5t104 -18.5l-1 1q4 -1 3.5 -0.5t1.5 -0.5q14 7 34 -3q12 -7 23.5 -20t20.5 -29t14 -34t5 -36q0 -11 -2 -21.5t-6 -21.5q-9 -18 -52.5 -47t-109.5 -74
q-51 -34 -113 -75.5t-127.5 -89.5t-130.5 -101t-122.5 -109.5t-104.5 -116.5t-75 -121q-2 -5 -2 -4.5v1v0.5l-1 -4l41 3q54 4 121 7.5t142 3.5q64 0 131.5 -4t133.5 -14t129 -28t119 -46zM882 1172q-2 0 -13 -9.5t-26.5 -24t-34 -32.5t-36.5 -36q-30 -30 -55.5 -53
t-35.5 -23q-8 0 -24.5 3t-34 10t-30.5 19t-13 30q0 14 -7.5 31t-19 34.5t-23.5 33t-21 27.5q-20 23 -20 33q0 16 12.5 24t24.5 8q16 0 38.5 -19.5t43.5 -42.5q25 -27 50 -61q13 14 34.5 35t46.5 40.5t50.5 33.5t47.5 14q14 0 25 -11.5t17.5 -26t7.5 -26t-4 -11.5z" />
    <glyph glyph-name="zcaron" unicode="&#x17e;" horiz-adv-x="524" 
d="M481 455q10 18 23.5 23.5t25 1.5t16 -17.5t-3.5 -32.5q-18 -40 -47.5 -82t-68.5 -85.5t-85 -87t-95 -86.5q3 -14 5 -31t2 -39q0 -23 -13 -64t-36.5 -90t-56 -99.5t-72 -91.5t-85 -67t-94.5 -26q-45 0 -75 11.5t-47.5 28.5t-24.5 36.5t-7 34.5q0 29 23.5 64t63.5 74.5
t93.5 84t112.5 92.5v-1l75 62v8v14q-10 -1 -29.5 -18.5t-36.5 -34.5q-6 -7 -12.5 -13t-11.5 -11q-7 -5 -13.5 -9t-9.5 -4h-5q-2 0 -4.5 -0.5t-5.5 1.5q-14 3 -28 11.5t-26 20t-19.5 25.5t-7.5 28q0 9 6 26t16.5 38t23.5 44.5t27 47.5q32 55 73 119q-12 7 -26.5 18.5
t-27.5 29.5t-22 43t-9 57q0 33 8 65t20.5 57.5t28.5 41t33 15.5q16 0 37 -3.5t39.5 -11t31.5 -20t13 -31.5q0 -15 -9 -33t-20 -38q-13 -23 -25 -48.5t-12 -49.5q0 -17 4.5 -29.5t12 -21t16.5 -14.5t17 -11q16 -10 28 -19t12 -29q0 -25 -20.5 -68.5t-49.5 -92.5q10 3 19 3
q16 0 32.5 -4.5t31.5 -16.5q85 74 158 151t113 153v1zM67 -63q-48 -41 -91.5 -77.5t-76.5 -68t-53 -56t-21 -40.5q38 1 73 24t66 57.5t57 77t46 83.5zM-175 -308v3h-2q2 0 2 -3v0zM352 913q-2 0 -13 -9.5t-26.5 -24t-34 -32.5t-36.5 -36q-30 -30 -55.5 -53t-35.5 -23
q-8 0 -24.5 3t-34 10t-30.5 19t-13 30q0 14 -7.5 31t-19 34.5t-23.5 33t-21 27.5q-20 23 -20 33q0 16 12.5 24t24.5 8q16 0 38.5 -19.5t43.5 -42.5q25 -27 50 -61q13 14 34.5 35t46.5 40.5t50.5 33.5t47.5 14q14 0 25 -11.5t17.5 -26t7.5 -26t-4 -11.5z" />
    <glyph glyph-name="circumflex" unicode="&#x2c6;" horiz-adv-x="681" 
d="M171 698q3 0 14 9.5t26.5 24t33.5 32.5t36 35q29 30 53 52t35 22q7 0 23.5 -3t33.5 -9.5t30 -18.5t13 -30q0 -14 7.5 -31t18 -33.5t23 -32t21.5 -26.5q8 -11 14 -19.5t6 -14.5q0 -14 -12.5 -23t-23.5 -9q-16 0 -38.5 18.5t-42.5 41.5q-25 26 -50 61q-14 -14 -35.5 -35
t-45.5 -40t-49 -32.5t-45 -13.5q-14 0 -25 11.5t-17.5 26t-7.5 26t4 11.5z" />
    <glyph glyph-name="caron" unicode="&#x2c7;" horiz-adv-x="587" 
d="M509 759q-2 0 -13 -9.5t-26.5 -24t-34 -32.5t-36.5 -36q-30 -30 -55.5 -53t-35.5 -23q-8 0 -24.5 3t-34 10t-30.5 19t-13 30q0 14 -7.5 31t-19 34.5t-23.5 33t-21 27.5q-20 23 -20 33q0 16 12.5 24t24.5 8q16 0 38.5 -19.5t43.5 -42.5q25 -27 50 -61q13 14 34.5 35
t46.5 40.5t50.5 33.5t47.5 14q14 0 25 -11.5t17.5 -26t7.5 -26t-4 -11.5z" />
    <glyph glyph-name="ring" unicode="&#x2da;" horiz-adv-x="637" 
d="M355 918q22 0 42 -8.5t34.5 -22t23 -30.5t8.5 -34q0 -27 -12 -56t-34.5 -53t-54 -39.5t-69.5 -15.5q-11 0 -27 5.5t-31 17t-25.5 29.5t-10.5 42q0 22 15.5 51t39 54t51 42.5t50.5 17.5zM367 827q-11 -5 -23.5 -17t-24 -26t-20 -29t-11.5 -26q15 4 29 14.5t24.5 24.5
t17.5 29.5t8 29.5z" />
    <glyph glyph-name="tilde" unicode="&#x2dc;" horiz-adv-x="677" 
d="M222 669q-20 0 -31.5 16t-11.5 39q0 14 5 28.5t17 26.5t31 19.5t47 7.5q22 0 48 -5l52 -10q23 -5 41.5 -8.5t29.5 -3.5q13 0 17 2.5t6 5.5q3 5 5.5 9.5t16.5 4.5t25 -22.5t11 -52.5q0 -31 -21.5 -46.5t-56.5 -15.5q-16 0 -34.5 3.5t-40.5 8.5q-29 7 -61.5 13t-61.5 6
q-8 0 -12 -4q-2 -2 -2 -4z" />
    <glyph glyph-name="endash" unicode="&#x2013;" horiz-adv-x="538" 
d="M113 411q25 0 62 0.5t76 2.5q34 2 67.5 3t50.5 1q19 0 36 -15.5t27.5 -34.5t12.5 -34.5t-8 -15.5h-18q-5 0 -11 0.5t-18 0.5q-17 0 -41.5 0.5t-53.5 0.5q-35 1 -69.5 1h-63.5q-26 0 -45.5 14t-30.5 31t-12.5 31t7.5 14h32z" />
    <glyph glyph-name="emdash" unicode="&#x2014;" horiz-adv-x="722" 
d="M116 411h37t57.5 0.5t70 1t75.5 1.5q33 1 66.5 1.5t61.5 1t48.5 1t29.5 0.5q19 0 36 -15.5t27.5 -34.5t12 -34.5t-8.5 -15.5h-17q-5 0 -11 0.5t-18 0.5h-26t-40.5 0.5t-52 0.5h-59.5q-36 0 -72.5 0.5t-69 0.5h-58.5h-40q-26 0 -45.5 14t-30.5 31t-12.5 31t7.5 14h32z" />
    <glyph glyph-name="quoteleft" unicode="&#x2018;" horiz-adv-x="224" 
d="M70 872q0 11 17.5 9.5t38.5 -12t38.5 -28t17.5 -38.5q0 -14 -10.5 -36.5t-23.5 -47.5q-14 -27 -27 -54t-13 -42q0 -9 -19.5 -9t-43 7t-43 20.5t-19.5 30.5q0 13 10 33.5t24 45.5q9 16 18.5 33t17 33.5t12.5 30.5t5 24z" />
    <glyph glyph-name="quoteright" unicode="&#x2019;" horiz-adv-x="224" 
d="M105 630q0 -11 -17.5 -9.5t-38.5 12t-38.5 28t-17.5 38.5q0 14 10.5 36.5t23.5 47.5q14 27 27 54t13 42q0 9 19.5 9t43 -7t43 -20t19.5 -30q0 -13 -10 -34t-24 -46q-9 -16 -18.5 -33t-17 -33t-12.5 -30.5t-5 -24.5z" />
    <glyph glyph-name="quotesinglbase" unicode="&#x201a;" horiz-adv-x="299" 
d="M31 64q0 26 13 37.5t32 11.5q14 0 30.5 -7.5t30.5 -19t23.5 -24.5t9.5 -24q0 -36 -23 -71t-55 -62t-68 -44t-61 -17q-23 0 -37 11.5t-14 37.5q0 11 9 20t23 20q12 9 27.5 22t28.5 29.5t22 36.5t9 43z" />
    <glyph glyph-name="quotedblleft" unicode="&#x201c;" horiz-adv-x="382" 
d="M73 872q0 11 17.5 9.5t38 -12t38 -28t17.5 -38.5q0 -14 -10.5 -36.5t-23.5 -47.5q-14 -27 -26.5 -54t-12.5 -42q0 -9 -19.5 -9t-43 7t-43 20.5t-19.5 30.5q0 13 10 33.5t24 45.5q9 16 18 33t17 33.5t13 30.5t5 24zM227 848q0 12 18 10.5t40 -12.5t40 -30t18 -43
q0 -11 -10 -28.5t-24 -38.5q-17 -25 -33 -51.5t-16 -41.5q0 -9 -18.5 -10t-40.5 5t-40.5 18.5t-18.5 29.5q0 14 12 37.5t27 50.5q16 30 31 60t15 44z" />
    <glyph glyph-name="quotedblright" unicode="&#x201d;" horiz-adv-x="382" 
d="M256 602q0 -12 -17.5 -10.5t-38 12t-38 28.5t-17.5 39q0 14 10.5 36.5t23.5 47.5q14 27 26.5 54t12.5 41q0 9 19.5 9.5t43 -6.5t43 -20.5t19.5 -30.5q0 -13 -10 -33.5t-24 -45.5q-9 -16 -18 -33t-17 -33.5t-13 -30.5t-5 -24zM102 626q0 -12 -18 -10.5t-40 12.5t-40 30
t-18 43q0 11 10 28.5t24 38.5l17 25.5t16 26t11.5 23t4.5 18.5q0 9 18.5 9.5t40.5 -5.5t40.5 -18t18.5 -29q0 -15 -12 -38t-27 -51v1q-16 -30 -31 -60t-15 -44z" />
    <glyph glyph-name="quotedblbase" unicode="&#x201e;" horiz-adv-x="439" 
d="M34 64q0 26 13 37.5t32 11.5q14 0 30 -7.5t30 -19t23.5 -24.5t9.5 -24q0 -36 -22.5 -71t-55 -62t-68 -44t-60.5 -17q-23 0 -37 11.5t-14 37.5q0 11 9 20t23 20q12 9 27 22t28.5 29.5t22.5 36.5t9 43zM240 64q0 26 12.5 37.5t31.5 11.5q14 0 30.5 -7.5t30.5 -19
t23.5 -24.5t9.5 -24q0 -36 -22.5 -71t-55 -62t-68 -44t-61.5 -17q-23 0 -37 11.5t-14 37.5q0 11 9.5 20t23.5 20q12 9 27 22t28.5 29.5t22.5 36.5t9 43z" />
    <glyph glyph-name="bullet" unicode="&#x2022;" horiz-adv-x="389" 
d="M133 501q48 0 78 -17.5t34 -43.5q7 -8 18.5 -29t11.5 -47q0 -16 -13 -37t-34 -40.5t-46 -33t-49 -13.5t-47 10t-41 26.5t-29 36.5t-11 40q0 19 9.5 45t26.5 48.5t40.5 38.5t51.5 16z" />
    <glyph glyph-name="ellipsis" unicode="&#x2026;" horiz-adv-x="570" 
d="M62 -1q-8 0 -21 3.5t-25 11t-20.5 19t-8.5 28.5q0 13 6.5 29.5t15.5 30.5t20 23.5t20 9.5q13 0 26 -6t23 -15t16 -20t6 -21q0 -9 -6.5 -25t-15.5 -31t-19 -26t-17 -11zM239 -1q-8 0 -21 3.5t-25 11t-20.5 19t-8.5 28.5q0 13 6.5 29.5t15.5 30.5t20 23.5t20 9.5
q13 0 26 -6t23 -15t16 -20t6 -21q0 -9 -6.5 -25t-15.5 -31t-19 -26t-17 -11zM417 -1q-8 0 -21 3.5t-25 11t-20.5 19t-8.5 28.5q0 13 6.5 29.5t15.5 30.5t20 23.5t20 9.5q13 0 26 -6t23 -15t16 -20t6 -21q0 -9 -6.5 -25t-15.5 -31t-19 -26t-17 -11z" />
    <glyph glyph-name="perthousand" unicode="&#x2030;" horiz-adv-x="762" 
d="M143 525q-11 0 -26.5 5t-29.5 16t-24 28t-10 41q0 21 15 48t37 50.5t47.5 40t47.5 16.5q21 0 40 -8t33 -20.5t22 -29t8 -32.5q0 -25 -11.5 -52.5t-32.5 -50t-50.5 -37.5t-65.5 -15zM140 594q13 4 25.5 13.5t22 22t15.5 26.5t7 26q-10 -5 -21 -15.5t-21.5 -23.5t-18 -26
t-9.5 -23zM524 690q0 -14 -13.5 -37.5t-35.5 -53.5t-51 -64.5t-60 -70.5q-42 -49 -85 -101t-78 -101t-57.5 -91t-22.5 -70q0 -17 4.5 -31.5t9.5 -25.5q6 -14 9.5 -25t1.5 -18.5t-11.5 -12t-29.5 -4.5q-17 0 -37.5 12.5t-37.5 33t-28.5 48t-11.5 57.5q0 33 21 77t54 93
t74 101t82 101q35 43 68.5 84t59.5 77.5t41.5 66t15.5 49.5q0 13 18.5 9t40.5 -18.5t40.5 -37.5t18.5 -47zM308 285q21 0 40 -8t33 -21t22 -29t8 -32q0 -25 -11.5 -52.5t-33 -50t-51 -37.5t-65.5 -15q-11 0 -26 5t-29 16t-24 28t-10 41q0 21 15 47.5t37 50.5t47.5 40.5
t47.5 16.5zM318 196q-9 -5 -20.5 -15.5t-21.5 -23t-17.5 -25t-10.5 -22.5q13 3 25 12.5t21.5 21.5t15.5 26t8 26zM577 285q21 0 40 -8t33 -21t22 -29t8 -32q0 -25 -11.5 -52.5t-33 -50t-51.5 -37.5t-66 -15q-10 0 -25 5t-29.5 16t-24.5 28t-10 41q0 21 15 47.5t37 50.5
t48 40.5t48 16.5zM586 196q-9 -5 -20 -15.5t-21 -23t-18 -25t-11 -22.5q13 3 25 12.5t22 21.5t16 26t7 26z" />
    <glyph glyph-name="guilsinglleft" unicode="&#x2039;" horiz-adv-x="470" 
d="M305 568q0 10 17.5 6t38.5 -16t38.5 -28t17.5 -31q0 -7 -12.5 -22t-33 -34.5t-47 -42t-53.5 -44.5q-64 -53 -146 -115q19 -9 47.5 -25t55.5 -33t46 -33.5t19 -27.5q0 -17 -8 -26t-19 -10.5t-23.5 3.5t-22.5 14q-8 8 -29.5 20.5t-44.5 25.5q-27 15 -56 32.5t-52.5 35.5
t-39 36.5t-15.5 37.5q0 11 12 25.5t32 31t46.5 35t55.5 38.5v-1q31 22 62.5 44t57 42t41 36.5t15.5 25.5z" />
    <glyph glyph-name="guilsinglright" unicode="&#x203a;" horiz-adv-x="470" 
d="M-10 160q0 3 12 14.5t32 27.5t45.5 35.5t52.5 39.5q62 47 143 103q-13 15 -32.5 38t-39 47.5t-36.5 47t-26 34.5q-5 6 3 14.5t20 15.5t24 9t17 -5q-2 3 11.5 -12t33.5 -35q23 -25 50.5 -56t51.5 -60t40.5 -53.5t16.5 -36.5q0 -9 -10.5 -21t-27.5 -26t-39.5 -30t-47.5 -32
q-24 -17 -50.5 -35t-52 -37t-48.5 -37t-40 -35q-10 -10 -27.5 -1.5t-34 25t-29 34.5t-12.5 27z" />
    <glyph glyph-name="fraction" unicode="&#x2044;" horiz-adv-x="420" 
d="M101 -32q0 -13 -18 -10t-39.5 16.5t-39.5 34.5t-18 45q0 18 12 51t32 77.5t46 98t55 111.5q36 71 72 144t65 138.5t47.5 118t18.5 82.5q0 13 21.5 10.5t47 -16t47 -34.5t21.5 -45q0 -14 -11.5 -44t-31 -70.5t-45.5 -90.5t-55 -104q-39 -73 -79.5 -150.5t-73 -148
t-53.5 -127t-21 -87.5z" />
    <glyph glyph-name="Euro" unicode="&#x20ac;" horiz-adv-x="758" 
d="M771 741q0 -11 -3 -26q-1 -2 -1 -4v-2l-4 -13q-8 -18 -19 -38t-23 -37q-15 -24 -27 -45t-12 -38q0 -3 0.5 -4t1.5 -5q4 -17 3 -28.5t-26 -11.5q-11 0 -24 5.5t-24 16t-18.5 24.5t-7.5 32q0 28 16.5 60t37.5 64q16 25 30 50t17 43q-6 3 -12 3q-24 0 -59 -17t-75.5 -47.5
t-83.5 -72t-83 -90.5h15q13 0 19 2.5t9 4.5q8 6 17 6q7 0 9 -16.5t-0.5 -37t-10 -37t-20.5 -16.5l-108 -1l-3 -3l-6 -10h33q16 0 22.5 1.5t10.5 3.5l-3 -1q3 2 6 3t8 1q7 0 8 -15.5t-2.5 -34t-12 -34t-20.5 -15.5h-54t-48 -1q-26 -54 -40.5 -105.5t-14.5 -100.5
q0 -12 2.5 -26t9 -25t18 -18.5t30.5 -7.5q44 0 85 23.5t74.5 55t58.5 63.5t37 49l-1 -1q7 11 14 16.5t12 5.5q8 0 21 -12.5t13 -26.5q0 -8 -12.5 -30t-34 -49.5t-51 -57.5t-64 -55.5t-72.5 -41.5t-76 -16q-11 0 -30 1t-41 7t-45 19t-41.5 37t-30.5 61t-12 91q-1 29 8 64.5
t25 75.5q-17 -1 -27 -1h-12q-8 0 -12.5 -1.5t-7.5 -3.5l-7.5 -3t-7.5 -1q-7 0 -7 19t6 41.5t18.5 40.5t31.5 17q2 0 3.5 -0.5t3.5 -0.5q-3 8 -1.5 27t8 38.5t18.5 34.5t29 14q24 -2 42 -4t41 -4q43 60 92.5 115t100.5 96t102 65.5t97 24.5q53 0 87 -12t53.5 -31t26.5 -41
t7 -43v-2zM88 463q-1 -1 -2 -1h2l45 -4l4 6q-12 0 -25 -0.5t-24 -0.5z" />
    <glyph glyph-name="trademark" unicode="&#x2122;" horiz-adv-x="582" 
d="M204 820q21 0 36.5 -14t24.5 -30.5t10 -30t-8 -13.5q-5 0 -15 0.5t-18 1.5q-12 1 -22.5 2.5t-10.5 9.5q-28 -47 -49 -86q-9 -17 -17.5 -33.5t-15.5 -30.5t-11 -24t-4 -13q0 -9 -12.5 -7t-27 9t-27 16t-12.5 14t7.5 21t18 37t22.5 43t21 39q-12 0 -26.5 12t-25.5 27
t-15.5 27t3.5 12q2 0 8.5 0.5t17.5 1.5q14 1 33.5 2.5t40 3t40 2.5t34.5 1zM458 819q7 0 17 -4t18 -10t14 -13t6 -13q0 -4 -11 -29.5t-27 -59.5q-11 -23 -21.5 -46.5t-19.5 -43.5t-14.5 -33.5t-5.5 -16.5q0 -8 -11.5 -5.5t-26 9.5t-26 16.5t-11.5 15.5q0 2 2 8t4 13l6 16
q-3 -1 -7 -1q-6 0 -17 9q-5 4 -11 10q-6 -11 -13 -25t-13.5 -26.5t-10.5 -23t-4 -14.5q0 -8 -12 -4.5t-26.5 11t-26.5 16t-12 11.5t7.5 20t19 41t25.5 51t26.5 51.5t21.5 42t12 21.5q6 4 14.5 3.5t17.5 -3.5t16.5 -7t11.5 -8q6 -6 7.5 -20t1.5 -30l7 8q19 22 40 42.5
t32 20.5z" />
    <glyph glyph-name="minus" unicode="&#x2212;" horiz-adv-x="538" 
d="M113 411q25 0 62 0.5t76 2.5q34 2 67.5 3t50.5 1q19 0 36 -15.5t27.5 -34.5t12.5 -34.5t-8 -15.5h-18q-5 0 -11 0.5t-18 0.5q-17 0 -41.5 0.5t-53.5 0.5q-35 1 -69.5 1h-63.5q-26 0 -45.5 14t-30.5 31t-12.5 31t7.5 14h32z" />
    <glyph glyph-name="k.alt" unicode="&#xe002;" horiz-adv-x="559" 
d="M570 -54q55 0 92.5 -12.5t61 -31.5t34.5 -40t11 -37q0 -19 -18 -42t-51 -43t-78.5 -33.5t-99.5 -13.5q-43 0 -93 23.5t-94 55.5q-11 -5 -21.5 -10t-21.5 -9h1q-60 -29 -130 -59.5t-155.5 -56t-190.5 -41.5t-237 -16q-77 0 -137 21.5t-104.5 53.5t-73.5 69t-43 69
t-14 53.5t14 21.5q18 0 31.5 -10.5t29.5 -25.5q14 -14 34 -30.5t53 -31t81.5 -24.5t118.5 -10q120 0 217.5 11.5t178.5 29.5t148 40.5t126 44.5q-30 34 -62.5 78.5t-60.5 90.5t-48.5 91t-27.5 81q-20 -44 -31 -76.5t-11 -49.5l2 -8q1 -3 1.5 -7t1.5 -7l-1 1q3 -12 5 -22
t0 -17.5t-9.5 -12t-23.5 -4.5q-20 0 -40 9.5t-37 27t-27.5 41.5t-10.5 54q0 25 13.5 67t35 93.5t49 110t55.5 116.5q27 57 54 113.5t48 105t34 87t13 59.5q0 16 22.5 14.5t50 -15t50 -34t22.5 -41.5t-9.5 -53.5t-26 -72t-38 -85.5t-45.5 -94q23 19 45 36t41 30.5t33 21.5
t22 8q5 0 9 -1t7 -2l-2 1q15 -3 30 -12.5t27 -24t19 -33t7 -39.5q0 -43 -28 -86t-71.5 -79t-96.5 -61t-104 -33q7 -39 32.5 -84t59.5 -89t73 -83t73 -66q51 17 101.5 28t104.5 11zM323 514q-14 -11 -34 -26.5t-44 -34.5t-49.5 -40.5t-49.5 -43.5q33 13 63.5 33.5t54.5 42
t40 40t19 29.5zM559 -185q35 0 65 2t52 9q-13 6 -37 10.5t-62 4.5q-23 0 -44 -2.5t-41 -7.5q40 -16 67 -16z" />
    <glyph glyph-name="of" unicode="&#xe003;" horiz-adv-x="594" 
d="M506 492q3 0 3.5 -8t-5 -17t-17 -17t-32.5 -8q-7 0 -13.5 0.5t-12.5 1.5q-14 -35 -30 -74.5t-33 -79t-35 -75t-36.5 -63t-36.5 -44t-35 -16.5q-5 0 -8 4t-4 8.5t1.5 8.5t9.5 4t20 25.5t26 56.5q15 36 31 83q-11 -11 -22 -17t-19 -9q-10 -4 -19 -5q-11 -16 -24 -27
q-11 -11 -27 -19t-35 -8q-28 0 -46.5 22.5t-18.5 58.5q0 17 7 36t16.5 34.5t19 26t14.5 10.5q7 0 13 -2q3 -1 5 -1q8 12 19 22q9 8 22 15.5t29 7.5q18 0 33 -8.5t15 -41.5q0 -17 -3.5 -33.5t-7.5 -29.5q-5 -15 -11 -28q12 6 23.5 17.5t20.5 22.5q11 13 21 27q5 14 11 31
q5 14 13 32.5t19 38.5q-28 5 -63.5 9.5t-85.5 4.5q-30 0 -47.5 -3.5t-27 -8t-14.5 -8t-10 -3.5q-6 0 -4 10t13.5 22.5t33 22.5t54.5 10q51 0 91 -9.5t74 -18.5q11 21 23 40.5t25 34.5t26.5 24t27.5 9q10 0 15 -6.5t6.5 -14.5t0 -14.5t-4.5 -6.5q-8 0 -9.5 8.5t-4.5 8.5
q-6 0 -18 -27t-29 -69q5 -1 9.5 -1.5t8.5 -0.5q16 0 24.5 3.5t12.5 8t6 8.5t6 4zM156 226q11 0 19.5 4t14.5 9q7 5 13 13q-8 3 -17 7q-8 4 -16.5 9.5t-15.5 13.5q-3 -8 -6 -15q-2 -6 -4 -13t-2 -12q0 -11 4.5 -13.5t9.5 -2.5zM220 276q8 13 15.5 33t12.5 39t6 32.5t-4 13.5
q-6 0 -14.5 -11t-16.5 -26t-13.5 -30.5t-5.5 -24.5q0 -11 3 -16t7 -7q4 -3 10 -3z" />
    <glyph glyph-name="tt" unicode="&#xe004;" horiz-adv-x="712" 
d="M713 453q4 7 15 7t22.5 -4.5t19 -12t4.5 -15.5q-10 -20 -31.5 -59.5t-52.5 -87.5t-69 -97.5t-80 -90.5t-86.5 -67t-88.5 -26q-15 0 -34 6t-37 19t-33.5 33.5t-22.5 48.5q-36 -48 -77.5 -77.5t-91.5 -29.5q-18 0 -41.5 10.5t-44.5 30.5t-35 49t-14 67q0 18 13 58.5
t34 95.5t48 120t56 132h-41q-27 0 -42 18t-21 39t-4 39t10 18t14 -2.5t11 -5.5q3 -1 8 -2t12 -1q28 0 49.5 0.5t50.5 2.5q20 45 38 86t31.5 72.5t21 52t7.5 25.5q0 16 20 14t44 -15t44 -34t20 -42q0 -10 -16.5 -47.5t-41.5 -91.5q-2 -4 -1 -1.5t-2 -5.5l74 8l72 7
q0 1 0.5 1.5t0.5 1.5q23 55 38 91t15 42q0 16 20 14t44 -15t44 -34t20 -42q0 -10 -17 -49h24q26 0 46 -18.5t31 -41t11.5 -41t-12.5 -18.5q-15 0 -23 4h1q-3 1 -8 2t-16 1q-28 0 -52 -0.5t-54 -1.5q-27 -59 -58 -129.5t-57 -138t-43.5 -126t-17.5 -92.5q0 -24 9 -24
q28 0 60.5 23t65.5 59t65.5 79.5t59 84.5t45.5 74.5t27 49.5zM267 286q26 69 57.5 141.5t67.5 153.5l-32 -2l-32 -2l-79 -7q-29 -63 -58 -131.5t-52.5 -131.5t-38.5 -116t-15 -85q0 -23 9 -23q23 0 46 18t45.5 47t43.5 65.5t39 74.5z" />
    <glyph glyph-name="y.alt" unicode="&#xe005;" horiz-adv-x="673" 
d="M-306 -121q57 0 95.5 -14t62 -34t33.5 -42t9 -37q17 2 38 20t44 46t46.5 63t45.5 71q52 84 106 191q-22 -27 -45.5 -52.5t-45 -46t-40 -32.5t-30.5 -12q-23 0 -43.5 14.5t-36.5 35.5t-25 45t-9 43q0 27 8.5 57.5t21.5 63t29.5 65.5t33.5 65q13 26 26 51.5t23 48.5t16 43
t6 34q0 10 10.5 13t26.5 1t34.5 -9.5t34.5 -20t26.5 -28.5t10.5 -36q0 -13 -7.5 -34.5t-20 -48.5t-28.5 -58.5t-33 -64.5q-21 -39 -40.5 -76.5t-34.5 -67.5t-23.5 -48.5t-5.5 -18.5q7 0 26.5 19.5t45 51t55.5 70.5t58.5 78.5t53.5 74.5t41 59l-3 -4q21 54 33.5 86.5
t12.5 37.5q0 31 11.5 44.5t30.5 13.5q14 0 31.5 -11.5t33 -28.5t26 -37.5t10.5 -38.5q0 -22 -15 -70t-40.5 -111.5t-60 -137.5t-74.5 -148.5t-83 -143t-85.5 -121.5t-82.5 -84.5t-73 -31.5q-45 0 -75 12t-47.5 29.5t-24.5 37.5t-7 35v2q-13 13 -38.5 24.5t-76.5 13.5
q-32 2 -79.5 -13.5t-108.5 -38.5q-49 -17 -105.5 -36.5t-119.5 -35.5t-132.5 -26.5t-144.5 -10.5q-9 0 -17 0.5t-16 0.5q-69 0 -116.5 18.5t-77 45t-43 56t-13.5 51.5t10 36t30 12q18 -2 25.5 -8t15.5 -17v1q5 -7 13 -15t26.5 -15.5t51.5 -13.5t88 -8q10 -1 19 -1h19
q61 0 119 6t112.5 15.5t105.5 21.5t98 23q70 17 130 29t108 12z" />
    <glyph glyph-name="g.alt" unicode="&#xe006;" horiz-adv-x="601" 
d="M322 385q0 32 11.5 45t30.5 13q14 0 32 -11.5t33.5 -28.5t26 -37.5t10.5 -38.5q0 -17 -11.5 -55t-32.5 -89.5t-49.5 -111t-62.5 -119t-71.5 -115t-76.5 -98.5t-78 -68.5t-75 -25.5q-45 0 -75 11.5t-48 29t-25 36.5t-7 34q0 23 13 33.5t28 10.5q16 0 29 -10t14 -30
q27 2 57 24t60.5 58t60.5 83t58 98q-17 -11 -35.5 -18.5t-35.5 -7.5q-39 0 -69 17.5t-50 46t-30.5 63.5t-10.5 70q0 43 14.5 90t40 92.5t60.5 86t75.5 71t85 48.5t89.5 18q38 0 64.5 -10.5t43.5 -27t26 -36.5t12.5 -38.5t2.5 -33.5t-4 -21q-3 -8 -12.5 -7.5t-19 4.5
t-16.5 9.5t-5 8.5q1 2 0.5 10.5t-6.5 18t-18.5 17t-36.5 7.5t-51.5 -21t-54.5 -54.5t-52 -76.5t-43.5 -86.5t-30 -84t-11.5 -69.5q0 -37 21 -37q30 0 61 30.5t57.5 73.5t47 89.5t31.5 79.5v-1q3 14 5.5 24.5t2.5 16.5z" />
    <glyph glyph-name="fi" unicode="&#xfb01;" horiz-adv-x="707" 
d="M603 718q-5 -27 -29.5 -50t-71.5 -40.5t-116.5 -28t-163.5 -11.5l-23 -58q-35 -89 -73.5 -183t-79 -183.5t-82.5 -168.5t-85 -138.5t-86 -94t-86 -34.5q-13 0 -20.5 10t-9 21.5t4 21.5t17.5 10q16 0 37 32t45.5 87.5t52.5 129.5t60 158q37 102 73 198.5t83 198.5
q-67 8 -120 21.5t-89.5 28t-56 28t-19.5 22.5q0 30 20.5 30.5t67.5 -10.5q35 -8 93.5 -18t145.5 -15q31 64 66.5 126t73.5 111t76.5 79.5t76.5 30.5q27 0 41.5 -16.5t19 -37t1 -37t-13.5 -16.5q-21 0 -27 10.5t-8 24.5q-2 10 -3 10q-7 0 -21 -25t-32 -65.5t-39.5 -92.5
t-43.5 -106q57 2 101.5 7.5t79.5 13.5q0 16 4.5 36t13.5 37.5t21.5 29t26.5 11.5q19 0 36.5 -5.5t31 -16t22 -26.5t8.5 -36l-1 -2v-9zM654 459q4 8 15.5 8t22.5 -4.5t18.5 -12.5t4.5 -16q-10 -22 -31 -62.5t-50 -88t-64 -97.5t-72.5 -90.5t-77 -66.5t-77.5 -26
q-51 0 -82.5 36.5t-31.5 98.5q0 22 10 56t26 73.5t35.5 81.5t37.5 81q24 51 41 89.5t17 49.5q0 16 20 14.5t44.5 -15t44.5 -34.5t20 -42q0 -6 -5 -20t-13 -32.5t-18 -40t-20 -42.5q-17 -34 -35 -73t-34 -75t-26 -66.5t-10 -47.5q0 -10 3 -10q22 0 49.5 23.5t57 59.5t58.5 80
t53.5 85.5t42.5 75t26 49.5v1z" />
    <glyph glyph-name="fl" unicode="&#xfb02;" horiz-adv-x="717" 
d="M500 862q0 11 -3 25t-9.5 26t-16 20.5t-22.5 8.5t-28.5 -12.5t-32 -33t-33 -46.5t-32.5 -53q-37 -63 -75 -144q23 1 45 3.5t39 4.5q18 3 32.5 4.5t25 0t16 -7.5t5.5 -18q0 -9 -13.5 -22.5t-39.5 -25.5t-63 -20.5t-85 -9.5l-25 -68q-35 -88 -71.5 -179.5t-75 -176.5
t-78.5 -159.5t-81.5 -130.5t-84.5 -88t-86 -32q-13 0 -20.5 10t-9 21.5t4 21.5t17.5 10q16 0 36.5 31.5t44.5 84.5t50.5 122.5t54.5 145.5q35 98 71 195t82 199q-67 8 -120 21.5t-89.5 28t-56 28t-19.5 22.5q0 30 20.5 30.5t67.5 -10.5q35 -8 93 -18t145 -16q7 15 23 47.5
t40.5 72t56 81t69.5 75.5t82 56t92 22q59 0 97.5 -21t61 -51t31 -62.5t8.5 -55.5t-11.5 -61.5t-29.5 -86.5t-41 -102t-46 -107t-46 -107.5t-42 -103t-30.5 -87t-11.5 -60.5q0 -12 2 -12q18 0 43.5 22t53.5 56.5t57 76t54 81t43.5 71.5t26.5 48q4 8 15 8.5t22.5 -4t19 -12.5
t4.5 -16q-10 -20 -32 -59.5t-52 -86.5t-66.5 -96.5t-75 -89.5t-76.5 -66t-72 -26q-50 0 -81.5 36.5t-31.5 98.5q0 21 10 55t27 78t39 94.5t45 104.5q26 59 51.5 118t45.5 111.5t32.5 96t12.5 70.5z" />
    </font>
</defs>
</svg>
