<svg id="OBJECTS" xmlns="http://www.w3.org/2000/svg" viewBox="0 0 26.2 30.8"><style>.st1{fill:#333}</style><path d="M.9.4C.9.6.7.8.5.8S0 .7 0 .4C0 .2.2 0 .4 0s.5.2.5.4z" fill="#d3b66e"/><path class="st1" d="M22.1 30.8S.2 20.9 3.9 16.2c3.7-4.7 11.8 1 11.8 1s.7-9.8 6.7-9.7c5.9 0-.3 23.3-.3 23.3z"/><path class="st1" d="M22.2 30.5c-.2.6-4.3-.4-10.3-3.5-1.4-.8-2.9-1.6-4.5-2.7-.8-.5-1.6-1.1-2.4-1.8-.8-.7-1.6-1.4-2.3-2.4-.2-.2-.3-.5-.4-.7-.1-.3-.3-.6-.4-.9-.2-.7-.3-1.5 0-2.3.1-.4.3-.7.6-1.1.2-.3.4-.4.6-.7.4-.4.9-.7 1.5-1.1 1.1-.3 2.3-.6 3.4-.5 1.1 0 2.2.2 3.1.6 1 .3 1.9.7 2.7 1.1l.5.2.1.1V14.5l.1-.4c.2-.9.5-1.9.9-2.8.4-1 .9-1.9 1.6-2.8.7-.9 1.6-1.6 2.7-2.1.6-.2 1.2-.4 1.8-.4l.9-.1c.4 0 .8.1 1.1.2.8.3 1.3.8 1.7 1.4.4.5.6 1.1.7 1.6.3 1.2.4 2.2.4 3.3 0 1-.1 2-.2 2.9-.2 1.9-.5 3.6-.8 5.1-1.4 6.4-2.9 10.4-3.4 10.3-.5-.1.5-4.2 1.4-10.6.2-1.5.4-3.2.4-5v-2.7c0-.9-.1-1.8-.4-2.6l-.2-.5c-.1 0-.1-.1-.2-.2s-.1-.2-.2-.2l-.1-.1h-.1c0-.1-.1 0-.2-.1h-.5c-.3 0-.6.1-.9.2-1.2.5-2.2 1.8-2.8 3.4-.3.7-.5 1.6-.7 2.4l-.1.3c0 .2-.1.4-.1.6-.1.4-.1.8-.2 1.3l-.2 2.8-2.3-1.5c-.4-.3-.8-.4-1.2-.7l-.6-.3-.3-.1c-.8-.3-1.5-.6-2.3-.9-.8-.3-1.6-.4-2.3-.4-.7 0-1.3.2-1.9.4-.2.2-.5.3-.7.5l-.3.3c0 .1-.1.1-.1.1V17.4c0 .2.2.4.3.7.4.6 1 1.3 1.6 1.9.6.6 1.3 1.2 2 1.8 1.3 1.1 2.7 2.1 4 3 5.8 3.6 9.6 5.4 9.5 5.7z"/></svg>