<svg id="OBJECTS" xmlns="http://www.w3.org/2000/svg" viewBox="0 0 86.4 24.2"><style>.st0{fill:#333}</style><path class="st0" d="M72.9 14.7c.2 0 .3.4.5 1.3.3.8.8 2 2.1 3 1.2 1 3.2 1.6 5.1 1 1-.3 1.9-1 2.6-1.9.7-.9 1-2.1.9-3.3-.1-2.3-2.2-4.6-5.1-4.4-.8 0-1.6 0-2.5.1-.8 0-1.7.2-2.6.2-1.7.1-3.5.5-5.3.8-6.2 1.1-12.9 2.5-19.6 4.2-6.5 1.7-13 3.6-19.5 5.2-3.4.8-6.7 1.7-10.1 2.4-.8.2-1.7.3-2.5.5-.9.1-1.7.2-2.6.3-.9.1-1.8.1-2.7.1-.4 0-.9-.1-1.4-.1-.4-.1-.9-.2-1.3-.3-2-.6-3.8-1.6-5.3-3C2.2 19.4 1.1 17.7.5 16-.6 12.4 0 8.7 1.6 5.9 3.2 3 5.9 1.2 8.3.5c2.5-.8 4.8-.6 6.5-.1 1.7.5 2.9 1.3 3.6 1.9.7.6 1 1 .9 1.1-.1.1-.5-.2-1.3-.6-.8-.4-1.9-1-3.5-1.3-1.5-.2-3.5-.3-5.7.5-2 .8-4.2 2.4-5.5 4.9-1.2 2.3-1.6 5.4-.5 8.3.6 1.4 1.4 2.7 2.6 3.8 1.2 1.1 2.6 1.9 4.2 2.3.3.1.7.1 1 .2.4 0 .7.1 1.1.1.8 0 1.5 0 2.3-.1l2.4-.3c.8-.1 1.6-.3 2.4-.5 3.3-.6 6.6-1.5 10-2.3 6.5-1.7 12.9-3.9 19.4-5.5C55 11.2 61.6 9.5 68 8.5c1.9-.2 3.7-.6 5.5-.6.9-.1 1.8-.1 2.7-.1.9 0 1.8 0 2.7.1h.7l.7.1c.5.1 1 .2 1.4.4.9.4 1.7.9 2.4 1.6 1.3 1.3 2.1 3.1 2.1 4.8.1 1.7-.4 3.4-1.4 4.6-.9 1.2-2.2 2.1-3.6 2.5-1.3.4-2.6.3-3.8.1-1.1-.3-2.1-.9-2.8-1.5-1.4-1.3-1.9-2.8-2-3.8.1-1.4.2-1.9.3-2z"/><circle class="st0" cx="67" cy="18.6" r="1"/><path class="st0" d="M65.9 18.6c.3 0 .7.3.9.2.1 0 .2 0 .2-.1h.2v-.2c0-.1-.1-.1-.2-.2s-.2-.1-.4-.1c-.3 0-.5.4-.7.4-.1 0-.2-.1-.2-.3 0-.2.1-.6.4-.9.3-.3.8-.5 1.3-.4.5.1.9.4 1.1.9.2.4.4 1 .2 1.5-.3.5-.7.9-1.2 1-.6.1-1.1-.3-1.3-.6-.7-.7-.5-1.3-.3-1.2z"/><circle class="st0" cx="53" cy="21.2" r="1"/><path class="st0" d="M51.9 21.2c.3 0 .7.3.9.2.1 0 .2 0 .2-.1 0 0 .1.1.2 0v-.2c0-.1-.1-.1-.2-.2s-.2-.1-.4-.1-.4.4-.7.4c-.1 0-.2-.1-.2-.3 0-.2.1-.6.4-.9.3-.3.8-.5 1.3-.4.5.1.9.4 1.1.9.2.4.4 1 .2 1.5-.3.5-.7.9-1.2 1-.6.1-1.1-.3-1.3-.6-.6-.7-.4-1.3-.3-1.2z"/><circle class="st0" cx="66" cy="3.8" r="1"/><path class="st0" d="M64.9 3.8c.3 0 .7.3.9.2.1 0 .2 0 .2-.1h.2v-.2c0-.1-.1-.1-.2-.2s-.2-.1-.4-.1-.5.4-.7.4c-.1 0-.2-.1-.2-.3 0-.2.1-.6.4-.9.3-.3.8-.5 1.3-.4.5.1.9.4 1.1.9.2.4.4 1 .2 1.5-.3.5-.7.9-1.2 1-.6.1-1.1-.3-1.3-.6-.7-.7-.4-1.2-.3-1.2z"/><circle class="st0" cx="59.8" cy="19.5" r="1.6"/><path class="st0" d="M58 19.5c.3 0 .6.5 1.1.7.2.1.5.1.8 0 .2-.1.5-.1.6-.4.1-.2.1-.5 0-.8-.1-.3-.4-.4-.6-.5-.3-.1-.6-.1-.9 0-.6.4-.7 1-1 1-.1 0-.2-.2-.2-.5s.2-.8.6-1.2c.4-.4 1.1-.7 1.9-.5.6.1 1.2.6 1.5 1.2.3.6.5 1.4.2 2.1-.3.7-1 1.2-1.7 1.3-.8.1-1.5-.3-1.9-.7-.4-.4-.6-.9-.6-1.2.1-.3.1-.5.2-.5z"/><circle class="st0" cx="11.7" cy="14.6" r="2.9"/><path class="st0" d="M8.7 14.6c.4 0 .6 1.1 1.6 1.7.5.3 1.2.5 1.8.3.5-.1 1.2-.4 1.5-1.1.3-.6.3-1.3 0-1.9-.3-.6-.9-1-1.5-1.2-.7-.2-1.5-.1-2 .3-1.1.8-1.2 2-1.4 1.9-.1 0-.2-.3-.2-.8.1-.5.3-1.3 1-1.9.7-.6 1.8-1 2.9-.8 1 .2 1.9.9 2.4 1.9.5.9.7 2.1.2 3.2-.5 1-1.5 1.8-2.5 2-1.2.2-2.3-.4-2.9-1-.7-.6-.9-1.4-1-1.8-.1-.5 0-.8.1-.8z"/><g><path class="st0" d="M61.5 4.6c.1.3-1.5 1-4.1 1.8-1.2.4-2.7.8-4.3 1.2-1.4.3-2.9.6-4.4.9-1.4.3-2.9.7-4.3 1-1.5.3-2.9.7-4.3 1-1.6.3-3.1.6-4.4.8-2.6.5-4.4.6-4.4.4-.1-.2 1.6-.7 4.2-1.4 1.2-.3 2.7-.7 4.3-1.1 1.4-.3 2.8-.7 4.3-1 1.4-.3 2.8-.9 4.3-1.2 1.5-.3 2.9-.7 4.3-1 1.6-.3 3.1-.5 4.4-.7 2.6-.6 4.4-.9 4.4-.7z"/></g><g><path class="st0" d="M29.2 9.3c.2.2.1.7-.2 1.3-.2.3-.4.5-.6.8-.2.2-.5.4-.8.6-.2.2-.4.5-.7.7-.2.2-.4.5-.7.7-.3.2-.6.4-.8.6-.5.4-.9.6-1.1.4-.2-.1 0-.5.3-1.1l.6-.9c.2-.3.5-.5.7-.8.2-.3.3-.6.6-.9.3-.2.5-.5.7-.7.3-.2.7-.3 1-.5.6-.1.9-.3 1-.2z"/></g><g><path class="st0" d="M21.9 11.6c.3.1.5.4.5.8 0 .2-.1.4-.1.6-.1.2-.3.3-.4.4-.1.2-.2.3-.3.4-.1.1-.2.3-.4.4-.2.1-.4.2-.6.2-.3.1-.6.1-.8-.1-.2-.2 0-.4.1-.6.1-.1.2-.3.3-.4l.3-.3c.1-.1 0-.4.1-.5.1-.1.2-.3.3-.4.1-.1.4-.1.5-.2.1-.2.3-.3.5-.3z"/></g><g><path class="st0" d="M72.6 1.8c.2.2.4.5.3.8 0 .2-.1.3-.2.5-.1.1-.3.2-.4.3-.1.1-.2.2-.4.3-.2.1-.3.3-.4.3-.2.1-.4.1-.5.1-.3 0-.6-.1-.7-.3-.1-.2 0-.4.2-.6l.3-.3c.1-.1.2-.2.3-.2.1-.1.1-.3.2-.4l.3-.3c.1-.1.4 0 .5-.1.2-.1.3-.2.5-.1z"/></g></svg>